G04 Layer: BottomSolderMaskLayer*
G04 EasyEDA v6.1.52, Wed, 17 Jul 2019 13:51:58 GMT*
G04 0f272f2afd1b494c8b1dbf383a833715,ab89ba01d8c54d20b0ee7efe4e0f3ffc,10*
G04 Gerber Generator version 0.2*
G04 Scale: 100 percent, Rotated: No, Reflected: No *
G04 Dimensions in inches *
G04 leading zeros omitted , absolute positions ,2 integer and 4 decimal *
%FSLAX24Y24*%
%MOIN*%
G90*
G70D02*

%ADD25C,0.070992*%
%ADD31R,0.074929X0.074929*%
%ADD32C,0.074929*%

%LPD*%
G36*
G01X19294Y1294D02*
G01X19294Y2005D01*
G01X20005Y2005D01*
G01X20005Y1294D01*
G01X19294Y1294D01*
G37*
G54D25*
G01X19650Y650D03*
G01X18650Y1650D03*
G01X18650Y650D03*
G01X17650Y1650D03*
G01X17650Y650D03*
G01X16650Y1650D03*
G01X16650Y650D03*
G01X15650Y1650D03*
G01X15650Y650D03*
G01X14650Y1650D03*
G01X14650Y650D03*
G01X13650Y1650D03*
G01X13650Y650D03*
G01X12650Y1650D03*
G01X12650Y650D03*
G01X11650Y1650D03*
G01X11650Y650D03*
G01X10650Y1650D03*
G01X10650Y650D03*
G01X9650Y1650D03*
G01X9650Y650D03*
G01X8650Y1650D03*
G01X8650Y650D03*
G01X7650Y1650D03*
G01X7650Y650D03*
G01X6650Y1650D03*
G01X6650Y650D03*
G01X5650Y1650D03*
G01X5650Y650D03*
G01X4650Y1650D03*
G01X4650Y650D03*
G01X3650Y1650D03*
G01X3650Y650D03*
G01X2650Y1650D03*
G01X2650Y650D03*
G01X1650Y1650D03*
G01X1650Y650D03*
G01X650Y1650D03*
G01X650Y650D03*
G54D31*
G01X6650Y3650D03*
G54D32*
G01X6650Y4650D03*
G01X7650Y3650D03*
G01X7650Y4650D03*
G01X8650Y3650D03*
G01X8650Y4650D03*
G01X9650Y3650D03*
G01X9650Y4650D03*
M00*
M02*
