G04 Layer: TopLayer*
G04 EasyEDA v6.1.52, Wed, 17 Jul 2019 13:51:58 GMT*
G04 0f272f2afd1b494c8b1dbf383a833715,ab89ba01d8c54d20b0ee7efe4e0f3ffc,10*
G04 Gerber Generator version 0.2*
G04 Scale: 100 percent, Rotated: No, Reflected: No *
G04 Dimensions in inches *
G04 leading zeros omitted , absolute positions ,2 integer and 4 decimal *
%FSLAX24Y24*%
%MOIN*%
G90*
G70D02*

%ADD11C,0.020000*%
%ADD12R,0.157480X0.078740*%
%ADD18C,0.062992*%
%ADD19R,0.066929X0.066929*%
%ADD20C,0.066929*%

%LPD*%
G36*
G01X20153Y6244D02*
G01X146Y6244D01*
G01X134Y6242D01*
G01X129Y6240D01*
G01X119Y6234D01*
G01X115Y6230D01*
G01X109Y6220D01*
G01X107Y6215D01*
G01X105Y6203D01*
G01X105Y146D01*
G01X107Y134D01*
G01X109Y129D01*
G01X115Y119D01*
G01X119Y115D01*
G01X129Y109D01*
G01X134Y107D01*
G01X146Y105D01*
G01X20153Y105D01*
G01X20165Y107D01*
G01X20170Y109D01*
G01X20180Y115D01*
G01X20184Y119D01*
G01X20190Y129D01*
G01X20192Y134D01*
G01X20193Y140D01*
G01X20193Y6209D01*
G01X20192Y6215D01*
G01X20190Y6220D01*
G01X20184Y6230D01*
G01X20180Y6234D01*
G01X20170Y6240D01*
G01X20165Y6242D01*
G01X20153Y6244D01*
G37*

%LPC*%
G36*
G01X11591Y5751D02*
G01X4900Y5751D01*
G01X4886Y5750D01*
G01X4873Y5749D01*
G01X4860Y5747D01*
G01X4847Y5744D01*
G01X4835Y5740D01*
G01X4811Y5730D01*
G01X4799Y5724D01*
G01X4788Y5717D01*
G01X4777Y5709D01*
G01X4767Y5701D01*
G01X4757Y5692D01*
G01X4172Y5106D01*
G01X4167Y5102D01*
G01X4162Y5099D01*
G01X4156Y5096D01*
G01X4150Y5095D01*
G01X4143Y5094D01*
G01X3150Y5094D01*
G01X3132Y5090D01*
G01X3123Y5087D01*
G01X3115Y5084D01*
G01X3099Y5074D01*
G01X3092Y5068D01*
G01X3085Y5061D01*
G01X3079Y5054D01*
G01X3069Y5038D01*
G01X3066Y5030D01*
G01X3060Y5012D01*
G01X3059Y5003D01*
G01X3059Y4196D01*
G01X3060Y4187D01*
G01X3066Y4169D01*
G01X3069Y4161D01*
G01X3079Y4145D01*
G01X3085Y4138D01*
G01X3092Y4131D01*
G01X3099Y4125D01*
G01X3115Y4115D01*
G01X3123Y4112D01*
G01X3132Y4109D01*
G01X3150Y4105D01*
G01X4744Y4105D01*
G01X4762Y4109D01*
G01X4780Y4115D01*
G01X4788Y4120D01*
G01X4795Y4125D01*
G01X4803Y4131D01*
G01X4815Y4145D01*
G01X4825Y4161D01*
G01X4829Y4169D01*
G01X4832Y4178D01*
G01X4834Y4187D01*
G01X4835Y4196D01*
G01X4836Y4206D01*
G01X4836Y4510D01*
G01X4837Y4516D01*
G01X4839Y4521D01*
G01X4845Y4531D01*
G01X4849Y4535D01*
G01X4859Y4541D01*
G01X4864Y4543D01*
G01X4876Y4545D01*
G01X5209Y4545D01*
G01X5216Y4544D01*
G01X5222Y4543D01*
G01X5228Y4540D01*
G01X5233Y4537D01*
G01X5238Y4533D01*
G01X5242Y4528D01*
G01X5245Y4525D01*
G01X5251Y4513D01*
G01X5253Y4506D01*
G01X5253Y4493D01*
G01X5251Y4486D01*
G01X5245Y4474D01*
G01X5239Y4466D01*
G01X5234Y4458D01*
G01X5226Y4440D01*
G01X5224Y4430D01*
G01X5223Y4421D01*
G01X5222Y4411D01*
G01X5222Y4357D01*
G01X5411Y4357D01*
G01X5411Y4447D01*
G01X5412Y4453D01*
G01X5413Y4458D01*
G01X5415Y4464D01*
G01X5418Y4469D01*
G01X5421Y4473D01*
G01X5425Y4477D01*
G01X5430Y4481D01*
G01X5440Y4485D01*
G01X5446Y4487D01*
G01X5653Y4487D01*
G01X5659Y4485D01*
G01X5669Y4481D01*
G01X5674Y4477D01*
G01X5678Y4473D01*
G01X5681Y4469D01*
G01X5684Y4464D01*
G01X5686Y4458D01*
G01X5687Y4453D01*
G01X5688Y4447D01*
G01X5688Y4357D01*
G01X5877Y4357D01*
G01X5877Y4411D01*
G01X5876Y4421D01*
G01X5875Y4430D01*
G01X5873Y4440D01*
G01X5865Y4458D01*
G01X5860Y4466D01*
G01X5854Y4474D01*
G01X5848Y4486D01*
G01X5846Y4493D01*
G01X5846Y4506D01*
G01X5848Y4513D01*
G01X5854Y4525D01*
G01X5857Y4528D01*
G01X5861Y4533D01*
G01X5866Y4537D01*
G01X5871Y4540D01*
G01X5877Y4543D01*
G01X5883Y4544D01*
G01X5890Y4545D01*
G01X6196Y4545D01*
G01X6203Y4544D01*
G01X6209Y4543D01*
G01X6215Y4540D01*
G01X6220Y4537D01*
G01X6225Y4533D01*
G01X6229Y4528D01*
G01X6232Y4523D01*
G01X6235Y4517D01*
G01X6241Y4499D01*
G01X6248Y4481D01*
G01X6255Y4464D01*
G01X6273Y4430D01*
G01X6283Y4414D01*
G01X6293Y4399D01*
G01X6305Y4383D01*
G01X6317Y4369D01*
G01X6329Y4354D01*
G01X6342Y4341D01*
G01X6370Y4315D01*
G01X6385Y4303D01*
G01X6400Y4292D01*
G01X6432Y4272D01*
G01X6466Y4254D01*
G01X6483Y4247D01*
G01X6501Y4240D01*
G01X6519Y4234D01*
G01X6537Y4229D01*
G01X6556Y4224D01*
G01X6574Y4220D01*
G01X6631Y4214D01*
G01X6669Y4214D01*
G01X6687Y4216D01*
G01X6725Y4220D01*
G01X6744Y4224D01*
G01X6762Y4229D01*
G01X6781Y4234D01*
G01X6798Y4240D01*
G01X6816Y4247D01*
G01X6834Y4255D01*
G01X6851Y4263D01*
G01X6867Y4272D01*
G01X6884Y4282D01*
G01X6899Y4293D01*
G01X6915Y4304D01*
G01X6930Y4316D01*
G01X6944Y4328D01*
G01X6958Y4341D01*
G01X6971Y4355D01*
G01X6983Y4369D01*
G01X6995Y4384D01*
G01X7006Y4400D01*
G01X7017Y4415D01*
G01X7027Y4432D01*
G01X7036Y4448D01*
G01X7044Y4465D01*
G01X7052Y4483D01*
G01X7059Y4501D01*
G01X7065Y4518D01*
G01X7070Y4537D01*
G01X7075Y4555D01*
G01X7079Y4574D01*
G01X7083Y4612D01*
G01X7085Y4630D01*
G01X7085Y4669D01*
G01X7083Y4687D01*
G01X7079Y4725D01*
G01X7075Y4744D01*
G01X7070Y4762D01*
G01X7065Y4781D01*
G01X7059Y4798D01*
G01X7052Y4816D01*
G01X7044Y4834D01*
G01X7036Y4851D01*
G01X7027Y4867D01*
G01X7017Y4884D01*
G01X7006Y4899D01*
G01X6995Y4915D01*
G01X6983Y4930D01*
G01X6971Y4944D01*
G01X6958Y4958D01*
G01X6944Y4971D01*
G01X6930Y4983D01*
G01X6915Y4995D01*
G01X6899Y5006D01*
G01X6884Y5017D01*
G01X6867Y5027D01*
G01X6851Y5036D01*
G01X6834Y5044D01*
G01X6816Y5052D01*
G01X6798Y5059D01*
G01X6781Y5065D01*
G01X6762Y5070D01*
G01X6744Y5075D01*
G01X6725Y5079D01*
G01X6687Y5083D01*
G01X6669Y5085D01*
G01X6631Y5085D01*
G01X6574Y5079D01*
G01X6555Y5075D01*
G01X6519Y5065D01*
G01X6501Y5059D01*
G01X6483Y5052D01*
G01X6466Y5045D01*
G01X6432Y5027D01*
G01X6400Y5007D01*
G01X6385Y4996D01*
G01X6370Y4984D01*
G01X6342Y4958D01*
G01X6337Y4954D01*
G01X6332Y4951D01*
G01X6320Y4947D01*
G01X5883Y4947D01*
G01X5871Y4951D01*
G01X5866Y4954D01*
G01X5861Y4958D01*
G01X5857Y4963D01*
G01X5845Y4977D01*
G01X5837Y4983D01*
G01X5830Y4989D01*
G01X5821Y4993D01*
G01X5813Y4997D01*
G01X5804Y5000D01*
G01X5795Y5002D01*
G01X5785Y5004D01*
G01X5314Y5004D01*
G01X5304Y5002D01*
G01X5295Y5000D01*
G01X5286Y4997D01*
G01X5278Y4993D01*
G01X5269Y4989D01*
G01X5262Y4983D01*
G01X5254Y4977D01*
G01X5242Y4963D01*
G01X5238Y4958D01*
G01X5233Y4954D01*
G01X5228Y4951D01*
G01X5216Y4947D01*
G01X4870Y4947D01*
G01X4864Y4948D01*
G01X4859Y4950D01*
G01X4849Y4956D01*
G01X4845Y4960D01*
G01X4839Y4970D01*
G01X4837Y4975D01*
G01X4836Y4981D01*
G01X4836Y4993D01*
G01X4835Y5003D01*
G01X4834Y5012D01*
G01X4831Y5022D01*
G01X4828Y5031D01*
G01X4824Y5039D01*
G01X4820Y5048D01*
G01X4814Y5055D01*
G01X4808Y5063D01*
G01X4794Y5075D01*
G01X4786Y5080D01*
G01X4776Y5088D01*
G01X4773Y5092D01*
G01X4770Y5098D01*
G01X4767Y5103D01*
G01X4766Y5109D01*
G01X4766Y5121D01*
G01X4770Y5133D01*
G01X4773Y5138D01*
G01X4777Y5143D01*
G01X4971Y5337D01*
G01X4976Y5341D01*
G01X4981Y5344D01*
G01X4987Y5347D01*
G01X4993Y5348D01*
G01X11497Y5348D01*
G01X11503Y5347D01*
G01X11509Y5344D01*
G01X11514Y5341D01*
G01X11519Y5337D01*
G01X11775Y5081D01*
G01X11779Y5076D01*
G01X11782Y5071D01*
G01X11785Y5065D01*
G01X11786Y5059D01*
G01X11787Y5052D01*
G01X11787Y4377D01*
G01X11788Y4368D01*
G01X11797Y4341D01*
G01X11807Y4325D01*
G01X11813Y4318D01*
G01X11827Y4306D01*
G01X11835Y4300D01*
G01X11851Y4292D01*
G01X11860Y4289D01*
G01X11869Y4287D01*
G01X11878Y4286D01*
G01X11888Y4285D01*
G01X12911Y4285D01*
G01X12920Y4286D01*
G01X12930Y4287D01*
G01X12939Y4289D01*
G01X12947Y4292D01*
G01X12956Y4296D01*
G01X12964Y4300D01*
G01X12971Y4305D01*
G01X12979Y4311D01*
G01X12985Y4317D01*
G01X12991Y4324D01*
G01X13001Y4340D01*
G01X13004Y4345D01*
G01X13008Y4350D01*
G01X13013Y4354D01*
G01X13019Y4357D01*
G01X13024Y4360D01*
G01X13030Y4361D01*
G01X13037Y4362D01*
G01X13049Y4360D01*
G01X13055Y4357D01*
G01X13060Y4354D01*
G01X13065Y4350D01*
G01X13852Y3562D01*
G01X13929Y3485D01*
G01X13933Y3479D01*
G01X13937Y3467D01*
G01X13937Y3221D01*
G01X14151Y3221D01*
G01X14157Y3224D01*
G01X14164Y3226D01*
G01X14171Y3227D01*
G01X14177Y3226D01*
G01X14184Y3225D01*
G01X14189Y3223D01*
G01X14195Y3219D01*
G01X14200Y3215D01*
G01X14351Y3064D01*
G01X14355Y3059D01*
G01X14358Y3054D01*
G01X14362Y3042D01*
G01X14362Y2606D01*
G01X14363Y2596D01*
G01X14364Y2587D01*
G01X14366Y2578D01*
G01X14369Y2569D01*
G01X14377Y2553D01*
G01X14383Y2545D01*
G01X14395Y2531D01*
G01X14402Y2525D01*
G01X14418Y2515D01*
G01X14436Y2509D01*
G01X14454Y2505D01*
G01X14945Y2505D01*
G01X14963Y2509D01*
G01X14981Y2515D01*
G01X14997Y2525D01*
G01X15004Y2531D01*
G01X15016Y2545D01*
G01X15022Y2553D01*
G01X15030Y2569D01*
G01X15033Y2578D01*
G01X15035Y2587D01*
G01X15036Y2596D01*
G01X15037Y2606D01*
G01X15037Y3393D01*
G01X15036Y3403D01*
G01X15035Y3412D01*
G01X15033Y3421D01*
G01X15030Y3430D01*
G01X15022Y3446D01*
G01X15016Y3454D01*
G01X15004Y3468D01*
G01X14997Y3474D01*
G01X14981Y3484D01*
G01X14963Y3490D01*
G01X14945Y3494D01*
G01X14506Y3494D01*
G01X14499Y3495D01*
G01X14493Y3496D01*
G01X14487Y3499D01*
G01X14482Y3502D01*
G01X14477Y3506D01*
G01X13101Y4883D01*
G01X13091Y4891D01*
G01X13081Y4900D01*
G01X13071Y4907D01*
G01X13060Y4914D01*
G01X13048Y4920D01*
G01X13037Y4926D01*
G01X13032Y4928D01*
G01X13027Y4932D01*
G01X13019Y4940D01*
G01X13016Y4945D01*
G01X13014Y4951D01*
G01X13013Y4957D01*
G01X13012Y4962D01*
G01X13012Y5104D01*
G01X13011Y5113D01*
G01X13002Y5140D01*
G01X12992Y5156D01*
G01X12986Y5163D01*
G01X12972Y5175D01*
G01X12964Y5181D01*
G01X12948Y5189D01*
G01X12939Y5192D01*
G01X12930Y5194D01*
G01X12921Y5195D01*
G01X12911Y5196D01*
G01X12239Y5196D01*
G01X12227Y5200D01*
G01X12222Y5203D01*
G01X11733Y5692D01*
G01X11723Y5701D01*
G01X11713Y5709D01*
G01X11702Y5717D01*
G01X11691Y5724D01*
G01X11679Y5730D01*
G01X11655Y5740D01*
G01X11643Y5744D01*
G01X11630Y5747D01*
G01X11617Y5749D01*
G01X11591Y5751D01*
G37*
G36*
G01X18661Y4014D02*
G01X17638Y4014D01*
G01X17628Y4013D01*
G01X17619Y4012D01*
G01X17610Y4010D01*
G01X17601Y4007D01*
G01X17585Y3999D01*
G01X17577Y3993D01*
G01X17563Y3981D01*
G01X17557Y3974D01*
G01X17547Y3958D01*
G01X17538Y3931D01*
G01X17537Y3922D01*
G01X17537Y3337D01*
G01X17535Y3325D01*
G01X17533Y3320D01*
G01X17527Y3310D01*
G01X17523Y3306D01*
G01X17513Y3300D01*
G01X17508Y3298D01*
G01X17502Y3297D01*
G01X16951Y3297D01*
G01X16946Y3298D01*
G01X16941Y3300D01*
G01X16931Y3306D01*
G01X16927Y3310D01*
G01X16923Y3315D01*
G01X16919Y3325D01*
G01X16917Y3337D01*
G01X16918Y3344D01*
G01X16920Y3351D01*
G01X16923Y3360D01*
G01X16925Y3369D01*
G01X16926Y3379D01*
G01X16927Y3388D01*
G01X16927Y3442D01*
G01X16738Y3442D01*
G01X16738Y3352D01*
G01X16737Y3346D01*
G01X16736Y3341D01*
G01X16734Y3335D01*
G01X16731Y3330D01*
G01X16728Y3326D01*
G01X16724Y3322D01*
G01X16719Y3318D01*
G01X16709Y3314D01*
G01X16703Y3312D01*
G01X16496Y3312D01*
G01X16490Y3314D01*
G01X16480Y3318D01*
G01X16475Y3322D01*
G01X16471Y3326D01*
G01X16468Y3330D01*
G01X16465Y3335D01*
G01X16463Y3341D01*
G01X16462Y3346D01*
G01X16461Y3352D01*
G01X16461Y3442D01*
G01X16272Y3442D01*
G01X16272Y3388D01*
G01X16273Y3378D01*
G01X16274Y3369D01*
G01X16276Y3359D01*
G01X16284Y3341D01*
G01X16289Y3333D01*
G01X16295Y3325D01*
G01X16301Y3313D01*
G01X16303Y3306D01*
G01X16303Y3293D01*
G01X16301Y3286D01*
G01X16295Y3274D01*
G01X16289Y3267D01*
G01X16284Y3259D01*
G01X16280Y3250D01*
G01X16274Y3232D01*
G01X16273Y3226D01*
G01X16267Y3216D01*
G01X16263Y3211D01*
G01X16253Y3205D01*
G01X16247Y3202D01*
G01X16241Y3201D01*
G01X15977Y3201D01*
G01X15971Y3202D01*
G01X15966Y3204D01*
G01X15956Y3210D01*
G01X15952Y3214D01*
G01X15946Y3224D01*
G01X15944Y3229D01*
G01X15943Y3235D01*
G01X15942Y3240D01*
G01X15942Y3403D01*
G01X15941Y3412D01*
G01X15935Y3430D01*
G01X15932Y3438D01*
G01X15922Y3454D01*
G01X15916Y3461D01*
G01X15909Y3468D01*
G01X15902Y3474D01*
G01X15886Y3484D01*
G01X15878Y3487D01*
G01X15869Y3490D01*
G01X15851Y3494D01*
G01X15359Y3494D01*
G01X15341Y3490D01*
G01X15332Y3487D01*
G01X15324Y3484D01*
G01X15308Y3474D01*
G01X15301Y3468D01*
G01X15294Y3461D01*
G01X15288Y3454D01*
G01X15278Y3438D01*
G01X15275Y3430D01*
G01X15269Y3412D01*
G01X15268Y3403D01*
G01X15268Y2596D01*
G01X15269Y2587D01*
G01X15275Y2569D01*
G01X15278Y2561D01*
G01X15288Y2545D01*
G01X15294Y2538D01*
G01X15301Y2531D01*
G01X15308Y2525D01*
G01X15324Y2515D01*
G01X15332Y2512D01*
G01X15341Y2509D01*
G01X15359Y2505D01*
G01X15851Y2505D01*
G01X15869Y2509D01*
G01X15878Y2512D01*
G01X15886Y2515D01*
G01X15902Y2525D01*
G01X15909Y2531D01*
G01X15916Y2538D01*
G01X15922Y2545D01*
G01X15932Y2561D01*
G01X15935Y2569D01*
G01X15941Y2587D01*
G01X15942Y2596D01*
G01X15942Y2758D01*
G01X15944Y2770D01*
G01X15946Y2775D01*
G01X15952Y2785D01*
G01X15956Y2789D01*
G01X15966Y2795D01*
G01X15971Y2797D01*
G01X15977Y2798D01*
G01X15982Y2798D01*
G01X16342Y2799D01*
G01X16351Y2797D01*
G01X16373Y2795D01*
G01X16835Y2795D01*
G01X16853Y2799D01*
G01X16862Y2802D01*
G01X16870Y2805D01*
G01X16886Y2815D01*
G01X16900Y2827D01*
G01X16906Y2834D01*
G01X16911Y2841D01*
G01X16915Y2849D01*
G01X16919Y2858D01*
G01X16922Y2866D01*
G01X16924Y2872D01*
G01X16927Y2877D01*
G01X16935Y2885D01*
G01X16939Y2888D01*
G01X16944Y2891D01*
G01X16950Y2893D01*
G01X16955Y2894D01*
G01X16961Y2895D01*
G01X17700Y2895D01*
G01X17713Y2896D01*
G01X17726Y2898D01*
G01X17739Y2901D01*
G01X17751Y2905D01*
G01X17764Y2910D01*
G01X17775Y2915D01*
G01X17787Y2922D01*
G01X17798Y2928D01*
G01X17809Y2936D01*
G01X17819Y2944D01*
G01X17829Y2953D01*
G01X17880Y3005D01*
G01X17885Y3009D01*
G01X17890Y3012D01*
G01X17896Y3015D01*
G01X17902Y3016D01*
G01X17909Y3017D01*
G01X17914Y3016D01*
G01X17920Y3015D01*
G01X17925Y3013D01*
G01X17935Y3007D01*
G01X17939Y3003D01*
G01X17945Y2993D01*
G01X17947Y2988D01*
G01X17948Y2982D01*
G01X17948Y2019D01*
G01X17947Y2013D01*
G01X17945Y2008D01*
G01X17942Y2003D01*
G01X17939Y1999D01*
G01X17935Y1995D01*
G01X17930Y1991D01*
G01X17925Y1988D01*
G01X17920Y1986D01*
G01X17914Y1985D01*
G01X17902Y1985D01*
G01X17897Y1987D01*
G01X17891Y1989D01*
G01X17886Y1992D01*
G01X17870Y2002D01*
G01X17853Y2012D01*
G01X17836Y2021D01*
G01X17818Y2030D01*
G01X17801Y2037D01*
G01X17782Y2044D01*
G01X17764Y2049D01*
G01X17745Y2054D01*
G01X17726Y2058D01*
G01X17688Y2064D01*
G01X17669Y2065D01*
G01X17631Y2065D01*
G01X17612Y2064D01*
G01X17594Y2062D01*
G01X17575Y2059D01*
G01X17557Y2055D01*
G01X17521Y2045D01*
G01X17503Y2039D01*
G01X17486Y2032D01*
G01X17452Y2016D01*
G01X17436Y2007D01*
G01X17420Y1997D01*
G01X17390Y1975D01*
G01X17376Y1963D01*
G01X17362Y1950D01*
G01X17349Y1937D01*
G01X17336Y1923D01*
G01X17324Y1909D01*
G01X17302Y1879D01*
G01X17292Y1863D01*
G01X17283Y1847D01*
G01X17267Y1813D01*
G01X17260Y1796D01*
G01X17254Y1778D01*
G01X17244Y1742D01*
G01X17240Y1724D01*
G01X17237Y1705D01*
G01X17235Y1687D01*
G01X17234Y1668D01*
G01X17234Y1631D01*
G01X17235Y1612D01*
G01X17237Y1594D01*
G01X17240Y1575D01*
G01X17244Y1557D01*
G01X17254Y1521D01*
G01X17260Y1503D01*
G01X17267Y1486D01*
G01X17283Y1452D01*
G01X17292Y1436D01*
G01X17302Y1420D01*
G01X17324Y1390D01*
G01X17336Y1376D01*
G01X17349Y1362D01*
G01X17362Y1349D01*
G01X17376Y1336D01*
G01X17390Y1324D01*
G01X17420Y1302D01*
G01X17436Y1292D01*
G01X17452Y1283D01*
G01X17486Y1267D01*
G01X17503Y1260D01*
G01X17521Y1254D01*
G01X17557Y1244D01*
G01X17575Y1240D01*
G01X17594Y1237D01*
G01X17612Y1235D01*
G01X17631Y1234D01*
G01X17669Y1234D01*
G01X17688Y1235D01*
G01X17726Y1241D01*
G01X17745Y1245D01*
G01X17764Y1250D01*
G01X17782Y1255D01*
G01X17801Y1262D01*
G01X17818Y1269D01*
G01X17836Y1278D01*
G01X17853Y1287D01*
G01X17870Y1297D01*
G01X17886Y1307D01*
G01X17891Y1310D01*
G01X17897Y1312D01*
G01X17902Y1314D01*
G01X17914Y1314D01*
G01X17920Y1313D01*
G01X17925Y1311D01*
G01X17930Y1308D01*
G01X17935Y1304D01*
G01X17939Y1300D01*
G01X17942Y1296D01*
G01X17945Y1291D01*
G01X17947Y1286D01*
G01X17948Y1280D01*
G01X17948Y1150D01*
G01X17949Y1136D01*
G01X17950Y1123D01*
G01X17952Y1110D01*
G01X17955Y1097D01*
G01X17959Y1085D01*
G01X17969Y1061D01*
G01X17975Y1049D01*
G01X17982Y1038D01*
G01X17990Y1027D01*
G01X17998Y1017D01*
G01X18007Y1007D01*
G01X18234Y781D01*
G01X18238Y776D01*
G01X18241Y771D01*
G01X18245Y759D01*
G01X18245Y753D01*
G01X18244Y744D01*
G01X18240Y725D01*
G01X18237Y706D01*
G01X18235Y687D01*
G01X18234Y669D01*
G01X18234Y631D01*
G01X18235Y612D01*
G01X18237Y594D01*
G01X18240Y575D01*
G01X18244Y557D01*
G01X18254Y521D01*
G01X18260Y503D01*
G01X18267Y486D01*
G01X18283Y452D01*
G01X18292Y436D01*
G01X18302Y420D01*
G01X18324Y390D01*
G01X18336Y376D01*
G01X18349Y362D01*
G01X18362Y349D01*
G01X18376Y336D01*
G01X18390Y324D01*
G01X18420Y302D01*
G01X18436Y292D01*
G01X18452Y283D01*
G01X18486Y267D01*
G01X18503Y260D01*
G01X18521Y254D01*
G01X18557Y244D01*
G01X18575Y240D01*
G01X18594Y237D01*
G01X18612Y235D01*
G01X18631Y234D01*
G01X18668Y234D01*
G01X18687Y235D01*
G01X18705Y237D01*
G01X18724Y240D01*
G01X18742Y244D01*
G01X18778Y254D01*
G01X18796Y260D01*
G01X18813Y267D01*
G01X18847Y283D01*
G01X18863Y292D01*
G01X18879Y302D01*
G01X18909Y324D01*
G01X18923Y336D01*
G01X18937Y349D01*
G01X18950Y362D01*
G01X18963Y376D01*
G01X18975Y390D01*
G01X18997Y420D01*
G01X19007Y436D01*
G01X19016Y452D01*
G01X19032Y486D01*
G01X19039Y503D01*
G01X19045Y521D01*
G01X19055Y557D01*
G01X19059Y575D01*
G01X19062Y594D01*
G01X19064Y612D01*
G01X19065Y631D01*
G01X19065Y668D01*
G01X19064Y687D01*
G01X19062Y705D01*
G01X19059Y724D01*
G01X19055Y742D01*
G01X19045Y778D01*
G01X19039Y796D01*
G01X19032Y813D01*
G01X19016Y847D01*
G01X19007Y863D01*
G01X18997Y879D01*
G01X18975Y909D01*
G01X18963Y923D01*
G01X18950Y937D01*
G01X18937Y950D01*
G01X18923Y963D01*
G01X18909Y975D01*
G01X18879Y997D01*
G01X18863Y1007D01*
G01X18847Y1016D01*
G01X18813Y1032D01*
G01X18796Y1039D01*
G01X18778Y1045D01*
G01X18742Y1055D01*
G01X18724Y1059D01*
G01X18705Y1062D01*
G01X18687Y1064D01*
G01X18668Y1065D01*
G01X18630Y1065D01*
G01X18612Y1064D01*
G01X18593Y1062D01*
G01X18574Y1059D01*
G01X18555Y1055D01*
G01X18546Y1054D01*
G01X18540Y1054D01*
G01X18528Y1058D01*
G01X18523Y1061D01*
G01X18518Y1065D01*
G01X18362Y1221D01*
G01X18358Y1226D01*
G01X18355Y1231D01*
G01X18352Y1237D01*
G01X18351Y1243D01*
G01X18351Y1280D01*
G01X18352Y1286D01*
G01X18354Y1291D01*
G01X18357Y1296D01*
G01X18360Y1300D01*
G01X18364Y1304D01*
G01X18369Y1308D01*
G01X18374Y1311D01*
G01X18379Y1313D01*
G01X18385Y1314D01*
G01X18397Y1314D01*
G01X18402Y1312D01*
G01X18408Y1310D01*
G01X18413Y1307D01*
G01X18429Y1297D01*
G01X18446Y1287D01*
G01X18463Y1278D01*
G01X18481Y1269D01*
G01X18498Y1262D01*
G01X18517Y1255D01*
G01X18535Y1250D01*
G01X18554Y1245D01*
G01X18573Y1241D01*
G01X18611Y1235D01*
G01X18630Y1234D01*
G01X18668Y1234D01*
G01X18687Y1235D01*
G01X18705Y1237D01*
G01X18724Y1240D01*
G01X18742Y1244D01*
G01X18778Y1254D01*
G01X18796Y1260D01*
G01X18813Y1267D01*
G01X18847Y1283D01*
G01X18863Y1292D01*
G01X18879Y1302D01*
G01X18909Y1324D01*
G01X18923Y1336D01*
G01X18937Y1349D01*
G01X18950Y1362D01*
G01X18963Y1376D01*
G01X18975Y1390D01*
G01X18997Y1420D01*
G01X19007Y1436D01*
G01X19016Y1452D01*
G01X19032Y1486D01*
G01X19039Y1503D01*
G01X19045Y1521D01*
G01X19055Y1557D01*
G01X19059Y1575D01*
G01X19062Y1594D01*
G01X19064Y1612D01*
G01X19065Y1631D01*
G01X19065Y1668D01*
G01X19064Y1687D01*
G01X19062Y1705D01*
G01X19059Y1724D01*
G01X19055Y1742D01*
G01X19045Y1778D01*
G01X19039Y1796D01*
G01X19032Y1813D01*
G01X19016Y1847D01*
G01X19007Y1863D01*
G01X18997Y1879D01*
G01X18975Y1909D01*
G01X18963Y1923D01*
G01X18950Y1937D01*
G01X18937Y1950D01*
G01X18923Y1963D01*
G01X18909Y1975D01*
G01X18879Y1997D01*
G01X18863Y2007D01*
G01X18847Y2016D01*
G01X18813Y2032D01*
G01X18796Y2039D01*
G01X18778Y2045D01*
G01X18742Y2055D01*
G01X18724Y2059D01*
G01X18705Y2062D01*
G01X18687Y2064D01*
G01X18668Y2065D01*
G01X18630Y2065D01*
G01X18611Y2064D01*
G01X18573Y2058D01*
G01X18554Y2054D01*
G01X18535Y2049D01*
G01X18517Y2044D01*
G01X18498Y2037D01*
G01X18481Y2030D01*
G01X18463Y2021D01*
G01X18446Y2012D01*
G01X18429Y2002D01*
G01X18413Y1992D01*
G01X18408Y1989D01*
G01X18402Y1987D01*
G01X18397Y1985D01*
G01X18385Y1985D01*
G01X18379Y1986D01*
G01X18374Y1988D01*
G01X18369Y1991D01*
G01X18364Y1995D01*
G01X18360Y1999D01*
G01X18357Y2003D01*
G01X18354Y2008D01*
G01X18352Y2013D01*
G01X18351Y2019D01*
G01X18351Y3069D01*
G01X18352Y3074D01*
G01X18354Y3080D01*
G01X18357Y3085D01*
G01X18360Y3089D01*
G01X18364Y3093D01*
G01X18369Y3097D01*
G01X18374Y3100D01*
G01X18379Y3102D01*
G01X18385Y3103D01*
G01X18661Y3103D01*
G01X18671Y3104D01*
G01X18680Y3105D01*
G01X18689Y3107D01*
G01X18698Y3110D01*
G01X18714Y3118D01*
G01X18722Y3124D01*
G01X18736Y3136D01*
G01X18742Y3143D01*
G01X18752Y3159D01*
G01X18761Y3186D01*
G01X18762Y3195D01*
G01X18762Y3922D01*
G01X18761Y3931D01*
G01X18752Y3958D01*
G01X18742Y3974D01*
G01X18736Y3981D01*
G01X18722Y3993D01*
G01X18714Y3999D01*
G01X18698Y4007D01*
G01X18689Y4010D01*
G01X18680Y4012D01*
G01X18671Y4013D01*
G01X18661Y4014D01*
G37*
G36*
G01X15457Y6053D02*
G01X13942Y6053D01*
G01X13933Y6052D01*
G01X13906Y6043D01*
G01X13898Y6038D01*
G01X13891Y6033D01*
G01X13883Y6027D01*
G01X13871Y6013D01*
G01X13861Y5997D01*
G01X13857Y5989D01*
G01X13854Y5980D01*
G01X13852Y5971D01*
G01X13851Y5962D01*
G01X13850Y5952D01*
G01X13850Y5047D01*
G01X13851Y5037D01*
G01X13852Y5028D01*
G01X13854Y5019D01*
G01X13857Y5010D01*
G01X13861Y5002D01*
G01X13871Y4986D01*
G01X13883Y4972D01*
G01X13891Y4966D01*
G01X13898Y4961D01*
G01X13906Y4956D01*
G01X13933Y4947D01*
G01X13942Y4946D01*
G01X15457Y4946D01*
G01X15466Y4947D01*
G01X15493Y4956D01*
G01X15501Y4961D01*
G01X15508Y4966D01*
G01X15516Y4972D01*
G01X15528Y4986D01*
G01X15538Y5002D01*
G01X15542Y5010D01*
G01X15545Y5019D01*
G01X15547Y5028D01*
G01X15548Y5037D01*
G01X15549Y5047D01*
G01X15549Y5952D01*
G01X15548Y5962D01*
G01X15547Y5971D01*
G01X15545Y5980D01*
G01X15542Y5989D01*
G01X15538Y5997D01*
G01X15528Y6013D01*
G01X15516Y6027D01*
G01X15508Y6033D01*
G01X15501Y6038D01*
G01X15493Y6043D01*
G01X15466Y6052D01*
G01X15457Y6053D01*
G37*
G36*
G01X8669Y4085D02*
G01X8630Y4085D01*
G01X8612Y4083D01*
G01X8574Y4079D01*
G01X8555Y4075D01*
G01X8537Y4070D01*
G01X8518Y4065D01*
G01X8501Y4059D01*
G01X8483Y4052D01*
G01X8465Y4044D01*
G01X8448Y4036D01*
G01X8432Y4027D01*
G01X8415Y4017D01*
G01X8400Y4006D01*
G01X8384Y3995D01*
G01X8369Y3983D01*
G01X8355Y3971D01*
G01X8341Y3958D01*
G01X8328Y3944D01*
G01X8316Y3930D01*
G01X8304Y3915D01*
G01X8293Y3899D01*
G01X8282Y3884D01*
G01X8272Y3867D01*
G01X8263Y3851D01*
G01X8255Y3834D01*
G01X8247Y3816D01*
G01X8240Y3798D01*
G01X8234Y3781D01*
G01X8229Y3762D01*
G01X8224Y3744D01*
G01X8220Y3725D01*
G01X8216Y3687D01*
G01X8214Y3669D01*
G01X8214Y3630D01*
G01X8216Y3612D01*
G01X8220Y3574D01*
G01X8224Y3555D01*
G01X8229Y3537D01*
G01X8234Y3518D01*
G01X8240Y3501D01*
G01X8247Y3483D01*
G01X8255Y3465D01*
G01X8263Y3448D01*
G01X8272Y3432D01*
G01X8282Y3415D01*
G01X8293Y3400D01*
G01X8304Y3384D01*
G01X8316Y3369D01*
G01X8328Y3355D01*
G01X8341Y3341D01*
G01X8355Y3328D01*
G01X8369Y3316D01*
G01X8384Y3304D01*
G01X8400Y3293D01*
G01X8415Y3282D01*
G01X8432Y3272D01*
G01X8448Y3263D01*
G01X8465Y3255D01*
G01X8483Y3247D01*
G01X8501Y3240D01*
G01X8518Y3234D01*
G01X8537Y3229D01*
G01X8555Y3224D01*
G01X8574Y3220D01*
G01X8612Y3216D01*
G01X8630Y3214D01*
G01X8669Y3214D01*
G01X8687Y3216D01*
G01X8725Y3220D01*
G01X8744Y3224D01*
G01X8762Y3229D01*
G01X8781Y3234D01*
G01X8798Y3240D01*
G01X8816Y3247D01*
G01X8834Y3255D01*
G01X8851Y3263D01*
G01X8867Y3272D01*
G01X8884Y3282D01*
G01X8899Y3293D01*
G01X8915Y3304D01*
G01X8930Y3316D01*
G01X8944Y3328D01*
G01X8958Y3341D01*
G01X8971Y3355D01*
G01X8983Y3369D01*
G01X8995Y3384D01*
G01X9006Y3400D01*
G01X9017Y3415D01*
G01X9027Y3432D01*
G01X9036Y3448D01*
G01X9044Y3465D01*
G01X9052Y3483D01*
G01X9059Y3501D01*
G01X9065Y3518D01*
G01X9070Y3537D01*
G01X9075Y3555D01*
G01X9079Y3574D01*
G01X9083Y3612D01*
G01X9085Y3630D01*
G01X9085Y3669D01*
G01X9083Y3687D01*
G01X9079Y3725D01*
G01X9075Y3744D01*
G01X9070Y3762D01*
G01X9065Y3781D01*
G01X9059Y3798D01*
G01X9052Y3816D01*
G01X9044Y3834D01*
G01X9036Y3851D01*
G01X9027Y3867D01*
G01X9017Y3884D01*
G01X9006Y3899D01*
G01X8995Y3915D01*
G01X8983Y3930D01*
G01X8971Y3944D01*
G01X8958Y3958D01*
G01X8944Y3971D01*
G01X8930Y3983D01*
G01X8915Y3995D01*
G01X8899Y4006D01*
G01X8884Y4017D01*
G01X8867Y4027D01*
G01X8851Y4036D01*
G01X8834Y4044D01*
G01X8816Y4052D01*
G01X8798Y4059D01*
G01X8781Y4065D01*
G01X8762Y4070D01*
G01X8744Y4075D01*
G01X8725Y4079D01*
G01X8687Y4083D01*
G01X8669Y4085D01*
G37*
G36*
G01X8669Y5085D02*
G01X8630Y5085D01*
G01X8612Y5083D01*
G01X8574Y5079D01*
G01X8555Y5075D01*
G01X8537Y5070D01*
G01X8518Y5065D01*
G01X8501Y5059D01*
G01X8483Y5052D01*
G01X8465Y5044D01*
G01X8448Y5036D01*
G01X8432Y5027D01*
G01X8415Y5017D01*
G01X8400Y5006D01*
G01X8384Y4995D01*
G01X8369Y4983D01*
G01X8355Y4971D01*
G01X8341Y4958D01*
G01X8328Y4944D01*
G01X8316Y4930D01*
G01X8304Y4915D01*
G01X8293Y4899D01*
G01X8282Y4884D01*
G01X8272Y4867D01*
G01X8263Y4851D01*
G01X8255Y4834D01*
G01X8247Y4816D01*
G01X8240Y4798D01*
G01X8234Y4781D01*
G01X8229Y4762D01*
G01X8224Y4744D01*
G01X8220Y4725D01*
G01X8216Y4687D01*
G01X8214Y4669D01*
G01X8214Y4630D01*
G01X8216Y4612D01*
G01X8220Y4574D01*
G01X8224Y4555D01*
G01X8229Y4537D01*
G01X8234Y4518D01*
G01X8240Y4501D01*
G01X8247Y4483D01*
G01X8255Y4465D01*
G01X8263Y4448D01*
G01X8272Y4432D01*
G01X8282Y4415D01*
G01X8293Y4400D01*
G01X8304Y4384D01*
G01X8316Y4369D01*
G01X8328Y4355D01*
G01X8341Y4341D01*
G01X8355Y4328D01*
G01X8369Y4316D01*
G01X8384Y4304D01*
G01X8400Y4293D01*
G01X8415Y4282D01*
G01X8432Y4272D01*
G01X8448Y4263D01*
G01X8465Y4255D01*
G01X8483Y4247D01*
G01X8501Y4240D01*
G01X8518Y4234D01*
G01X8537Y4229D01*
G01X8555Y4224D01*
G01X8574Y4220D01*
G01X8612Y4216D01*
G01X8630Y4214D01*
G01X8669Y4214D01*
G01X8687Y4216D01*
G01X8725Y4220D01*
G01X8744Y4224D01*
G01X8762Y4229D01*
G01X8781Y4234D01*
G01X8798Y4240D01*
G01X8816Y4247D01*
G01X8834Y4255D01*
G01X8851Y4263D01*
G01X8867Y4272D01*
G01X8884Y4282D01*
G01X8899Y4293D01*
G01X8915Y4304D01*
G01X8930Y4316D01*
G01X8944Y4328D01*
G01X8958Y4341D01*
G01X8971Y4355D01*
G01X8983Y4369D01*
G01X8995Y4384D01*
G01X9006Y4400D01*
G01X9017Y4415D01*
G01X9027Y4432D01*
G01X9036Y4448D01*
G01X9044Y4465D01*
G01X9052Y4483D01*
G01X9059Y4501D01*
G01X9065Y4518D01*
G01X9070Y4537D01*
G01X9075Y4555D01*
G01X9079Y4574D01*
G01X9083Y4612D01*
G01X9085Y4630D01*
G01X9085Y4669D01*
G01X9083Y4687D01*
G01X9079Y4725D01*
G01X9075Y4744D01*
G01X9070Y4762D01*
G01X9065Y4781D01*
G01X9059Y4798D01*
G01X9052Y4816D01*
G01X9044Y4834D01*
G01X9036Y4851D01*
G01X9027Y4867D01*
G01X9017Y4884D01*
G01X9006Y4899D01*
G01X8995Y4915D01*
G01X8983Y4930D01*
G01X8971Y4944D01*
G01X8958Y4958D01*
G01X8944Y4971D01*
G01X8930Y4983D01*
G01X8915Y4995D01*
G01X8899Y5006D01*
G01X8884Y5017D01*
G01X8867Y5027D01*
G01X8851Y5036D01*
G01X8834Y5044D01*
G01X8816Y5052D01*
G01X8798Y5059D01*
G01X8781Y5065D01*
G01X8762Y5070D01*
G01X8744Y5075D01*
G01X8725Y5079D01*
G01X8687Y5083D01*
G01X8669Y5085D01*
G37*
G36*
G01X7669Y4085D02*
G01X7630Y4085D01*
G01X7612Y4083D01*
G01X7574Y4079D01*
G01X7555Y4075D01*
G01X7537Y4070D01*
G01X7518Y4065D01*
G01X7501Y4059D01*
G01X7483Y4052D01*
G01X7465Y4044D01*
G01X7448Y4036D01*
G01X7432Y4027D01*
G01X7415Y4017D01*
G01X7400Y4006D01*
G01X7384Y3995D01*
G01X7369Y3983D01*
G01X7355Y3971D01*
G01X7341Y3958D01*
G01X7328Y3944D01*
G01X7316Y3930D01*
G01X7304Y3915D01*
G01X7293Y3899D01*
G01X7282Y3884D01*
G01X7272Y3867D01*
G01X7263Y3851D01*
G01X7255Y3834D01*
G01X7247Y3816D01*
G01X7240Y3798D01*
G01X7234Y3781D01*
G01X7229Y3762D01*
G01X7224Y3744D01*
G01X7220Y3725D01*
G01X7216Y3687D01*
G01X7214Y3669D01*
G01X7214Y3630D01*
G01X7216Y3612D01*
G01X7220Y3574D01*
G01X7224Y3555D01*
G01X7229Y3537D01*
G01X7234Y3518D01*
G01X7240Y3501D01*
G01X7247Y3483D01*
G01X7255Y3465D01*
G01X7263Y3448D01*
G01X7272Y3432D01*
G01X7282Y3415D01*
G01X7293Y3400D01*
G01X7304Y3384D01*
G01X7316Y3369D01*
G01X7328Y3355D01*
G01X7341Y3341D01*
G01X7355Y3328D01*
G01X7369Y3316D01*
G01X7384Y3304D01*
G01X7400Y3293D01*
G01X7415Y3282D01*
G01X7432Y3272D01*
G01X7448Y3263D01*
G01X7465Y3255D01*
G01X7483Y3247D01*
G01X7501Y3240D01*
G01X7518Y3234D01*
G01X7537Y3229D01*
G01X7555Y3224D01*
G01X7574Y3220D01*
G01X7612Y3216D01*
G01X7630Y3214D01*
G01X7669Y3214D01*
G01X7687Y3216D01*
G01X7725Y3220D01*
G01X7744Y3224D01*
G01X7762Y3229D01*
G01X7781Y3234D01*
G01X7798Y3240D01*
G01X7816Y3247D01*
G01X7834Y3255D01*
G01X7851Y3263D01*
G01X7867Y3272D01*
G01X7884Y3282D01*
G01X7899Y3293D01*
G01X7915Y3304D01*
G01X7930Y3316D01*
G01X7944Y3328D01*
G01X7958Y3341D01*
G01X7971Y3355D01*
G01X7983Y3369D01*
G01X7995Y3384D01*
G01X8006Y3400D01*
G01X8017Y3415D01*
G01X8027Y3432D01*
G01X8036Y3448D01*
G01X8044Y3465D01*
G01X8052Y3483D01*
G01X8059Y3501D01*
G01X8065Y3518D01*
G01X8070Y3537D01*
G01X8075Y3555D01*
G01X8079Y3574D01*
G01X8083Y3612D01*
G01X8085Y3630D01*
G01X8085Y3669D01*
G01X8083Y3687D01*
G01X8079Y3725D01*
G01X8075Y3744D01*
G01X8070Y3762D01*
G01X8065Y3781D01*
G01X8059Y3798D01*
G01X8052Y3816D01*
G01X8044Y3834D01*
G01X8036Y3851D01*
G01X8027Y3867D01*
G01X8017Y3884D01*
G01X8006Y3899D01*
G01X7995Y3915D01*
G01X7983Y3930D01*
G01X7971Y3944D01*
G01X7958Y3958D01*
G01X7944Y3971D01*
G01X7930Y3983D01*
G01X7915Y3995D01*
G01X7899Y4006D01*
G01X7884Y4017D01*
G01X7867Y4027D01*
G01X7851Y4036D01*
G01X7834Y4044D01*
G01X7816Y4052D01*
G01X7798Y4059D01*
G01X7781Y4065D01*
G01X7762Y4070D01*
G01X7744Y4075D01*
G01X7725Y4079D01*
G01X7687Y4083D01*
G01X7669Y4085D01*
G37*
G36*
G01X7669Y5085D02*
G01X7630Y5085D01*
G01X7612Y5083D01*
G01X7574Y5079D01*
G01X7555Y5075D01*
G01X7537Y5070D01*
G01X7518Y5065D01*
G01X7501Y5059D01*
G01X7483Y5052D01*
G01X7465Y5044D01*
G01X7448Y5036D01*
G01X7432Y5027D01*
G01X7415Y5017D01*
G01X7400Y5006D01*
G01X7384Y4995D01*
G01X7369Y4983D01*
G01X7355Y4971D01*
G01X7341Y4958D01*
G01X7328Y4944D01*
G01X7316Y4930D01*
G01X7304Y4915D01*
G01X7293Y4899D01*
G01X7282Y4884D01*
G01X7272Y4867D01*
G01X7263Y4851D01*
G01X7255Y4834D01*
G01X7247Y4816D01*
G01X7240Y4798D01*
G01X7234Y4781D01*
G01X7229Y4762D01*
G01X7224Y4744D01*
G01X7220Y4725D01*
G01X7216Y4687D01*
G01X7214Y4669D01*
G01X7214Y4630D01*
G01X7216Y4612D01*
G01X7220Y4574D01*
G01X7224Y4555D01*
G01X7229Y4537D01*
G01X7234Y4518D01*
G01X7240Y4501D01*
G01X7247Y4483D01*
G01X7255Y4465D01*
G01X7263Y4448D01*
G01X7272Y4432D01*
G01X7282Y4415D01*
G01X7293Y4400D01*
G01X7304Y4384D01*
G01X7316Y4369D01*
G01X7328Y4355D01*
G01X7341Y4341D01*
G01X7355Y4328D01*
G01X7369Y4316D01*
G01X7384Y4304D01*
G01X7400Y4293D01*
G01X7415Y4282D01*
G01X7432Y4272D01*
G01X7448Y4263D01*
G01X7465Y4255D01*
G01X7483Y4247D01*
G01X7501Y4240D01*
G01X7518Y4234D01*
G01X7537Y4229D01*
G01X7555Y4224D01*
G01X7574Y4220D01*
G01X7612Y4216D01*
G01X7630Y4214D01*
G01X7669Y4214D01*
G01X7687Y4216D01*
G01X7725Y4220D01*
G01X7744Y4224D01*
G01X7762Y4229D01*
G01X7781Y4234D01*
G01X7798Y4240D01*
G01X7816Y4247D01*
G01X7834Y4255D01*
G01X7851Y4263D01*
G01X7867Y4272D01*
G01X7884Y4282D01*
G01X7899Y4293D01*
G01X7915Y4304D01*
G01X7930Y4316D01*
G01X7944Y4328D01*
G01X7958Y4341D01*
G01X7971Y4355D01*
G01X7983Y4369D01*
G01X7995Y4384D01*
G01X8006Y4400D01*
G01X8017Y4415D01*
G01X8027Y4432D01*
G01X8036Y4448D01*
G01X8044Y4465D01*
G01X8052Y4483D01*
G01X8059Y4501D01*
G01X8065Y4518D01*
G01X8070Y4537D01*
G01X8075Y4555D01*
G01X8079Y4574D01*
G01X8083Y4612D01*
G01X8085Y4630D01*
G01X8085Y4669D01*
G01X8083Y4687D01*
G01X8079Y4725D01*
G01X8075Y4744D01*
G01X8070Y4762D01*
G01X8065Y4781D01*
G01X8059Y4798D01*
G01X8052Y4816D01*
G01X8044Y4834D01*
G01X8036Y4851D01*
G01X8027Y4867D01*
G01X8017Y4884D01*
G01X8006Y4899D01*
G01X7995Y4915D01*
G01X7983Y4930D01*
G01X7971Y4944D01*
G01X7958Y4958D01*
G01X7944Y4971D01*
G01X7930Y4983D01*
G01X7915Y4995D01*
G01X7899Y5006D01*
G01X7884Y5017D01*
G01X7867Y5027D01*
G01X7851Y5036D01*
G01X7834Y5044D01*
G01X7816Y5052D01*
G01X7798Y5059D01*
G01X7781Y5065D01*
G01X7762Y5070D01*
G01X7744Y5075D01*
G01X7725Y5079D01*
G01X7687Y5083D01*
G01X7669Y5085D01*
G37*
G36*
G01X9669Y5085D02*
G01X9630Y5085D01*
G01X9612Y5083D01*
G01X9574Y5079D01*
G01X9555Y5075D01*
G01X9537Y5070D01*
G01X9518Y5065D01*
G01X9501Y5059D01*
G01X9483Y5052D01*
G01X9465Y5044D01*
G01X9448Y5036D01*
G01X9432Y5027D01*
G01X9415Y5017D01*
G01X9400Y5006D01*
G01X9384Y4995D01*
G01X9369Y4983D01*
G01X9355Y4971D01*
G01X9341Y4958D01*
G01X9328Y4944D01*
G01X9316Y4930D01*
G01X9304Y4915D01*
G01X9293Y4899D01*
G01X9282Y4884D01*
G01X9272Y4867D01*
G01X9263Y4851D01*
G01X9255Y4834D01*
G01X9247Y4816D01*
G01X9240Y4798D01*
G01X9234Y4781D01*
G01X9229Y4762D01*
G01X9224Y4744D01*
G01X9220Y4725D01*
G01X9216Y4687D01*
G01X9214Y4669D01*
G01X9214Y4630D01*
G01X9216Y4612D01*
G01X9220Y4574D01*
G01X9224Y4555D01*
G01X9229Y4537D01*
G01X9234Y4518D01*
G01X9240Y4501D01*
G01X9247Y4483D01*
G01X9255Y4465D01*
G01X9263Y4448D01*
G01X9272Y4432D01*
G01X9282Y4415D01*
G01X9293Y4400D01*
G01X9304Y4384D01*
G01X9316Y4369D01*
G01X9328Y4355D01*
G01X9341Y4341D01*
G01X9355Y4328D01*
G01X9369Y4316D01*
G01X9384Y4304D01*
G01X9400Y4293D01*
G01X9415Y4282D01*
G01X9432Y4272D01*
G01X9448Y4263D01*
G01X9465Y4255D01*
G01X9483Y4247D01*
G01X9501Y4240D01*
G01X9518Y4234D01*
G01X9537Y4229D01*
G01X9555Y4224D01*
G01X9574Y4220D01*
G01X9612Y4216D01*
G01X9630Y4214D01*
G01X9669Y4214D01*
G01X9687Y4216D01*
G01X9725Y4220D01*
G01X9744Y4224D01*
G01X9762Y4229D01*
G01X9781Y4234D01*
G01X9798Y4240D01*
G01X9816Y4247D01*
G01X9834Y4255D01*
G01X9851Y4263D01*
G01X9867Y4272D01*
G01X9884Y4282D01*
G01X9899Y4293D01*
G01X9915Y4304D01*
G01X9930Y4316D01*
G01X9944Y4328D01*
G01X9958Y4341D01*
G01X9971Y4355D01*
G01X9983Y4369D01*
G01X9995Y4384D01*
G01X10006Y4400D01*
G01X10017Y4415D01*
G01X10027Y4432D01*
G01X10036Y4448D01*
G01X10044Y4465D01*
G01X10052Y4483D01*
G01X10059Y4501D01*
G01X10065Y4518D01*
G01X10070Y4537D01*
G01X10075Y4555D01*
G01X10079Y4574D01*
G01X10083Y4612D01*
G01X10085Y4630D01*
G01X10085Y4669D01*
G01X10083Y4687D01*
G01X10079Y4725D01*
G01X10075Y4744D01*
G01X10070Y4762D01*
G01X10065Y4781D01*
G01X10059Y4798D01*
G01X10052Y4816D01*
G01X10044Y4834D01*
G01X10036Y4851D01*
G01X10027Y4867D01*
G01X10017Y4884D01*
G01X10006Y4899D01*
G01X9995Y4915D01*
G01X9983Y4930D01*
G01X9971Y4944D01*
G01X9958Y4958D01*
G01X9944Y4971D01*
G01X9930Y4983D01*
G01X9915Y4995D01*
G01X9899Y5006D01*
G01X9884Y5017D01*
G01X9867Y5027D01*
G01X9851Y5036D01*
G01X9834Y5044D01*
G01X9816Y5052D01*
G01X9798Y5059D01*
G01X9781Y5065D01*
G01X9762Y5070D01*
G01X9744Y5075D01*
G01X9725Y5079D01*
G01X9687Y5083D01*
G01X9669Y5085D01*
G37*
G36*
G01X9669Y4085D02*
G01X9630Y4085D01*
G01X9612Y4083D01*
G01X9574Y4079D01*
G01X9555Y4075D01*
G01X9537Y4070D01*
G01X9518Y4065D01*
G01X9501Y4059D01*
G01X9483Y4052D01*
G01X9465Y4044D01*
G01X9448Y4036D01*
G01X9432Y4027D01*
G01X9415Y4017D01*
G01X9400Y4006D01*
G01X9384Y3995D01*
G01X9369Y3983D01*
G01X9355Y3971D01*
G01X9341Y3958D01*
G01X9328Y3944D01*
G01X9316Y3930D01*
G01X9304Y3915D01*
G01X9293Y3899D01*
G01X9282Y3884D01*
G01X9272Y3867D01*
G01X9263Y3851D01*
G01X9255Y3834D01*
G01X9247Y3816D01*
G01X9240Y3798D01*
G01X9234Y3781D01*
G01X9229Y3762D01*
G01X9224Y3744D01*
G01X9220Y3725D01*
G01X9216Y3687D01*
G01X9214Y3669D01*
G01X9214Y3630D01*
G01X9216Y3612D01*
G01X9220Y3574D01*
G01X9224Y3555D01*
G01X9229Y3537D01*
G01X9234Y3518D01*
G01X9240Y3501D01*
G01X9247Y3483D01*
G01X9255Y3465D01*
G01X9263Y3448D01*
G01X9272Y3432D01*
G01X9282Y3415D01*
G01X9293Y3400D01*
G01X9304Y3384D01*
G01X9316Y3369D01*
G01X9328Y3355D01*
G01X9341Y3341D01*
G01X9355Y3328D01*
G01X9369Y3316D01*
G01X9384Y3304D01*
G01X9400Y3293D01*
G01X9415Y3282D01*
G01X9432Y3272D01*
G01X9448Y3263D01*
G01X9465Y3255D01*
G01X9483Y3247D01*
G01X9501Y3240D01*
G01X9518Y3234D01*
G01X9537Y3229D01*
G01X9555Y3224D01*
G01X9574Y3220D01*
G01X9612Y3216D01*
G01X9630Y3214D01*
G01X9669Y3214D01*
G01X9687Y3216D01*
G01X9725Y3220D01*
G01X9744Y3224D01*
G01X9762Y3229D01*
G01X9781Y3234D01*
G01X9798Y3240D01*
G01X9816Y3247D01*
G01X9834Y3255D01*
G01X9851Y3263D01*
G01X9867Y3272D01*
G01X9884Y3282D01*
G01X9899Y3293D01*
G01X9915Y3304D01*
G01X9930Y3316D01*
G01X9944Y3328D01*
G01X9958Y3341D01*
G01X9971Y3355D01*
G01X9983Y3369D01*
G01X9995Y3384D01*
G01X10006Y3400D01*
G01X10017Y3415D01*
G01X10027Y3432D01*
G01X10036Y3448D01*
G01X10044Y3465D01*
G01X10052Y3483D01*
G01X10059Y3501D01*
G01X10065Y3518D01*
G01X10070Y3537D01*
G01X10075Y3555D01*
G01X10079Y3574D01*
G01X10083Y3612D01*
G01X10085Y3630D01*
G01X10085Y3669D01*
G01X10083Y3687D01*
G01X10079Y3725D01*
G01X10075Y3744D01*
G01X10070Y3762D01*
G01X10065Y3781D01*
G01X10059Y3798D01*
G01X10052Y3816D01*
G01X10044Y3834D01*
G01X10036Y3851D01*
G01X10027Y3867D01*
G01X10017Y3884D01*
G01X10006Y3899D01*
G01X9995Y3915D01*
G01X9983Y3930D01*
G01X9971Y3944D01*
G01X9958Y3958D01*
G01X9944Y3971D01*
G01X9930Y3983D01*
G01X9915Y3995D01*
G01X9899Y4006D01*
G01X9884Y4017D01*
G01X9867Y4027D01*
G01X9851Y4036D01*
G01X9834Y4044D01*
G01X9816Y4052D01*
G01X9798Y4059D01*
G01X9781Y4065D01*
G01X9762Y4070D01*
G01X9744Y4075D01*
G01X9725Y4079D01*
G01X9687Y4083D01*
G01X9669Y4085D01*
G37*
G36*
G01X19974Y2065D02*
G01X19325Y2065D01*
G01X19316Y2064D01*
G01X19307Y2062D01*
G01X19298Y2059D01*
G01X19290Y2055D01*
G01X19281Y2050D01*
G01X19274Y2045D01*
G01X19266Y2039D01*
G01X19260Y2033D01*
G01X19254Y2025D01*
G01X19249Y2018D01*
G01X19244Y2009D01*
G01X19240Y2001D01*
G01X19237Y1992D01*
G01X19235Y1983D01*
G01X19234Y1974D01*
G01X19234Y1325D01*
G01X19235Y1316D01*
G01X19237Y1307D01*
G01X19240Y1298D01*
G01X19244Y1290D01*
G01X19249Y1281D01*
G01X19254Y1274D01*
G01X19260Y1266D01*
G01X19266Y1260D01*
G01X19274Y1254D01*
G01X19281Y1249D01*
G01X19290Y1244D01*
G01X19298Y1240D01*
G01X19307Y1237D01*
G01X19316Y1235D01*
G01X19325Y1234D01*
G01X19974Y1234D01*
G01X19983Y1235D01*
G01X19992Y1237D01*
G01X20001Y1240D01*
G01X20009Y1244D01*
G01X20018Y1249D01*
G01X20025Y1254D01*
G01X20033Y1260D01*
G01X20039Y1266D01*
G01X20045Y1274D01*
G01X20050Y1281D01*
G01X20055Y1290D01*
G01X20059Y1298D01*
G01X20062Y1307D01*
G01X20064Y1316D01*
G01X20065Y1325D01*
G01X20065Y1974D01*
G01X20064Y1983D01*
G01X20062Y1992D01*
G01X20059Y2001D01*
G01X20055Y2009D01*
G01X20050Y2018D01*
G01X20045Y2025D01*
G01X20039Y2033D01*
G01X20033Y2039D01*
G01X20025Y2045D01*
G01X20018Y2050D01*
G01X20009Y2055D01*
G01X20001Y2059D01*
G01X19992Y2062D01*
G01X19983Y2064D01*
G01X19974Y2065D01*
G37*
G36*
G01X668Y1065D02*
G01X631Y1065D01*
G01X612Y1064D01*
G01X594Y1062D01*
G01X575Y1059D01*
G01X557Y1055D01*
G01X521Y1045D01*
G01X503Y1039D01*
G01X486Y1032D01*
G01X452Y1016D01*
G01X436Y1007D01*
G01X420Y997D01*
G01X390Y975D01*
G01X376Y963D01*
G01X362Y950D01*
G01X349Y937D01*
G01X336Y923D01*
G01X324Y909D01*
G01X302Y879D01*
G01X292Y863D01*
G01X283Y847D01*
G01X267Y813D01*
G01X260Y796D01*
G01X254Y778D01*
G01X244Y742D01*
G01X240Y724D01*
G01X237Y705D01*
G01X235Y687D01*
G01X234Y668D01*
G01X234Y631D01*
G01X235Y612D01*
G01X237Y594D01*
G01X240Y575D01*
G01X244Y557D01*
G01X254Y521D01*
G01X260Y503D01*
G01X267Y486D01*
G01X283Y452D01*
G01X292Y436D01*
G01X302Y420D01*
G01X324Y390D01*
G01X336Y376D01*
G01X349Y362D01*
G01X362Y349D01*
G01X376Y336D01*
G01X390Y324D01*
G01X420Y302D01*
G01X436Y292D01*
G01X452Y283D01*
G01X486Y267D01*
G01X503Y260D01*
G01X521Y254D01*
G01X557Y244D01*
G01X575Y240D01*
G01X594Y237D01*
G01X612Y235D01*
G01X631Y234D01*
G01X668Y234D01*
G01X687Y235D01*
G01X705Y237D01*
G01X724Y240D01*
G01X742Y244D01*
G01X778Y254D01*
G01X796Y260D01*
G01X813Y267D01*
G01X847Y283D01*
G01X863Y292D01*
G01X879Y302D01*
G01X909Y324D01*
G01X923Y336D01*
G01X937Y349D01*
G01X950Y362D01*
G01X963Y376D01*
G01X975Y390D01*
G01X997Y420D01*
G01X1007Y436D01*
G01X1016Y452D01*
G01X1032Y486D01*
G01X1039Y503D01*
G01X1045Y521D01*
G01X1055Y557D01*
G01X1059Y575D01*
G01X1062Y594D01*
G01X1064Y612D01*
G01X1065Y631D01*
G01X1065Y668D01*
G01X1064Y687D01*
G01X1062Y705D01*
G01X1059Y724D01*
G01X1055Y742D01*
G01X1045Y778D01*
G01X1039Y796D01*
G01X1032Y813D01*
G01X1016Y847D01*
G01X1007Y863D01*
G01X997Y879D01*
G01X975Y909D01*
G01X963Y923D01*
G01X950Y937D01*
G01X937Y950D01*
G01X923Y963D01*
G01X909Y975D01*
G01X879Y997D01*
G01X863Y1007D01*
G01X847Y1016D01*
G01X813Y1032D01*
G01X796Y1039D01*
G01X778Y1045D01*
G01X742Y1055D01*
G01X724Y1059D01*
G01X705Y1062D01*
G01X687Y1064D01*
G01X668Y1065D01*
G37*
G36*
G01X14668Y2065D02*
G01X14631Y2065D01*
G01X14612Y2064D01*
G01X14594Y2062D01*
G01X14575Y2059D01*
G01X14557Y2055D01*
G01X14521Y2045D01*
G01X14503Y2039D01*
G01X14486Y2032D01*
G01X14452Y2016D01*
G01X14436Y2007D01*
G01X14420Y1997D01*
G01X14390Y1975D01*
G01X14376Y1963D01*
G01X14362Y1950D01*
G01X14349Y1937D01*
G01X14336Y1923D01*
G01X14324Y1909D01*
G01X14302Y1879D01*
G01X14292Y1863D01*
G01X14283Y1847D01*
G01X14267Y1813D01*
G01X14260Y1796D01*
G01X14254Y1778D01*
G01X14244Y1742D01*
G01X14240Y1724D01*
G01X14237Y1705D01*
G01X14235Y1687D01*
G01X14234Y1668D01*
G01X14234Y1631D01*
G01X14235Y1612D01*
G01X14237Y1594D01*
G01X14240Y1575D01*
G01X14244Y1557D01*
G01X14254Y1521D01*
G01X14260Y1503D01*
G01X14267Y1486D01*
G01X14283Y1452D01*
G01X14292Y1436D01*
G01X14302Y1420D01*
G01X14324Y1390D01*
G01X14336Y1376D01*
G01X14349Y1362D01*
G01X14362Y1349D01*
G01X14376Y1336D01*
G01X14390Y1324D01*
G01X14420Y1302D01*
G01X14436Y1292D01*
G01X14452Y1283D01*
G01X14486Y1267D01*
G01X14503Y1260D01*
G01X14521Y1254D01*
G01X14557Y1244D01*
G01X14575Y1240D01*
G01X14594Y1237D01*
G01X14612Y1235D01*
G01X14631Y1234D01*
G01X14668Y1234D01*
G01X14687Y1235D01*
G01X14705Y1237D01*
G01X14724Y1240D01*
G01X14742Y1244D01*
G01X14778Y1254D01*
G01X14796Y1260D01*
G01X14813Y1267D01*
G01X14847Y1283D01*
G01X14863Y1292D01*
G01X14879Y1302D01*
G01X14909Y1324D01*
G01X14923Y1336D01*
G01X14937Y1349D01*
G01X14950Y1362D01*
G01X14963Y1376D01*
G01X14975Y1390D01*
G01X14997Y1420D01*
G01X15007Y1436D01*
G01X15016Y1452D01*
G01X15032Y1486D01*
G01X15039Y1503D01*
G01X15045Y1521D01*
G01X15055Y1557D01*
G01X15059Y1575D01*
G01X15062Y1594D01*
G01X15064Y1612D01*
G01X15065Y1631D01*
G01X15065Y1668D01*
G01X15064Y1687D01*
G01X15062Y1705D01*
G01X15059Y1724D01*
G01X15055Y1742D01*
G01X15045Y1778D01*
G01X15039Y1796D01*
G01X15032Y1813D01*
G01X15016Y1847D01*
G01X15007Y1863D01*
G01X14997Y1879D01*
G01X14975Y1909D01*
G01X14963Y1923D01*
G01X14950Y1937D01*
G01X14937Y1950D01*
G01X14923Y1963D01*
G01X14909Y1975D01*
G01X14879Y1997D01*
G01X14863Y2007D01*
G01X14847Y2016D01*
G01X14813Y2032D01*
G01X14796Y2039D01*
G01X14778Y2045D01*
G01X14742Y2055D01*
G01X14724Y2059D01*
G01X14705Y2062D01*
G01X14687Y2064D01*
G01X14668Y2065D01*
G37*
G36*
G01X1668Y2065D02*
G01X1631Y2065D01*
G01X1612Y2064D01*
G01X1594Y2062D01*
G01X1575Y2059D01*
G01X1557Y2055D01*
G01X1521Y2045D01*
G01X1503Y2039D01*
G01X1486Y2032D01*
G01X1452Y2016D01*
G01X1436Y2007D01*
G01X1420Y1997D01*
G01X1390Y1975D01*
G01X1376Y1963D01*
G01X1362Y1950D01*
G01X1349Y1937D01*
G01X1336Y1923D01*
G01X1324Y1909D01*
G01X1302Y1879D01*
G01X1292Y1863D01*
G01X1283Y1847D01*
G01X1267Y1813D01*
G01X1260Y1796D01*
G01X1254Y1778D01*
G01X1244Y1742D01*
G01X1240Y1724D01*
G01X1237Y1705D01*
G01X1235Y1687D01*
G01X1234Y1668D01*
G01X1234Y1631D01*
G01X1235Y1612D01*
G01X1237Y1594D01*
G01X1240Y1575D01*
G01X1244Y1557D01*
G01X1254Y1521D01*
G01X1260Y1503D01*
G01X1267Y1486D01*
G01X1283Y1452D01*
G01X1292Y1436D01*
G01X1302Y1420D01*
G01X1324Y1390D01*
G01X1336Y1376D01*
G01X1349Y1362D01*
G01X1362Y1349D01*
G01X1376Y1336D01*
G01X1390Y1324D01*
G01X1420Y1302D01*
G01X1436Y1292D01*
G01X1452Y1283D01*
G01X1486Y1267D01*
G01X1503Y1260D01*
G01X1521Y1254D01*
G01X1557Y1244D01*
G01X1575Y1240D01*
G01X1594Y1237D01*
G01X1612Y1235D01*
G01X1631Y1234D01*
G01X1668Y1234D01*
G01X1687Y1235D01*
G01X1705Y1237D01*
G01X1724Y1240D01*
G01X1742Y1244D01*
G01X1778Y1254D01*
G01X1796Y1260D01*
G01X1813Y1267D01*
G01X1847Y1283D01*
G01X1863Y1292D01*
G01X1879Y1302D01*
G01X1909Y1324D01*
G01X1923Y1336D01*
G01X1937Y1349D01*
G01X1950Y1362D01*
G01X1963Y1376D01*
G01X1975Y1390D01*
G01X1997Y1420D01*
G01X2007Y1436D01*
G01X2016Y1452D01*
G01X2032Y1486D01*
G01X2039Y1503D01*
G01X2045Y1521D01*
G01X2055Y1557D01*
G01X2059Y1575D01*
G01X2062Y1594D01*
G01X2064Y1612D01*
G01X2065Y1631D01*
G01X2065Y1668D01*
G01X2064Y1687D01*
G01X2062Y1705D01*
G01X2059Y1724D01*
G01X2055Y1742D01*
G01X2045Y1778D01*
G01X2039Y1796D01*
G01X2032Y1813D01*
G01X2016Y1847D01*
G01X2007Y1863D01*
G01X1997Y1879D01*
G01X1975Y1909D01*
G01X1963Y1923D01*
G01X1950Y1937D01*
G01X1937Y1950D01*
G01X1923Y1963D01*
G01X1909Y1975D01*
G01X1879Y1997D01*
G01X1863Y2007D01*
G01X1847Y2016D01*
G01X1813Y2032D01*
G01X1796Y2039D01*
G01X1778Y2045D01*
G01X1742Y2055D01*
G01X1724Y2059D01*
G01X1705Y2062D01*
G01X1687Y2064D01*
G01X1668Y2065D01*
G37*
G36*
G01X9668Y2065D02*
G01X9631Y2065D01*
G01X9612Y2064D01*
G01X9594Y2062D01*
G01X9575Y2059D01*
G01X9557Y2055D01*
G01X9521Y2045D01*
G01X9503Y2039D01*
G01X9486Y2032D01*
G01X9452Y2016D01*
G01X9436Y2007D01*
G01X9420Y1997D01*
G01X9390Y1975D01*
G01X9376Y1963D01*
G01X9362Y1950D01*
G01X9349Y1937D01*
G01X9336Y1923D01*
G01X9324Y1909D01*
G01X9302Y1879D01*
G01X9292Y1863D01*
G01X9283Y1847D01*
G01X9267Y1813D01*
G01X9260Y1796D01*
G01X9254Y1778D01*
G01X9244Y1742D01*
G01X9240Y1724D01*
G01X9237Y1705D01*
G01X9235Y1687D01*
G01X9234Y1668D01*
G01X9234Y1631D01*
G01X9235Y1612D01*
G01X9237Y1594D01*
G01X9240Y1575D01*
G01X9244Y1557D01*
G01X9254Y1521D01*
G01X9260Y1503D01*
G01X9267Y1486D01*
G01X9283Y1452D01*
G01X9292Y1436D01*
G01X9302Y1420D01*
G01X9324Y1390D01*
G01X9336Y1376D01*
G01X9349Y1362D01*
G01X9362Y1349D01*
G01X9376Y1336D01*
G01X9390Y1324D01*
G01X9420Y1302D01*
G01X9436Y1292D01*
G01X9452Y1283D01*
G01X9486Y1267D01*
G01X9503Y1260D01*
G01X9521Y1254D01*
G01X9557Y1244D01*
G01X9575Y1240D01*
G01X9594Y1237D01*
G01X9612Y1235D01*
G01X9631Y1234D01*
G01X9668Y1234D01*
G01X9687Y1235D01*
G01X9705Y1237D01*
G01X9724Y1240D01*
G01X9742Y1244D01*
G01X9778Y1254D01*
G01X9796Y1260D01*
G01X9813Y1267D01*
G01X9847Y1283D01*
G01X9863Y1292D01*
G01X9879Y1302D01*
G01X9909Y1324D01*
G01X9923Y1336D01*
G01X9937Y1349D01*
G01X9950Y1362D01*
G01X9963Y1376D01*
G01X9975Y1390D01*
G01X9997Y1420D01*
G01X10007Y1436D01*
G01X10016Y1452D01*
G01X10032Y1486D01*
G01X10039Y1503D01*
G01X10045Y1521D01*
G01X10055Y1557D01*
G01X10059Y1575D01*
G01X10062Y1594D01*
G01X10064Y1612D01*
G01X10065Y1631D01*
G01X10065Y1668D01*
G01X10064Y1687D01*
G01X10062Y1705D01*
G01X10059Y1724D01*
G01X10055Y1742D01*
G01X10045Y1778D01*
G01X10039Y1796D01*
G01X10032Y1813D01*
G01X10016Y1847D01*
G01X10007Y1863D01*
G01X9997Y1879D01*
G01X9975Y1909D01*
G01X9963Y1923D01*
G01X9950Y1937D01*
G01X9937Y1950D01*
G01X9923Y1963D01*
G01X9909Y1975D01*
G01X9879Y1997D01*
G01X9863Y2007D01*
G01X9847Y2016D01*
G01X9813Y2032D01*
G01X9796Y2039D01*
G01X9778Y2045D01*
G01X9742Y2055D01*
G01X9724Y2059D01*
G01X9705Y2062D01*
G01X9687Y2064D01*
G01X9668Y2065D01*
G37*
G36*
G01X19668Y1065D02*
G01X19631Y1065D01*
G01X19612Y1064D01*
G01X19594Y1062D01*
G01X19575Y1059D01*
G01X19557Y1055D01*
G01X19521Y1045D01*
G01X19503Y1039D01*
G01X19486Y1032D01*
G01X19452Y1016D01*
G01X19436Y1007D01*
G01X19420Y997D01*
G01X19390Y975D01*
G01X19376Y963D01*
G01X19362Y950D01*
G01X19349Y937D01*
G01X19336Y923D01*
G01X19324Y909D01*
G01X19302Y879D01*
G01X19292Y863D01*
G01X19283Y847D01*
G01X19267Y813D01*
G01X19260Y796D01*
G01X19254Y778D01*
G01X19244Y742D01*
G01X19240Y724D01*
G01X19237Y705D01*
G01X19235Y687D01*
G01X19234Y668D01*
G01X19234Y631D01*
G01X19235Y612D01*
G01X19237Y594D01*
G01X19240Y575D01*
G01X19244Y557D01*
G01X19254Y521D01*
G01X19260Y503D01*
G01X19267Y486D01*
G01X19283Y452D01*
G01X19292Y436D01*
G01X19302Y420D01*
G01X19324Y390D01*
G01X19336Y376D01*
G01X19349Y362D01*
G01X19362Y349D01*
G01X19376Y336D01*
G01X19390Y324D01*
G01X19420Y302D01*
G01X19436Y292D01*
G01X19452Y283D01*
G01X19486Y267D01*
G01X19503Y260D01*
G01X19521Y254D01*
G01X19557Y244D01*
G01X19575Y240D01*
G01X19594Y237D01*
G01X19612Y235D01*
G01X19631Y234D01*
G01X19668Y234D01*
G01X19687Y235D01*
G01X19705Y237D01*
G01X19724Y240D01*
G01X19742Y244D01*
G01X19778Y254D01*
G01X19796Y260D01*
G01X19813Y267D01*
G01X19847Y283D01*
G01X19863Y292D01*
G01X19879Y302D01*
G01X19909Y324D01*
G01X19923Y336D01*
G01X19937Y349D01*
G01X19950Y362D01*
G01X19963Y376D01*
G01X19975Y390D01*
G01X19997Y420D01*
G01X20007Y436D01*
G01X20016Y452D01*
G01X20032Y486D01*
G01X20039Y503D01*
G01X20045Y521D01*
G01X20055Y557D01*
G01X20059Y575D01*
G01X20062Y594D01*
G01X20064Y612D01*
G01X20065Y631D01*
G01X20065Y668D01*
G01X20064Y687D01*
G01X20062Y705D01*
G01X20059Y724D01*
G01X20055Y742D01*
G01X20045Y778D01*
G01X20039Y796D01*
G01X20032Y813D01*
G01X20016Y847D01*
G01X20007Y863D01*
G01X19997Y879D01*
G01X19975Y909D01*
G01X19963Y923D01*
G01X19950Y937D01*
G01X19937Y950D01*
G01X19923Y963D01*
G01X19909Y975D01*
G01X19879Y997D01*
G01X19863Y1007D01*
G01X19847Y1016D01*
G01X19813Y1032D01*
G01X19796Y1039D01*
G01X19778Y1045D01*
G01X19742Y1055D01*
G01X19724Y1059D01*
G01X19705Y1062D01*
G01X19687Y1064D01*
G01X19668Y1065D01*
G37*
G36*
G01X8668Y2065D02*
G01X8631Y2065D01*
G01X8612Y2064D01*
G01X8594Y2062D01*
G01X8575Y2059D01*
G01X8557Y2055D01*
G01X8521Y2045D01*
G01X8503Y2039D01*
G01X8486Y2032D01*
G01X8452Y2016D01*
G01X8436Y2007D01*
G01X8420Y1997D01*
G01X8390Y1975D01*
G01X8376Y1963D01*
G01X8362Y1950D01*
G01X8349Y1937D01*
G01X8336Y1923D01*
G01X8324Y1909D01*
G01X8302Y1879D01*
G01X8292Y1863D01*
G01X8283Y1847D01*
G01X8267Y1813D01*
G01X8260Y1796D01*
G01X8254Y1778D01*
G01X8244Y1742D01*
G01X8240Y1724D01*
G01X8237Y1705D01*
G01X8235Y1687D01*
G01X8234Y1668D01*
G01X8234Y1631D01*
G01X8235Y1612D01*
G01X8237Y1594D01*
G01X8240Y1575D01*
G01X8244Y1557D01*
G01X8254Y1521D01*
G01X8260Y1503D01*
G01X8267Y1486D01*
G01X8283Y1452D01*
G01X8292Y1436D01*
G01X8302Y1420D01*
G01X8324Y1390D01*
G01X8336Y1376D01*
G01X8349Y1362D01*
G01X8362Y1349D01*
G01X8376Y1336D01*
G01X8390Y1324D01*
G01X8420Y1302D01*
G01X8436Y1292D01*
G01X8452Y1283D01*
G01X8486Y1267D01*
G01X8503Y1260D01*
G01X8521Y1254D01*
G01X8557Y1244D01*
G01X8575Y1240D01*
G01X8594Y1237D01*
G01X8612Y1235D01*
G01X8631Y1234D01*
G01X8668Y1234D01*
G01X8687Y1235D01*
G01X8705Y1237D01*
G01X8724Y1240D01*
G01X8742Y1244D01*
G01X8778Y1254D01*
G01X8796Y1260D01*
G01X8813Y1267D01*
G01X8847Y1283D01*
G01X8863Y1292D01*
G01X8879Y1302D01*
G01X8909Y1324D01*
G01X8923Y1336D01*
G01X8937Y1349D01*
G01X8950Y1362D01*
G01X8963Y1376D01*
G01X8975Y1390D01*
G01X8997Y1420D01*
G01X9007Y1436D01*
G01X9016Y1452D01*
G01X9032Y1486D01*
G01X9039Y1503D01*
G01X9045Y1521D01*
G01X9055Y1557D01*
G01X9059Y1575D01*
G01X9062Y1594D01*
G01X9064Y1612D01*
G01X9065Y1631D01*
G01X9065Y1668D01*
G01X9064Y1687D01*
G01X9062Y1705D01*
G01X9059Y1724D01*
G01X9055Y1742D01*
G01X9045Y1778D01*
G01X9039Y1796D01*
G01X9032Y1813D01*
G01X9016Y1847D01*
G01X9007Y1863D01*
G01X8997Y1879D01*
G01X8975Y1909D01*
G01X8963Y1923D01*
G01X8950Y1937D01*
G01X8937Y1950D01*
G01X8923Y1963D01*
G01X8909Y1975D01*
G01X8879Y1997D01*
G01X8863Y2007D01*
G01X8847Y2016D01*
G01X8813Y2032D01*
G01X8796Y2039D01*
G01X8778Y2045D01*
G01X8742Y2055D01*
G01X8724Y2059D01*
G01X8705Y2062D01*
G01X8687Y2064D01*
G01X8668Y2065D01*
G37*
G36*
G01X15668Y1065D02*
G01X15631Y1065D01*
G01X15612Y1064D01*
G01X15594Y1062D01*
G01X15575Y1059D01*
G01X15557Y1055D01*
G01X15521Y1045D01*
G01X15503Y1039D01*
G01X15486Y1032D01*
G01X15452Y1016D01*
G01X15436Y1007D01*
G01X15420Y997D01*
G01X15390Y975D01*
G01X15376Y963D01*
G01X15362Y950D01*
G01X15349Y937D01*
G01X15336Y923D01*
G01X15324Y909D01*
G01X15302Y879D01*
G01X15292Y863D01*
G01X15283Y847D01*
G01X15267Y813D01*
G01X15260Y796D01*
G01X15254Y778D01*
G01X15244Y742D01*
G01X15240Y724D01*
G01X15237Y705D01*
G01X15235Y687D01*
G01X15234Y668D01*
G01X15234Y631D01*
G01X15235Y612D01*
G01X15237Y594D01*
G01X15240Y575D01*
G01X15244Y557D01*
G01X15254Y521D01*
G01X15260Y503D01*
G01X15267Y486D01*
G01X15283Y452D01*
G01X15292Y436D01*
G01X15302Y420D01*
G01X15324Y390D01*
G01X15336Y376D01*
G01X15349Y362D01*
G01X15362Y349D01*
G01X15376Y336D01*
G01X15390Y324D01*
G01X15420Y302D01*
G01X15436Y292D01*
G01X15452Y283D01*
G01X15486Y267D01*
G01X15503Y260D01*
G01X15521Y254D01*
G01X15557Y244D01*
G01X15575Y240D01*
G01X15594Y237D01*
G01X15612Y235D01*
G01X15631Y234D01*
G01X15668Y234D01*
G01X15687Y235D01*
G01X15705Y237D01*
G01X15724Y240D01*
G01X15742Y244D01*
G01X15778Y254D01*
G01X15796Y260D01*
G01X15813Y267D01*
G01X15847Y283D01*
G01X15863Y292D01*
G01X15879Y302D01*
G01X15909Y324D01*
G01X15923Y336D01*
G01X15937Y349D01*
G01X15950Y362D01*
G01X15963Y376D01*
G01X15975Y390D01*
G01X15997Y420D01*
G01X16007Y436D01*
G01X16016Y452D01*
G01X16032Y486D01*
G01X16039Y503D01*
G01X16045Y521D01*
G01X16055Y557D01*
G01X16059Y575D01*
G01X16062Y594D01*
G01X16064Y612D01*
G01X16065Y631D01*
G01X16065Y668D01*
G01X16064Y687D01*
G01X16062Y705D01*
G01X16059Y724D01*
G01X16055Y742D01*
G01X16045Y778D01*
G01X16039Y796D01*
G01X16032Y813D01*
G01X16016Y847D01*
G01X16007Y863D01*
G01X15997Y879D01*
G01X15975Y909D01*
G01X15963Y923D01*
G01X15950Y937D01*
G01X15937Y950D01*
G01X15923Y963D01*
G01X15909Y975D01*
G01X15879Y997D01*
G01X15863Y1007D01*
G01X15847Y1016D01*
G01X15813Y1032D01*
G01X15796Y1039D01*
G01X15778Y1045D01*
G01X15742Y1055D01*
G01X15724Y1059D01*
G01X15705Y1062D01*
G01X15687Y1064D01*
G01X15668Y1065D01*
G37*
G36*
G01X2668Y1065D02*
G01X2631Y1065D01*
G01X2612Y1064D01*
G01X2594Y1062D01*
G01X2575Y1059D01*
G01X2557Y1055D01*
G01X2521Y1045D01*
G01X2503Y1039D01*
G01X2486Y1032D01*
G01X2452Y1016D01*
G01X2436Y1007D01*
G01X2420Y997D01*
G01X2390Y975D01*
G01X2376Y963D01*
G01X2362Y950D01*
G01X2349Y937D01*
G01X2336Y923D01*
G01X2324Y909D01*
G01X2302Y879D01*
G01X2292Y863D01*
G01X2283Y847D01*
G01X2267Y813D01*
G01X2260Y796D01*
G01X2254Y778D01*
G01X2244Y742D01*
G01X2240Y724D01*
G01X2237Y705D01*
G01X2235Y687D01*
G01X2234Y668D01*
G01X2234Y631D01*
G01X2235Y612D01*
G01X2237Y594D01*
G01X2240Y575D01*
G01X2244Y557D01*
G01X2254Y521D01*
G01X2260Y503D01*
G01X2267Y486D01*
G01X2283Y452D01*
G01X2292Y436D01*
G01X2302Y420D01*
G01X2324Y390D01*
G01X2336Y376D01*
G01X2349Y362D01*
G01X2362Y349D01*
G01X2376Y336D01*
G01X2390Y324D01*
G01X2420Y302D01*
G01X2436Y292D01*
G01X2452Y283D01*
G01X2486Y267D01*
G01X2503Y260D01*
G01X2521Y254D01*
G01X2557Y244D01*
G01X2575Y240D01*
G01X2594Y237D01*
G01X2612Y235D01*
G01X2631Y234D01*
G01X2668Y234D01*
G01X2687Y235D01*
G01X2705Y237D01*
G01X2724Y240D01*
G01X2742Y244D01*
G01X2778Y254D01*
G01X2796Y260D01*
G01X2813Y267D01*
G01X2847Y283D01*
G01X2863Y292D01*
G01X2879Y302D01*
G01X2909Y324D01*
G01X2923Y336D01*
G01X2937Y349D01*
G01X2950Y362D01*
G01X2963Y376D01*
G01X2975Y390D01*
G01X2997Y420D01*
G01X3007Y436D01*
G01X3016Y452D01*
G01X3032Y486D01*
G01X3039Y503D01*
G01X3045Y521D01*
G01X3055Y557D01*
G01X3059Y575D01*
G01X3062Y594D01*
G01X3064Y612D01*
G01X3065Y631D01*
G01X3065Y668D01*
G01X3064Y687D01*
G01X3062Y705D01*
G01X3059Y724D01*
G01X3055Y742D01*
G01X3045Y778D01*
G01X3039Y796D01*
G01X3032Y813D01*
G01X3016Y847D01*
G01X3007Y863D01*
G01X2997Y879D01*
G01X2975Y909D01*
G01X2963Y923D01*
G01X2950Y937D01*
G01X2937Y950D01*
G01X2923Y963D01*
G01X2909Y975D01*
G01X2879Y997D01*
G01X2863Y1007D01*
G01X2847Y1016D01*
G01X2813Y1032D01*
G01X2796Y1039D01*
G01X2778Y1045D01*
G01X2742Y1055D01*
G01X2724Y1059D01*
G01X2705Y1062D01*
G01X2687Y1064D01*
G01X2668Y1065D01*
G37*
G36*
G01X2668Y2065D02*
G01X2631Y2065D01*
G01X2612Y2064D01*
G01X2594Y2062D01*
G01X2575Y2059D01*
G01X2557Y2055D01*
G01X2521Y2045D01*
G01X2503Y2039D01*
G01X2486Y2032D01*
G01X2452Y2016D01*
G01X2436Y2007D01*
G01X2420Y1997D01*
G01X2390Y1975D01*
G01X2376Y1963D01*
G01X2362Y1950D01*
G01X2349Y1937D01*
G01X2336Y1923D01*
G01X2324Y1909D01*
G01X2302Y1879D01*
G01X2292Y1863D01*
G01X2283Y1847D01*
G01X2267Y1813D01*
G01X2260Y1796D01*
G01X2254Y1778D01*
G01X2244Y1742D01*
G01X2240Y1724D01*
G01X2237Y1705D01*
G01X2235Y1687D01*
G01X2234Y1668D01*
G01X2234Y1631D01*
G01X2235Y1612D01*
G01X2237Y1594D01*
G01X2240Y1575D01*
G01X2244Y1557D01*
G01X2254Y1521D01*
G01X2260Y1503D01*
G01X2267Y1486D01*
G01X2283Y1452D01*
G01X2292Y1436D01*
G01X2302Y1420D01*
G01X2324Y1390D01*
G01X2336Y1376D01*
G01X2349Y1362D01*
G01X2362Y1349D01*
G01X2376Y1336D01*
G01X2390Y1324D01*
G01X2420Y1302D01*
G01X2436Y1292D01*
G01X2452Y1283D01*
G01X2486Y1267D01*
G01X2503Y1260D01*
G01X2521Y1254D01*
G01X2557Y1244D01*
G01X2575Y1240D01*
G01X2594Y1237D01*
G01X2612Y1235D01*
G01X2631Y1234D01*
G01X2668Y1234D01*
G01X2687Y1235D01*
G01X2705Y1237D01*
G01X2724Y1240D01*
G01X2742Y1244D01*
G01X2778Y1254D01*
G01X2796Y1260D01*
G01X2813Y1267D01*
G01X2847Y1283D01*
G01X2863Y1292D01*
G01X2879Y1302D01*
G01X2909Y1324D01*
G01X2923Y1336D01*
G01X2937Y1349D01*
G01X2950Y1362D01*
G01X2963Y1376D01*
G01X2975Y1390D01*
G01X2997Y1420D01*
G01X3007Y1436D01*
G01X3016Y1452D01*
G01X3032Y1486D01*
G01X3039Y1503D01*
G01X3045Y1521D01*
G01X3055Y1557D01*
G01X3059Y1575D01*
G01X3062Y1594D01*
G01X3064Y1612D01*
G01X3065Y1631D01*
G01X3065Y1668D01*
G01X3064Y1687D01*
G01X3062Y1705D01*
G01X3059Y1724D01*
G01X3055Y1742D01*
G01X3045Y1778D01*
G01X3039Y1796D01*
G01X3032Y1813D01*
G01X3016Y1847D01*
G01X3007Y1863D01*
G01X2997Y1879D01*
G01X2975Y1909D01*
G01X2963Y1923D01*
G01X2950Y1937D01*
G01X2937Y1950D01*
G01X2923Y1963D01*
G01X2909Y1975D01*
G01X2879Y1997D01*
G01X2863Y2007D01*
G01X2847Y2016D01*
G01X2813Y2032D01*
G01X2796Y2039D01*
G01X2778Y2045D01*
G01X2742Y2055D01*
G01X2724Y2059D01*
G01X2705Y2062D01*
G01X2687Y2064D01*
G01X2668Y2065D01*
G37*
G36*
G01X3668Y2065D02*
G01X3631Y2065D01*
G01X3612Y2064D01*
G01X3594Y2062D01*
G01X3575Y2059D01*
G01X3557Y2055D01*
G01X3521Y2045D01*
G01X3503Y2039D01*
G01X3486Y2032D01*
G01X3452Y2016D01*
G01X3436Y2007D01*
G01X3420Y1997D01*
G01X3390Y1975D01*
G01X3376Y1963D01*
G01X3362Y1950D01*
G01X3349Y1937D01*
G01X3336Y1923D01*
G01X3324Y1909D01*
G01X3302Y1879D01*
G01X3292Y1863D01*
G01X3283Y1847D01*
G01X3267Y1813D01*
G01X3260Y1796D01*
G01X3254Y1778D01*
G01X3244Y1742D01*
G01X3240Y1724D01*
G01X3237Y1705D01*
G01X3235Y1687D01*
G01X3234Y1668D01*
G01X3234Y1631D01*
G01X3235Y1612D01*
G01X3237Y1594D01*
G01X3240Y1575D01*
G01X3244Y1557D01*
G01X3254Y1521D01*
G01X3260Y1503D01*
G01X3267Y1486D01*
G01X3283Y1452D01*
G01X3292Y1436D01*
G01X3302Y1420D01*
G01X3324Y1390D01*
G01X3336Y1376D01*
G01X3349Y1362D01*
G01X3362Y1349D01*
G01X3376Y1336D01*
G01X3390Y1324D01*
G01X3420Y1302D01*
G01X3436Y1292D01*
G01X3452Y1283D01*
G01X3486Y1267D01*
G01X3503Y1260D01*
G01X3521Y1254D01*
G01X3557Y1244D01*
G01X3575Y1240D01*
G01X3594Y1237D01*
G01X3612Y1235D01*
G01X3631Y1234D01*
G01X3668Y1234D01*
G01X3687Y1235D01*
G01X3705Y1237D01*
G01X3724Y1240D01*
G01X3742Y1244D01*
G01X3778Y1254D01*
G01X3796Y1260D01*
G01X3813Y1267D01*
G01X3847Y1283D01*
G01X3863Y1292D01*
G01X3879Y1302D01*
G01X3909Y1324D01*
G01X3923Y1336D01*
G01X3937Y1349D01*
G01X3950Y1362D01*
G01X3963Y1376D01*
G01X3975Y1390D01*
G01X3997Y1420D01*
G01X4007Y1436D01*
G01X4016Y1452D01*
G01X4032Y1486D01*
G01X4039Y1503D01*
G01X4045Y1521D01*
G01X4055Y1557D01*
G01X4059Y1575D01*
G01X4062Y1594D01*
G01X4064Y1612D01*
G01X4065Y1631D01*
G01X4065Y1668D01*
G01X4064Y1687D01*
G01X4062Y1705D01*
G01X4059Y1724D01*
G01X4055Y1742D01*
G01X4045Y1778D01*
G01X4039Y1796D01*
G01X4032Y1813D01*
G01X4016Y1847D01*
G01X4007Y1863D01*
G01X3997Y1879D01*
G01X3975Y1909D01*
G01X3963Y1923D01*
G01X3950Y1937D01*
G01X3937Y1950D01*
G01X3923Y1963D01*
G01X3909Y1975D01*
G01X3879Y1997D01*
G01X3863Y2007D01*
G01X3847Y2016D01*
G01X3813Y2032D01*
G01X3796Y2039D01*
G01X3778Y2045D01*
G01X3742Y2055D01*
G01X3724Y2059D01*
G01X3705Y2062D01*
G01X3687Y2064D01*
G01X3668Y2065D01*
G37*
G36*
G01X16668Y2065D02*
G01X16631Y2065D01*
G01X16612Y2064D01*
G01X16594Y2062D01*
G01X16575Y2059D01*
G01X16557Y2055D01*
G01X16521Y2045D01*
G01X16503Y2039D01*
G01X16486Y2032D01*
G01X16452Y2016D01*
G01X16436Y2007D01*
G01X16420Y1997D01*
G01X16390Y1975D01*
G01X16376Y1963D01*
G01X16362Y1950D01*
G01X16349Y1937D01*
G01X16336Y1923D01*
G01X16324Y1909D01*
G01X16302Y1879D01*
G01X16292Y1863D01*
G01X16283Y1847D01*
G01X16267Y1813D01*
G01X16260Y1796D01*
G01X16254Y1778D01*
G01X16244Y1742D01*
G01X16240Y1724D01*
G01X16237Y1705D01*
G01X16235Y1687D01*
G01X16234Y1668D01*
G01X16234Y1631D01*
G01X16235Y1612D01*
G01X16237Y1594D01*
G01X16240Y1575D01*
G01X16244Y1557D01*
G01X16254Y1521D01*
G01X16260Y1503D01*
G01X16267Y1486D01*
G01X16283Y1452D01*
G01X16292Y1436D01*
G01X16302Y1420D01*
G01X16324Y1390D01*
G01X16336Y1376D01*
G01X16349Y1362D01*
G01X16362Y1349D01*
G01X16376Y1336D01*
G01X16390Y1324D01*
G01X16420Y1302D01*
G01X16436Y1292D01*
G01X16452Y1283D01*
G01X16486Y1267D01*
G01X16503Y1260D01*
G01X16521Y1254D01*
G01X16557Y1244D01*
G01X16575Y1240D01*
G01X16594Y1237D01*
G01X16612Y1235D01*
G01X16631Y1234D01*
G01X16668Y1234D01*
G01X16687Y1235D01*
G01X16705Y1237D01*
G01X16724Y1240D01*
G01X16742Y1244D01*
G01X16778Y1254D01*
G01X16796Y1260D01*
G01X16813Y1267D01*
G01X16847Y1283D01*
G01X16863Y1292D01*
G01X16879Y1302D01*
G01X16909Y1324D01*
G01X16923Y1336D01*
G01X16937Y1349D01*
G01X16950Y1362D01*
G01X16963Y1376D01*
G01X16975Y1390D01*
G01X16997Y1420D01*
G01X17007Y1436D01*
G01X17016Y1452D01*
G01X17032Y1486D01*
G01X17039Y1503D01*
G01X17045Y1521D01*
G01X17055Y1557D01*
G01X17059Y1575D01*
G01X17062Y1594D01*
G01X17064Y1612D01*
G01X17065Y1631D01*
G01X17065Y1668D01*
G01X17064Y1687D01*
G01X17062Y1705D01*
G01X17059Y1724D01*
G01X17055Y1742D01*
G01X17045Y1778D01*
G01X17039Y1796D01*
G01X17032Y1813D01*
G01X17016Y1847D01*
G01X17007Y1863D01*
G01X16997Y1879D01*
G01X16975Y1909D01*
G01X16963Y1923D01*
G01X16950Y1937D01*
G01X16937Y1950D01*
G01X16923Y1963D01*
G01X16909Y1975D01*
G01X16879Y1997D01*
G01X16863Y2007D01*
G01X16847Y2016D01*
G01X16813Y2032D01*
G01X16796Y2039D01*
G01X16778Y2045D01*
G01X16742Y2055D01*
G01X16724Y2059D01*
G01X16705Y2062D01*
G01X16687Y2064D01*
G01X16668Y2065D01*
G37*
G36*
G01X8668Y1065D02*
G01X8631Y1065D01*
G01X8612Y1064D01*
G01X8594Y1062D01*
G01X8575Y1059D01*
G01X8557Y1055D01*
G01X8521Y1045D01*
G01X8503Y1039D01*
G01X8486Y1032D01*
G01X8452Y1016D01*
G01X8436Y1007D01*
G01X8420Y997D01*
G01X8390Y975D01*
G01X8376Y963D01*
G01X8362Y950D01*
G01X8349Y937D01*
G01X8336Y923D01*
G01X8324Y909D01*
G01X8302Y879D01*
G01X8292Y863D01*
G01X8283Y847D01*
G01X8267Y813D01*
G01X8260Y796D01*
G01X8254Y778D01*
G01X8244Y742D01*
G01X8240Y724D01*
G01X8237Y705D01*
G01X8235Y687D01*
G01X8234Y668D01*
G01X8234Y631D01*
G01X8235Y612D01*
G01X8237Y594D01*
G01X8240Y575D01*
G01X8244Y557D01*
G01X8254Y521D01*
G01X8260Y503D01*
G01X8267Y486D01*
G01X8283Y452D01*
G01X8292Y436D01*
G01X8302Y420D01*
G01X8324Y390D01*
G01X8336Y376D01*
G01X8349Y362D01*
G01X8362Y349D01*
G01X8376Y336D01*
G01X8390Y324D01*
G01X8420Y302D01*
G01X8436Y292D01*
G01X8452Y283D01*
G01X8486Y267D01*
G01X8503Y260D01*
G01X8521Y254D01*
G01X8557Y244D01*
G01X8575Y240D01*
G01X8594Y237D01*
G01X8612Y235D01*
G01X8631Y234D01*
G01X8668Y234D01*
G01X8687Y235D01*
G01X8705Y237D01*
G01X8724Y240D01*
G01X8742Y244D01*
G01X8778Y254D01*
G01X8796Y260D01*
G01X8813Y267D01*
G01X8847Y283D01*
G01X8863Y292D01*
G01X8879Y302D01*
G01X8909Y324D01*
G01X8923Y336D01*
G01X8937Y349D01*
G01X8950Y362D01*
G01X8963Y376D01*
G01X8975Y390D01*
G01X8997Y420D01*
G01X9007Y436D01*
G01X9016Y452D01*
G01X9032Y486D01*
G01X9039Y503D01*
G01X9045Y521D01*
G01X9055Y557D01*
G01X9059Y575D01*
G01X9062Y594D01*
G01X9064Y612D01*
G01X9065Y631D01*
G01X9065Y668D01*
G01X9064Y687D01*
G01X9062Y705D01*
G01X9059Y724D01*
G01X9055Y742D01*
G01X9045Y778D01*
G01X9039Y796D01*
G01X9032Y813D01*
G01X9016Y847D01*
G01X9007Y863D01*
G01X8997Y879D01*
G01X8975Y909D01*
G01X8963Y923D01*
G01X8950Y937D01*
G01X8937Y950D01*
G01X8923Y963D01*
G01X8909Y975D01*
G01X8879Y997D01*
G01X8863Y1007D01*
G01X8847Y1016D01*
G01X8813Y1032D01*
G01X8796Y1039D01*
G01X8778Y1045D01*
G01X8742Y1055D01*
G01X8724Y1059D01*
G01X8705Y1062D01*
G01X8687Y1064D01*
G01X8668Y1065D01*
G37*
G36*
G01X1668Y1065D02*
G01X1631Y1065D01*
G01X1612Y1064D01*
G01X1594Y1062D01*
G01X1575Y1059D01*
G01X1557Y1055D01*
G01X1521Y1045D01*
G01X1503Y1039D01*
G01X1486Y1032D01*
G01X1452Y1016D01*
G01X1436Y1007D01*
G01X1420Y997D01*
G01X1390Y975D01*
G01X1376Y963D01*
G01X1362Y950D01*
G01X1349Y937D01*
G01X1336Y923D01*
G01X1324Y909D01*
G01X1302Y879D01*
G01X1292Y863D01*
G01X1283Y847D01*
G01X1267Y813D01*
G01X1260Y796D01*
G01X1254Y778D01*
G01X1244Y742D01*
G01X1240Y724D01*
G01X1237Y705D01*
G01X1235Y687D01*
G01X1234Y668D01*
G01X1234Y631D01*
G01X1235Y612D01*
G01X1237Y594D01*
G01X1240Y575D01*
G01X1244Y557D01*
G01X1254Y521D01*
G01X1260Y503D01*
G01X1267Y486D01*
G01X1283Y452D01*
G01X1292Y436D01*
G01X1302Y420D01*
G01X1324Y390D01*
G01X1336Y376D01*
G01X1349Y362D01*
G01X1362Y349D01*
G01X1376Y336D01*
G01X1390Y324D01*
G01X1420Y302D01*
G01X1436Y292D01*
G01X1452Y283D01*
G01X1486Y267D01*
G01X1503Y260D01*
G01X1521Y254D01*
G01X1557Y244D01*
G01X1575Y240D01*
G01X1594Y237D01*
G01X1612Y235D01*
G01X1631Y234D01*
G01X1668Y234D01*
G01X1687Y235D01*
G01X1705Y237D01*
G01X1724Y240D01*
G01X1742Y244D01*
G01X1778Y254D01*
G01X1796Y260D01*
G01X1813Y267D01*
G01X1847Y283D01*
G01X1863Y292D01*
G01X1879Y302D01*
G01X1909Y324D01*
G01X1923Y336D01*
G01X1937Y349D01*
G01X1950Y362D01*
G01X1963Y376D01*
G01X1975Y390D01*
G01X1997Y420D01*
G01X2007Y436D01*
G01X2016Y452D01*
G01X2032Y486D01*
G01X2039Y503D01*
G01X2045Y521D01*
G01X2055Y557D01*
G01X2059Y575D01*
G01X2062Y594D01*
G01X2064Y612D01*
G01X2065Y631D01*
G01X2065Y668D01*
G01X2064Y687D01*
G01X2062Y705D01*
G01X2059Y724D01*
G01X2055Y742D01*
G01X2045Y778D01*
G01X2039Y796D01*
G01X2032Y813D01*
G01X2016Y847D01*
G01X2007Y863D01*
G01X1997Y879D01*
G01X1975Y909D01*
G01X1963Y923D01*
G01X1950Y937D01*
G01X1937Y950D01*
G01X1923Y963D01*
G01X1909Y975D01*
G01X1879Y997D01*
G01X1863Y1007D01*
G01X1847Y1016D01*
G01X1813Y1032D01*
G01X1796Y1039D01*
G01X1778Y1045D01*
G01X1742Y1055D01*
G01X1724Y1059D01*
G01X1705Y1062D01*
G01X1687Y1064D01*
G01X1668Y1065D01*
G37*
G36*
G01X10668Y2065D02*
G01X10631Y2065D01*
G01X10612Y2064D01*
G01X10594Y2062D01*
G01X10575Y2059D01*
G01X10557Y2055D01*
G01X10521Y2045D01*
G01X10503Y2039D01*
G01X10486Y2032D01*
G01X10452Y2016D01*
G01X10436Y2007D01*
G01X10420Y1997D01*
G01X10390Y1975D01*
G01X10376Y1963D01*
G01X10362Y1950D01*
G01X10349Y1937D01*
G01X10336Y1923D01*
G01X10324Y1909D01*
G01X10302Y1879D01*
G01X10292Y1863D01*
G01X10283Y1847D01*
G01X10267Y1813D01*
G01X10260Y1796D01*
G01X10254Y1778D01*
G01X10244Y1742D01*
G01X10240Y1724D01*
G01X10237Y1705D01*
G01X10235Y1687D01*
G01X10234Y1668D01*
G01X10234Y1631D01*
G01X10235Y1612D01*
G01X10237Y1594D01*
G01X10240Y1575D01*
G01X10244Y1557D01*
G01X10254Y1521D01*
G01X10260Y1503D01*
G01X10267Y1486D01*
G01X10283Y1452D01*
G01X10292Y1436D01*
G01X10302Y1420D01*
G01X10324Y1390D01*
G01X10336Y1376D01*
G01X10349Y1362D01*
G01X10362Y1349D01*
G01X10376Y1336D01*
G01X10390Y1324D01*
G01X10420Y1302D01*
G01X10436Y1292D01*
G01X10452Y1283D01*
G01X10486Y1267D01*
G01X10503Y1260D01*
G01X10521Y1254D01*
G01X10557Y1244D01*
G01X10575Y1240D01*
G01X10594Y1237D01*
G01X10612Y1235D01*
G01X10631Y1234D01*
G01X10668Y1234D01*
G01X10687Y1235D01*
G01X10705Y1237D01*
G01X10724Y1240D01*
G01X10742Y1244D01*
G01X10778Y1254D01*
G01X10796Y1260D01*
G01X10813Y1267D01*
G01X10847Y1283D01*
G01X10863Y1292D01*
G01X10879Y1302D01*
G01X10909Y1324D01*
G01X10923Y1336D01*
G01X10937Y1349D01*
G01X10950Y1362D01*
G01X10963Y1376D01*
G01X10975Y1390D01*
G01X10997Y1420D01*
G01X11007Y1436D01*
G01X11016Y1452D01*
G01X11032Y1486D01*
G01X11039Y1503D01*
G01X11045Y1521D01*
G01X11055Y1557D01*
G01X11059Y1575D01*
G01X11062Y1594D01*
G01X11064Y1612D01*
G01X11065Y1631D01*
G01X11065Y1668D01*
G01X11064Y1687D01*
G01X11062Y1705D01*
G01X11059Y1724D01*
G01X11055Y1742D01*
G01X11045Y1778D01*
G01X11039Y1796D01*
G01X11032Y1813D01*
G01X11016Y1847D01*
G01X11007Y1863D01*
G01X10997Y1879D01*
G01X10975Y1909D01*
G01X10963Y1923D01*
G01X10950Y1937D01*
G01X10937Y1950D01*
G01X10923Y1963D01*
G01X10909Y1975D01*
G01X10879Y1997D01*
G01X10863Y2007D01*
G01X10847Y2016D01*
G01X10813Y2032D01*
G01X10796Y2039D01*
G01X10778Y2045D01*
G01X10742Y2055D01*
G01X10724Y2059D01*
G01X10705Y2062D01*
G01X10687Y2064D01*
G01X10668Y2065D01*
G37*
G36*
G01X16668Y1065D02*
G01X16631Y1065D01*
G01X16612Y1064D01*
G01X16594Y1062D01*
G01X16575Y1059D01*
G01X16557Y1055D01*
G01X16521Y1045D01*
G01X16503Y1039D01*
G01X16486Y1032D01*
G01X16452Y1016D01*
G01X16436Y1007D01*
G01X16420Y997D01*
G01X16390Y975D01*
G01X16376Y963D01*
G01X16362Y950D01*
G01X16349Y937D01*
G01X16336Y923D01*
G01X16324Y909D01*
G01X16302Y879D01*
G01X16292Y863D01*
G01X16283Y847D01*
G01X16267Y813D01*
G01X16260Y796D01*
G01X16254Y778D01*
G01X16244Y742D01*
G01X16240Y724D01*
G01X16237Y705D01*
G01X16235Y687D01*
G01X16234Y668D01*
G01X16234Y631D01*
G01X16235Y612D01*
G01X16237Y594D01*
G01X16240Y575D01*
G01X16244Y557D01*
G01X16254Y521D01*
G01X16260Y503D01*
G01X16267Y486D01*
G01X16283Y452D01*
G01X16292Y436D01*
G01X16302Y420D01*
G01X16324Y390D01*
G01X16336Y376D01*
G01X16349Y362D01*
G01X16362Y349D01*
G01X16376Y336D01*
G01X16390Y324D01*
G01X16420Y302D01*
G01X16436Y292D01*
G01X16452Y283D01*
G01X16486Y267D01*
G01X16503Y260D01*
G01X16521Y254D01*
G01X16557Y244D01*
G01X16575Y240D01*
G01X16594Y237D01*
G01X16612Y235D01*
G01X16631Y234D01*
G01X16668Y234D01*
G01X16687Y235D01*
G01X16705Y237D01*
G01X16724Y240D01*
G01X16742Y244D01*
G01X16778Y254D01*
G01X16796Y260D01*
G01X16813Y267D01*
G01X16847Y283D01*
G01X16863Y292D01*
G01X16879Y302D01*
G01X16909Y324D01*
G01X16923Y336D01*
G01X16937Y349D01*
G01X16950Y362D01*
G01X16963Y376D01*
G01X16975Y390D01*
G01X16997Y420D01*
G01X17007Y436D01*
G01X17016Y452D01*
G01X17032Y486D01*
G01X17039Y503D01*
G01X17045Y521D01*
G01X17055Y557D01*
G01X17059Y575D01*
G01X17062Y594D01*
G01X17064Y612D01*
G01X17065Y631D01*
G01X17065Y668D01*
G01X17064Y687D01*
G01X17062Y705D01*
G01X17059Y724D01*
G01X17055Y742D01*
G01X17045Y778D01*
G01X17039Y796D01*
G01X17032Y813D01*
G01X17016Y847D01*
G01X17007Y863D01*
G01X16997Y879D01*
G01X16975Y909D01*
G01X16963Y923D01*
G01X16950Y937D01*
G01X16937Y950D01*
G01X16923Y963D01*
G01X16909Y975D01*
G01X16879Y997D01*
G01X16863Y1007D01*
G01X16847Y1016D01*
G01X16813Y1032D01*
G01X16796Y1039D01*
G01X16778Y1045D01*
G01X16742Y1055D01*
G01X16724Y1059D01*
G01X16705Y1062D01*
G01X16687Y1064D01*
G01X16668Y1065D01*
G37*
G36*
G01X14668Y1065D02*
G01X14631Y1065D01*
G01X14612Y1064D01*
G01X14594Y1062D01*
G01X14575Y1059D01*
G01X14557Y1055D01*
G01X14521Y1045D01*
G01X14503Y1039D01*
G01X14486Y1032D01*
G01X14452Y1016D01*
G01X14436Y1007D01*
G01X14420Y997D01*
G01X14390Y975D01*
G01X14376Y963D01*
G01X14362Y950D01*
G01X14349Y937D01*
G01X14336Y923D01*
G01X14324Y909D01*
G01X14302Y879D01*
G01X14292Y863D01*
G01X14283Y847D01*
G01X14267Y813D01*
G01X14260Y796D01*
G01X14254Y778D01*
G01X14244Y742D01*
G01X14240Y724D01*
G01X14237Y705D01*
G01X14235Y687D01*
G01X14234Y668D01*
G01X14234Y631D01*
G01X14235Y612D01*
G01X14237Y594D01*
G01X14240Y575D01*
G01X14244Y557D01*
G01X14254Y521D01*
G01X14260Y503D01*
G01X14267Y486D01*
G01X14283Y452D01*
G01X14292Y436D01*
G01X14302Y420D01*
G01X14324Y390D01*
G01X14336Y376D01*
G01X14349Y362D01*
G01X14362Y349D01*
G01X14376Y336D01*
G01X14390Y324D01*
G01X14420Y302D01*
G01X14436Y292D01*
G01X14452Y283D01*
G01X14486Y267D01*
G01X14503Y260D01*
G01X14521Y254D01*
G01X14557Y244D01*
G01X14575Y240D01*
G01X14594Y237D01*
G01X14612Y235D01*
G01X14631Y234D01*
G01X14668Y234D01*
G01X14687Y235D01*
G01X14705Y237D01*
G01X14724Y240D01*
G01X14742Y244D01*
G01X14778Y254D01*
G01X14796Y260D01*
G01X14813Y267D01*
G01X14847Y283D01*
G01X14863Y292D01*
G01X14879Y302D01*
G01X14909Y324D01*
G01X14923Y336D01*
G01X14937Y349D01*
G01X14950Y362D01*
G01X14963Y376D01*
G01X14975Y390D01*
G01X14997Y420D01*
G01X15007Y436D01*
G01X15016Y452D01*
G01X15032Y486D01*
G01X15039Y503D01*
G01X15045Y521D01*
G01X15055Y557D01*
G01X15059Y575D01*
G01X15062Y594D01*
G01X15064Y612D01*
G01X15065Y631D01*
G01X15065Y668D01*
G01X15064Y687D01*
G01X15062Y705D01*
G01X15059Y724D01*
G01X15055Y742D01*
G01X15045Y778D01*
G01X15039Y796D01*
G01X15032Y813D01*
G01X15016Y847D01*
G01X15007Y863D01*
G01X14997Y879D01*
G01X14975Y909D01*
G01X14963Y923D01*
G01X14950Y937D01*
G01X14937Y950D01*
G01X14923Y963D01*
G01X14909Y975D01*
G01X14879Y997D01*
G01X14863Y1007D01*
G01X14847Y1016D01*
G01X14813Y1032D01*
G01X14796Y1039D01*
G01X14778Y1045D01*
G01X14742Y1055D01*
G01X14724Y1059D01*
G01X14705Y1062D01*
G01X14687Y1064D01*
G01X14668Y1065D01*
G37*
G36*
G01X13668Y2065D02*
G01X13631Y2065D01*
G01X13612Y2064D01*
G01X13594Y2062D01*
G01X13575Y2059D01*
G01X13557Y2055D01*
G01X13521Y2045D01*
G01X13503Y2039D01*
G01X13486Y2032D01*
G01X13452Y2016D01*
G01X13436Y2007D01*
G01X13420Y1997D01*
G01X13390Y1975D01*
G01X13376Y1963D01*
G01X13362Y1950D01*
G01X13349Y1937D01*
G01X13336Y1923D01*
G01X13324Y1909D01*
G01X13302Y1879D01*
G01X13292Y1863D01*
G01X13283Y1847D01*
G01X13267Y1813D01*
G01X13260Y1796D01*
G01X13254Y1778D01*
G01X13244Y1742D01*
G01X13240Y1724D01*
G01X13237Y1705D01*
G01X13235Y1687D01*
G01X13234Y1668D01*
G01X13234Y1631D01*
G01X13235Y1612D01*
G01X13237Y1594D01*
G01X13240Y1575D01*
G01X13244Y1557D01*
G01X13254Y1521D01*
G01X13260Y1503D01*
G01X13267Y1486D01*
G01X13283Y1452D01*
G01X13292Y1436D01*
G01X13302Y1420D01*
G01X13324Y1390D01*
G01X13336Y1376D01*
G01X13349Y1362D01*
G01X13362Y1349D01*
G01X13376Y1336D01*
G01X13390Y1324D01*
G01X13420Y1302D01*
G01X13436Y1292D01*
G01X13452Y1283D01*
G01X13486Y1267D01*
G01X13503Y1260D01*
G01X13521Y1254D01*
G01X13557Y1244D01*
G01X13575Y1240D01*
G01X13594Y1237D01*
G01X13612Y1235D01*
G01X13631Y1234D01*
G01X13668Y1234D01*
G01X13687Y1235D01*
G01X13705Y1237D01*
G01X13724Y1240D01*
G01X13742Y1244D01*
G01X13778Y1254D01*
G01X13796Y1260D01*
G01X13813Y1267D01*
G01X13847Y1283D01*
G01X13863Y1292D01*
G01X13879Y1302D01*
G01X13909Y1324D01*
G01X13923Y1336D01*
G01X13937Y1349D01*
G01X13950Y1362D01*
G01X13963Y1376D01*
G01X13975Y1390D01*
G01X13997Y1420D01*
G01X14007Y1436D01*
G01X14016Y1452D01*
G01X14032Y1486D01*
G01X14039Y1503D01*
G01X14045Y1521D01*
G01X14055Y1557D01*
G01X14059Y1575D01*
G01X14062Y1594D01*
G01X14064Y1612D01*
G01X14065Y1631D01*
G01X14065Y1668D01*
G01X14064Y1687D01*
G01X14062Y1705D01*
G01X14059Y1724D01*
G01X14055Y1742D01*
G01X14045Y1778D01*
G01X14039Y1796D01*
G01X14032Y1813D01*
G01X14016Y1847D01*
G01X14007Y1863D01*
G01X13997Y1879D01*
G01X13975Y1909D01*
G01X13963Y1923D01*
G01X13950Y1937D01*
G01X13937Y1950D01*
G01X13923Y1963D01*
G01X13909Y1975D01*
G01X13879Y1997D01*
G01X13863Y2007D01*
G01X13847Y2016D01*
G01X13813Y2032D01*
G01X13796Y2039D01*
G01X13778Y2045D01*
G01X13742Y2055D01*
G01X13724Y2059D01*
G01X13705Y2062D01*
G01X13687Y2064D01*
G01X13668Y2065D01*
G37*
G36*
G01X9668Y1065D02*
G01X9631Y1065D01*
G01X9612Y1064D01*
G01X9594Y1062D01*
G01X9575Y1059D01*
G01X9557Y1055D01*
G01X9521Y1045D01*
G01X9503Y1039D01*
G01X9486Y1032D01*
G01X9452Y1016D01*
G01X9436Y1007D01*
G01X9420Y997D01*
G01X9390Y975D01*
G01X9376Y963D01*
G01X9362Y950D01*
G01X9349Y937D01*
G01X9336Y923D01*
G01X9324Y909D01*
G01X9302Y879D01*
G01X9292Y863D01*
G01X9283Y847D01*
G01X9267Y813D01*
G01X9260Y796D01*
G01X9254Y778D01*
G01X9244Y742D01*
G01X9240Y724D01*
G01X9237Y705D01*
G01X9235Y687D01*
G01X9234Y668D01*
G01X9234Y631D01*
G01X9235Y612D01*
G01X9237Y594D01*
G01X9240Y575D01*
G01X9244Y557D01*
G01X9254Y521D01*
G01X9260Y503D01*
G01X9267Y486D01*
G01X9283Y452D01*
G01X9292Y436D01*
G01X9302Y420D01*
G01X9324Y390D01*
G01X9336Y376D01*
G01X9349Y362D01*
G01X9362Y349D01*
G01X9376Y336D01*
G01X9390Y324D01*
G01X9420Y302D01*
G01X9436Y292D01*
G01X9452Y283D01*
G01X9486Y267D01*
G01X9503Y260D01*
G01X9521Y254D01*
G01X9557Y244D01*
G01X9575Y240D01*
G01X9594Y237D01*
G01X9612Y235D01*
G01X9631Y234D01*
G01X9668Y234D01*
G01X9687Y235D01*
G01X9705Y237D01*
G01X9724Y240D01*
G01X9742Y244D01*
G01X9778Y254D01*
G01X9796Y260D01*
G01X9813Y267D01*
G01X9847Y283D01*
G01X9863Y292D01*
G01X9879Y302D01*
G01X9909Y324D01*
G01X9923Y336D01*
G01X9937Y349D01*
G01X9950Y362D01*
G01X9963Y376D01*
G01X9975Y390D01*
G01X9997Y420D01*
G01X10007Y436D01*
G01X10016Y452D01*
G01X10032Y486D01*
G01X10039Y503D01*
G01X10045Y521D01*
G01X10055Y557D01*
G01X10059Y575D01*
G01X10062Y594D01*
G01X10064Y612D01*
G01X10065Y631D01*
G01X10065Y668D01*
G01X10064Y687D01*
G01X10062Y705D01*
G01X10059Y724D01*
G01X10055Y742D01*
G01X10045Y778D01*
G01X10039Y796D01*
G01X10032Y813D01*
G01X10016Y847D01*
G01X10007Y863D01*
G01X9997Y879D01*
G01X9975Y909D01*
G01X9963Y923D01*
G01X9950Y937D01*
G01X9937Y950D01*
G01X9923Y963D01*
G01X9909Y975D01*
G01X9879Y997D01*
G01X9863Y1007D01*
G01X9847Y1016D01*
G01X9813Y1032D01*
G01X9796Y1039D01*
G01X9778Y1045D01*
G01X9742Y1055D01*
G01X9724Y1059D01*
G01X9705Y1062D01*
G01X9687Y1064D01*
G01X9668Y1065D01*
G37*
G36*
G01X6668Y2065D02*
G01X6631Y2065D01*
G01X6612Y2064D01*
G01X6594Y2062D01*
G01X6575Y2059D01*
G01X6557Y2055D01*
G01X6521Y2045D01*
G01X6503Y2039D01*
G01X6486Y2032D01*
G01X6452Y2016D01*
G01X6436Y2007D01*
G01X6420Y1997D01*
G01X6390Y1975D01*
G01X6376Y1963D01*
G01X6362Y1950D01*
G01X6349Y1937D01*
G01X6336Y1923D01*
G01X6324Y1909D01*
G01X6302Y1879D01*
G01X6292Y1863D01*
G01X6283Y1847D01*
G01X6267Y1813D01*
G01X6260Y1796D01*
G01X6254Y1778D01*
G01X6244Y1742D01*
G01X6240Y1724D01*
G01X6237Y1705D01*
G01X6235Y1687D01*
G01X6234Y1668D01*
G01X6234Y1631D01*
G01X6235Y1612D01*
G01X6237Y1594D01*
G01X6240Y1575D01*
G01X6244Y1557D01*
G01X6254Y1521D01*
G01X6260Y1503D01*
G01X6267Y1486D01*
G01X6283Y1452D01*
G01X6292Y1436D01*
G01X6302Y1420D01*
G01X6324Y1390D01*
G01X6336Y1376D01*
G01X6349Y1362D01*
G01X6362Y1349D01*
G01X6376Y1336D01*
G01X6390Y1324D01*
G01X6420Y1302D01*
G01X6436Y1292D01*
G01X6452Y1283D01*
G01X6486Y1267D01*
G01X6503Y1260D01*
G01X6521Y1254D01*
G01X6557Y1244D01*
G01X6575Y1240D01*
G01X6594Y1237D01*
G01X6612Y1235D01*
G01X6631Y1234D01*
G01X6668Y1234D01*
G01X6687Y1235D01*
G01X6705Y1237D01*
G01X6724Y1240D01*
G01X6742Y1244D01*
G01X6778Y1254D01*
G01X6796Y1260D01*
G01X6813Y1267D01*
G01X6847Y1283D01*
G01X6863Y1292D01*
G01X6879Y1302D01*
G01X6909Y1324D01*
G01X6923Y1336D01*
G01X6937Y1349D01*
G01X6950Y1362D01*
G01X6963Y1376D01*
G01X6975Y1390D01*
G01X6997Y1420D01*
G01X7007Y1436D01*
G01X7016Y1452D01*
G01X7032Y1486D01*
G01X7039Y1503D01*
G01X7045Y1521D01*
G01X7055Y1557D01*
G01X7059Y1575D01*
G01X7062Y1594D01*
G01X7064Y1612D01*
G01X7065Y1631D01*
G01X7065Y1668D01*
G01X7064Y1687D01*
G01X7062Y1705D01*
G01X7059Y1724D01*
G01X7055Y1742D01*
G01X7045Y1778D01*
G01X7039Y1796D01*
G01X7032Y1813D01*
G01X7016Y1847D01*
G01X7007Y1863D01*
G01X6997Y1879D01*
G01X6975Y1909D01*
G01X6963Y1923D01*
G01X6950Y1937D01*
G01X6937Y1950D01*
G01X6923Y1963D01*
G01X6909Y1975D01*
G01X6879Y1997D01*
G01X6863Y2007D01*
G01X6847Y2016D01*
G01X6813Y2032D01*
G01X6796Y2039D01*
G01X6778Y2045D01*
G01X6742Y2055D01*
G01X6724Y2059D01*
G01X6705Y2062D01*
G01X6687Y2064D01*
G01X6668Y2065D01*
G37*
G36*
G01X4668Y1065D02*
G01X4631Y1065D01*
G01X4612Y1064D01*
G01X4594Y1062D01*
G01X4575Y1059D01*
G01X4557Y1055D01*
G01X4521Y1045D01*
G01X4503Y1039D01*
G01X4486Y1032D01*
G01X4452Y1016D01*
G01X4436Y1007D01*
G01X4420Y997D01*
G01X4390Y975D01*
G01X4376Y963D01*
G01X4362Y950D01*
G01X4349Y937D01*
G01X4336Y923D01*
G01X4324Y909D01*
G01X4302Y879D01*
G01X4292Y863D01*
G01X4283Y847D01*
G01X4267Y813D01*
G01X4260Y796D01*
G01X4254Y778D01*
G01X4244Y742D01*
G01X4240Y724D01*
G01X4237Y705D01*
G01X4235Y687D01*
G01X4234Y668D01*
G01X4234Y631D01*
G01X4235Y612D01*
G01X4237Y594D01*
G01X4240Y575D01*
G01X4244Y557D01*
G01X4254Y521D01*
G01X4260Y503D01*
G01X4267Y486D01*
G01X4283Y452D01*
G01X4292Y436D01*
G01X4302Y420D01*
G01X4324Y390D01*
G01X4336Y376D01*
G01X4349Y362D01*
G01X4362Y349D01*
G01X4376Y336D01*
G01X4390Y324D01*
G01X4420Y302D01*
G01X4436Y292D01*
G01X4452Y283D01*
G01X4486Y267D01*
G01X4503Y260D01*
G01X4521Y254D01*
G01X4557Y244D01*
G01X4575Y240D01*
G01X4594Y237D01*
G01X4612Y235D01*
G01X4631Y234D01*
G01X4668Y234D01*
G01X4687Y235D01*
G01X4705Y237D01*
G01X4724Y240D01*
G01X4742Y244D01*
G01X4778Y254D01*
G01X4796Y260D01*
G01X4813Y267D01*
G01X4847Y283D01*
G01X4863Y292D01*
G01X4879Y302D01*
G01X4909Y324D01*
G01X4923Y336D01*
G01X4937Y349D01*
G01X4950Y362D01*
G01X4963Y376D01*
G01X4975Y390D01*
G01X4997Y420D01*
G01X5007Y436D01*
G01X5016Y452D01*
G01X5032Y486D01*
G01X5039Y503D01*
G01X5045Y521D01*
G01X5055Y557D01*
G01X5059Y575D01*
G01X5062Y594D01*
G01X5064Y612D01*
G01X5065Y631D01*
G01X5065Y668D01*
G01X5064Y687D01*
G01X5062Y705D01*
G01X5059Y724D01*
G01X5055Y742D01*
G01X5045Y778D01*
G01X5039Y796D01*
G01X5032Y813D01*
G01X5016Y847D01*
G01X5007Y863D01*
G01X4997Y879D01*
G01X4975Y909D01*
G01X4963Y923D01*
G01X4950Y937D01*
G01X4937Y950D01*
G01X4923Y963D01*
G01X4909Y975D01*
G01X4879Y997D01*
G01X4863Y1007D01*
G01X4847Y1016D01*
G01X4813Y1032D01*
G01X4796Y1039D01*
G01X4778Y1045D01*
G01X4742Y1055D01*
G01X4724Y1059D01*
G01X4705Y1062D01*
G01X4687Y1064D01*
G01X4668Y1065D01*
G37*
G36*
G01X7668Y1065D02*
G01X7631Y1065D01*
G01X7612Y1064D01*
G01X7594Y1062D01*
G01X7575Y1059D01*
G01X7557Y1055D01*
G01X7521Y1045D01*
G01X7503Y1039D01*
G01X7486Y1032D01*
G01X7452Y1016D01*
G01X7436Y1007D01*
G01X7420Y997D01*
G01X7390Y975D01*
G01X7376Y963D01*
G01X7362Y950D01*
G01X7349Y937D01*
G01X7336Y923D01*
G01X7324Y909D01*
G01X7302Y879D01*
G01X7292Y863D01*
G01X7283Y847D01*
G01X7267Y813D01*
G01X7260Y796D01*
G01X7254Y778D01*
G01X7244Y742D01*
G01X7240Y724D01*
G01X7237Y705D01*
G01X7235Y687D01*
G01X7234Y668D01*
G01X7234Y631D01*
G01X7235Y612D01*
G01X7237Y594D01*
G01X7240Y575D01*
G01X7244Y557D01*
G01X7254Y521D01*
G01X7260Y503D01*
G01X7267Y486D01*
G01X7283Y452D01*
G01X7292Y436D01*
G01X7302Y420D01*
G01X7324Y390D01*
G01X7336Y376D01*
G01X7349Y362D01*
G01X7362Y349D01*
G01X7376Y336D01*
G01X7390Y324D01*
G01X7420Y302D01*
G01X7436Y292D01*
G01X7452Y283D01*
G01X7486Y267D01*
G01X7503Y260D01*
G01X7521Y254D01*
G01X7557Y244D01*
G01X7575Y240D01*
G01X7594Y237D01*
G01X7612Y235D01*
G01X7631Y234D01*
G01X7668Y234D01*
G01X7687Y235D01*
G01X7705Y237D01*
G01X7724Y240D01*
G01X7742Y244D01*
G01X7778Y254D01*
G01X7796Y260D01*
G01X7813Y267D01*
G01X7847Y283D01*
G01X7863Y292D01*
G01X7879Y302D01*
G01X7909Y324D01*
G01X7923Y336D01*
G01X7937Y349D01*
G01X7950Y362D01*
G01X7963Y376D01*
G01X7975Y390D01*
G01X7997Y420D01*
G01X8007Y436D01*
G01X8016Y452D01*
G01X8032Y486D01*
G01X8039Y503D01*
G01X8045Y521D01*
G01X8055Y557D01*
G01X8059Y575D01*
G01X8062Y594D01*
G01X8064Y612D01*
G01X8065Y631D01*
G01X8065Y668D01*
G01X8064Y687D01*
G01X8062Y705D01*
G01X8059Y724D01*
G01X8055Y742D01*
G01X8045Y778D01*
G01X8039Y796D01*
G01X8032Y813D01*
G01X8016Y847D01*
G01X8007Y863D01*
G01X7997Y879D01*
G01X7975Y909D01*
G01X7963Y923D01*
G01X7950Y937D01*
G01X7937Y950D01*
G01X7923Y963D01*
G01X7909Y975D01*
G01X7879Y997D01*
G01X7863Y1007D01*
G01X7847Y1016D01*
G01X7813Y1032D01*
G01X7796Y1039D01*
G01X7778Y1045D01*
G01X7742Y1055D01*
G01X7724Y1059D01*
G01X7705Y1062D01*
G01X7687Y1064D01*
G01X7668Y1065D01*
G37*
G36*
G01X11668Y2065D02*
G01X11631Y2065D01*
G01X11612Y2064D01*
G01X11594Y2062D01*
G01X11575Y2059D01*
G01X11557Y2055D01*
G01X11521Y2045D01*
G01X11503Y2039D01*
G01X11486Y2032D01*
G01X11452Y2016D01*
G01X11436Y2007D01*
G01X11420Y1997D01*
G01X11390Y1975D01*
G01X11376Y1963D01*
G01X11362Y1950D01*
G01X11349Y1937D01*
G01X11336Y1923D01*
G01X11324Y1909D01*
G01X11302Y1879D01*
G01X11292Y1863D01*
G01X11283Y1847D01*
G01X11267Y1813D01*
G01X11260Y1796D01*
G01X11254Y1778D01*
G01X11244Y1742D01*
G01X11240Y1724D01*
G01X11237Y1705D01*
G01X11235Y1687D01*
G01X11234Y1668D01*
G01X11234Y1631D01*
G01X11235Y1612D01*
G01X11237Y1594D01*
G01X11240Y1575D01*
G01X11244Y1557D01*
G01X11254Y1521D01*
G01X11260Y1503D01*
G01X11267Y1486D01*
G01X11283Y1452D01*
G01X11292Y1436D01*
G01X11302Y1420D01*
G01X11324Y1390D01*
G01X11336Y1376D01*
G01X11349Y1362D01*
G01X11362Y1349D01*
G01X11376Y1336D01*
G01X11390Y1324D01*
G01X11420Y1302D01*
G01X11436Y1292D01*
G01X11452Y1283D01*
G01X11486Y1267D01*
G01X11503Y1260D01*
G01X11521Y1254D01*
G01X11557Y1244D01*
G01X11575Y1240D01*
G01X11594Y1237D01*
G01X11612Y1235D01*
G01X11631Y1234D01*
G01X11668Y1234D01*
G01X11687Y1235D01*
G01X11705Y1237D01*
G01X11724Y1240D01*
G01X11742Y1244D01*
G01X11778Y1254D01*
G01X11796Y1260D01*
G01X11813Y1267D01*
G01X11847Y1283D01*
G01X11863Y1292D01*
G01X11879Y1302D01*
G01X11909Y1324D01*
G01X11923Y1336D01*
G01X11937Y1349D01*
G01X11950Y1362D01*
G01X11963Y1376D01*
G01X11975Y1390D01*
G01X11997Y1420D01*
G01X12007Y1436D01*
G01X12016Y1452D01*
G01X12032Y1486D01*
G01X12039Y1503D01*
G01X12045Y1521D01*
G01X12055Y1557D01*
G01X12059Y1575D01*
G01X12062Y1594D01*
G01X12064Y1612D01*
G01X12065Y1631D01*
G01X12065Y1668D01*
G01X12064Y1687D01*
G01X12062Y1705D01*
G01X12059Y1724D01*
G01X12055Y1742D01*
G01X12045Y1778D01*
G01X12039Y1796D01*
G01X12032Y1813D01*
G01X12016Y1847D01*
G01X12007Y1863D01*
G01X11997Y1879D01*
G01X11975Y1909D01*
G01X11963Y1923D01*
G01X11950Y1937D01*
G01X11937Y1950D01*
G01X11923Y1963D01*
G01X11909Y1975D01*
G01X11879Y1997D01*
G01X11863Y2007D01*
G01X11847Y2016D01*
G01X11813Y2032D01*
G01X11796Y2039D01*
G01X11778Y2045D01*
G01X11742Y2055D01*
G01X11724Y2059D01*
G01X11705Y2062D01*
G01X11687Y2064D01*
G01X11668Y2065D01*
G37*
G36*
G01X4668Y2065D02*
G01X4631Y2065D01*
G01X4612Y2064D01*
G01X4594Y2062D01*
G01X4575Y2059D01*
G01X4557Y2055D01*
G01X4521Y2045D01*
G01X4503Y2039D01*
G01X4486Y2032D01*
G01X4452Y2016D01*
G01X4436Y2007D01*
G01X4420Y1997D01*
G01X4390Y1975D01*
G01X4376Y1963D01*
G01X4362Y1950D01*
G01X4349Y1937D01*
G01X4336Y1923D01*
G01X4324Y1909D01*
G01X4302Y1879D01*
G01X4292Y1863D01*
G01X4283Y1847D01*
G01X4267Y1813D01*
G01X4260Y1796D01*
G01X4254Y1778D01*
G01X4244Y1742D01*
G01X4240Y1724D01*
G01X4237Y1705D01*
G01X4235Y1687D01*
G01X4234Y1668D01*
G01X4234Y1631D01*
G01X4235Y1612D01*
G01X4237Y1594D01*
G01X4240Y1575D01*
G01X4244Y1557D01*
G01X4254Y1521D01*
G01X4260Y1503D01*
G01X4267Y1486D01*
G01X4283Y1452D01*
G01X4292Y1436D01*
G01X4302Y1420D01*
G01X4324Y1390D01*
G01X4336Y1376D01*
G01X4349Y1362D01*
G01X4362Y1349D01*
G01X4376Y1336D01*
G01X4390Y1324D01*
G01X4420Y1302D01*
G01X4436Y1292D01*
G01X4452Y1283D01*
G01X4486Y1267D01*
G01X4503Y1260D01*
G01X4521Y1254D01*
G01X4557Y1244D01*
G01X4575Y1240D01*
G01X4594Y1237D01*
G01X4612Y1235D01*
G01X4631Y1234D01*
G01X4668Y1234D01*
G01X4687Y1235D01*
G01X4705Y1237D01*
G01X4724Y1240D01*
G01X4742Y1244D01*
G01X4778Y1254D01*
G01X4796Y1260D01*
G01X4813Y1267D01*
G01X4847Y1283D01*
G01X4863Y1292D01*
G01X4879Y1302D01*
G01X4909Y1324D01*
G01X4923Y1336D01*
G01X4937Y1349D01*
G01X4950Y1362D01*
G01X4963Y1376D01*
G01X4975Y1390D01*
G01X4997Y1420D01*
G01X5007Y1436D01*
G01X5016Y1452D01*
G01X5032Y1486D01*
G01X5039Y1503D01*
G01X5045Y1521D01*
G01X5055Y1557D01*
G01X5059Y1575D01*
G01X5062Y1594D01*
G01X5064Y1612D01*
G01X5065Y1631D01*
G01X5065Y1668D01*
G01X5064Y1687D01*
G01X5062Y1705D01*
G01X5059Y1724D01*
G01X5055Y1742D01*
G01X5045Y1778D01*
G01X5039Y1796D01*
G01X5032Y1813D01*
G01X5016Y1847D01*
G01X5007Y1863D01*
G01X4997Y1879D01*
G01X4975Y1909D01*
G01X4963Y1923D01*
G01X4950Y1937D01*
G01X4937Y1950D01*
G01X4923Y1963D01*
G01X4909Y1975D01*
G01X4879Y1997D01*
G01X4863Y2007D01*
G01X4847Y2016D01*
G01X4813Y2032D01*
G01X4796Y2039D01*
G01X4778Y2045D01*
G01X4742Y2055D01*
G01X4724Y2059D01*
G01X4705Y2062D01*
G01X4687Y2064D01*
G01X4668Y2065D01*
G37*
G36*
G01X12668Y1065D02*
G01X12631Y1065D01*
G01X12612Y1064D01*
G01X12594Y1062D01*
G01X12575Y1059D01*
G01X12557Y1055D01*
G01X12521Y1045D01*
G01X12503Y1039D01*
G01X12486Y1032D01*
G01X12452Y1016D01*
G01X12436Y1007D01*
G01X12420Y997D01*
G01X12390Y975D01*
G01X12376Y963D01*
G01X12362Y950D01*
G01X12349Y937D01*
G01X12336Y923D01*
G01X12324Y909D01*
G01X12302Y879D01*
G01X12292Y863D01*
G01X12283Y847D01*
G01X12267Y813D01*
G01X12260Y796D01*
G01X12254Y778D01*
G01X12244Y742D01*
G01X12240Y724D01*
G01X12237Y705D01*
G01X12235Y687D01*
G01X12234Y668D01*
G01X12234Y631D01*
G01X12235Y612D01*
G01X12237Y594D01*
G01X12240Y575D01*
G01X12244Y557D01*
G01X12254Y521D01*
G01X12260Y503D01*
G01X12267Y486D01*
G01X12283Y452D01*
G01X12292Y436D01*
G01X12302Y420D01*
G01X12324Y390D01*
G01X12336Y376D01*
G01X12349Y362D01*
G01X12362Y349D01*
G01X12376Y336D01*
G01X12390Y324D01*
G01X12420Y302D01*
G01X12436Y292D01*
G01X12452Y283D01*
G01X12486Y267D01*
G01X12503Y260D01*
G01X12521Y254D01*
G01X12557Y244D01*
G01X12575Y240D01*
G01X12594Y237D01*
G01X12612Y235D01*
G01X12631Y234D01*
G01X12668Y234D01*
G01X12687Y235D01*
G01X12705Y237D01*
G01X12724Y240D01*
G01X12742Y244D01*
G01X12778Y254D01*
G01X12796Y260D01*
G01X12813Y267D01*
G01X12847Y283D01*
G01X12863Y292D01*
G01X12879Y302D01*
G01X12909Y324D01*
G01X12923Y336D01*
G01X12937Y349D01*
G01X12950Y362D01*
G01X12963Y376D01*
G01X12975Y390D01*
G01X12997Y420D01*
G01X13007Y436D01*
G01X13016Y452D01*
G01X13032Y486D01*
G01X13039Y503D01*
G01X13045Y521D01*
G01X13055Y557D01*
G01X13059Y575D01*
G01X13062Y594D01*
G01X13064Y612D01*
G01X13065Y631D01*
G01X13065Y668D01*
G01X13064Y687D01*
G01X13062Y705D01*
G01X13059Y724D01*
G01X13055Y742D01*
G01X13045Y778D01*
G01X13039Y796D01*
G01X13032Y813D01*
G01X13016Y847D01*
G01X13007Y863D01*
G01X12997Y879D01*
G01X12975Y909D01*
G01X12963Y923D01*
G01X12950Y937D01*
G01X12937Y950D01*
G01X12923Y963D01*
G01X12909Y975D01*
G01X12879Y997D01*
G01X12863Y1007D01*
G01X12847Y1016D01*
G01X12813Y1032D01*
G01X12796Y1039D01*
G01X12778Y1045D01*
G01X12742Y1055D01*
G01X12724Y1059D01*
G01X12705Y1062D01*
G01X12687Y1064D01*
G01X12668Y1065D01*
G37*
G36*
G01X11668Y1065D02*
G01X11631Y1065D01*
G01X11612Y1064D01*
G01X11594Y1062D01*
G01X11575Y1059D01*
G01X11557Y1055D01*
G01X11521Y1045D01*
G01X11503Y1039D01*
G01X11486Y1032D01*
G01X11452Y1016D01*
G01X11436Y1007D01*
G01X11420Y997D01*
G01X11390Y975D01*
G01X11376Y963D01*
G01X11362Y950D01*
G01X11349Y937D01*
G01X11336Y923D01*
G01X11324Y909D01*
G01X11302Y879D01*
G01X11292Y863D01*
G01X11283Y847D01*
G01X11267Y813D01*
G01X11260Y796D01*
G01X11254Y778D01*
G01X11244Y742D01*
G01X11240Y724D01*
G01X11237Y705D01*
G01X11235Y687D01*
G01X11234Y668D01*
G01X11234Y631D01*
G01X11235Y612D01*
G01X11237Y594D01*
G01X11240Y575D01*
G01X11244Y557D01*
G01X11254Y521D01*
G01X11260Y503D01*
G01X11267Y486D01*
G01X11283Y452D01*
G01X11292Y436D01*
G01X11302Y420D01*
G01X11324Y390D01*
G01X11336Y376D01*
G01X11349Y362D01*
G01X11362Y349D01*
G01X11376Y336D01*
G01X11390Y324D01*
G01X11420Y302D01*
G01X11436Y292D01*
G01X11452Y283D01*
G01X11486Y267D01*
G01X11503Y260D01*
G01X11521Y254D01*
G01X11557Y244D01*
G01X11575Y240D01*
G01X11594Y237D01*
G01X11612Y235D01*
G01X11631Y234D01*
G01X11668Y234D01*
G01X11687Y235D01*
G01X11705Y237D01*
G01X11724Y240D01*
G01X11742Y244D01*
G01X11778Y254D01*
G01X11796Y260D01*
G01X11813Y267D01*
G01X11847Y283D01*
G01X11863Y292D01*
G01X11879Y302D01*
G01X11909Y324D01*
G01X11923Y336D01*
G01X11937Y349D01*
G01X11950Y362D01*
G01X11963Y376D01*
G01X11975Y390D01*
G01X11997Y420D01*
G01X12007Y436D01*
G01X12016Y452D01*
G01X12032Y486D01*
G01X12039Y503D01*
G01X12045Y521D01*
G01X12055Y557D01*
G01X12059Y575D01*
G01X12062Y594D01*
G01X12064Y612D01*
G01X12065Y631D01*
G01X12065Y668D01*
G01X12064Y687D01*
G01X12062Y705D01*
G01X12059Y724D01*
G01X12055Y742D01*
G01X12045Y778D01*
G01X12039Y796D01*
G01X12032Y813D01*
G01X12016Y847D01*
G01X12007Y863D01*
G01X11997Y879D01*
G01X11975Y909D01*
G01X11963Y923D01*
G01X11950Y937D01*
G01X11937Y950D01*
G01X11923Y963D01*
G01X11909Y975D01*
G01X11879Y997D01*
G01X11863Y1007D01*
G01X11847Y1016D01*
G01X11813Y1032D01*
G01X11796Y1039D01*
G01X11778Y1045D01*
G01X11742Y1055D01*
G01X11724Y1059D01*
G01X11705Y1062D01*
G01X11687Y1064D01*
G01X11668Y1065D01*
G37*
G36*
G01X5668Y2065D02*
G01X5631Y2065D01*
G01X5612Y2064D01*
G01X5594Y2062D01*
G01X5575Y2059D01*
G01X5557Y2055D01*
G01X5521Y2045D01*
G01X5503Y2039D01*
G01X5486Y2032D01*
G01X5452Y2016D01*
G01X5436Y2007D01*
G01X5420Y1997D01*
G01X5390Y1975D01*
G01X5376Y1963D01*
G01X5362Y1950D01*
G01X5349Y1937D01*
G01X5336Y1923D01*
G01X5324Y1909D01*
G01X5302Y1879D01*
G01X5292Y1863D01*
G01X5283Y1847D01*
G01X5267Y1813D01*
G01X5260Y1796D01*
G01X5254Y1778D01*
G01X5244Y1742D01*
G01X5240Y1724D01*
G01X5237Y1705D01*
G01X5235Y1687D01*
G01X5234Y1668D01*
G01X5234Y1631D01*
G01X5235Y1612D01*
G01X5237Y1594D01*
G01X5240Y1575D01*
G01X5244Y1557D01*
G01X5254Y1521D01*
G01X5260Y1503D01*
G01X5267Y1486D01*
G01X5283Y1452D01*
G01X5292Y1436D01*
G01X5302Y1420D01*
G01X5324Y1390D01*
G01X5336Y1376D01*
G01X5349Y1362D01*
G01X5362Y1349D01*
G01X5376Y1336D01*
G01X5390Y1324D01*
G01X5420Y1302D01*
G01X5436Y1292D01*
G01X5452Y1283D01*
G01X5486Y1267D01*
G01X5503Y1260D01*
G01X5521Y1254D01*
G01X5557Y1244D01*
G01X5575Y1240D01*
G01X5594Y1237D01*
G01X5612Y1235D01*
G01X5631Y1234D01*
G01X5668Y1234D01*
G01X5687Y1235D01*
G01X5705Y1237D01*
G01X5724Y1240D01*
G01X5742Y1244D01*
G01X5778Y1254D01*
G01X5796Y1260D01*
G01X5813Y1267D01*
G01X5847Y1283D01*
G01X5863Y1292D01*
G01X5879Y1302D01*
G01X5909Y1324D01*
G01X5923Y1336D01*
G01X5937Y1349D01*
G01X5950Y1362D01*
G01X5963Y1376D01*
G01X5975Y1390D01*
G01X5997Y1420D01*
G01X6007Y1436D01*
G01X6016Y1452D01*
G01X6032Y1486D01*
G01X6039Y1503D01*
G01X6045Y1521D01*
G01X6055Y1557D01*
G01X6059Y1575D01*
G01X6062Y1594D01*
G01X6064Y1612D01*
G01X6065Y1631D01*
G01X6065Y1668D01*
G01X6064Y1687D01*
G01X6062Y1705D01*
G01X6059Y1724D01*
G01X6055Y1742D01*
G01X6045Y1778D01*
G01X6039Y1796D01*
G01X6032Y1813D01*
G01X6016Y1847D01*
G01X6007Y1863D01*
G01X5997Y1879D01*
G01X5975Y1909D01*
G01X5963Y1923D01*
G01X5950Y1937D01*
G01X5937Y1950D01*
G01X5923Y1963D01*
G01X5909Y1975D01*
G01X5879Y1997D01*
G01X5863Y2007D01*
G01X5847Y2016D01*
G01X5813Y2032D01*
G01X5796Y2039D01*
G01X5778Y2045D01*
G01X5742Y2055D01*
G01X5724Y2059D01*
G01X5705Y2062D01*
G01X5687Y2064D01*
G01X5668Y2065D01*
G37*
G36*
G01X12668Y2065D02*
G01X12631Y2065D01*
G01X12612Y2064D01*
G01X12594Y2062D01*
G01X12575Y2059D01*
G01X12557Y2055D01*
G01X12521Y2045D01*
G01X12503Y2039D01*
G01X12486Y2032D01*
G01X12452Y2016D01*
G01X12436Y2007D01*
G01X12420Y1997D01*
G01X12390Y1975D01*
G01X12376Y1963D01*
G01X12362Y1950D01*
G01X12349Y1937D01*
G01X12336Y1923D01*
G01X12324Y1909D01*
G01X12302Y1879D01*
G01X12292Y1863D01*
G01X12283Y1847D01*
G01X12267Y1813D01*
G01X12260Y1796D01*
G01X12254Y1778D01*
G01X12244Y1742D01*
G01X12240Y1724D01*
G01X12237Y1705D01*
G01X12235Y1687D01*
G01X12234Y1668D01*
G01X12234Y1631D01*
G01X12235Y1612D01*
G01X12237Y1594D01*
G01X12240Y1575D01*
G01X12244Y1557D01*
G01X12254Y1521D01*
G01X12260Y1503D01*
G01X12267Y1486D01*
G01X12283Y1452D01*
G01X12292Y1436D01*
G01X12302Y1420D01*
G01X12324Y1390D01*
G01X12336Y1376D01*
G01X12349Y1362D01*
G01X12362Y1349D01*
G01X12376Y1336D01*
G01X12390Y1324D01*
G01X12420Y1302D01*
G01X12436Y1292D01*
G01X12452Y1283D01*
G01X12486Y1267D01*
G01X12503Y1260D01*
G01X12521Y1254D01*
G01X12557Y1244D01*
G01X12575Y1240D01*
G01X12594Y1237D01*
G01X12612Y1235D01*
G01X12631Y1234D01*
G01X12668Y1234D01*
G01X12687Y1235D01*
G01X12705Y1237D01*
G01X12724Y1240D01*
G01X12742Y1244D01*
G01X12778Y1254D01*
G01X12796Y1260D01*
G01X12813Y1267D01*
G01X12847Y1283D01*
G01X12863Y1292D01*
G01X12879Y1302D01*
G01X12909Y1324D01*
G01X12923Y1336D01*
G01X12937Y1349D01*
G01X12950Y1362D01*
G01X12963Y1376D01*
G01X12975Y1390D01*
G01X12997Y1420D01*
G01X13007Y1436D01*
G01X13016Y1452D01*
G01X13032Y1486D01*
G01X13039Y1503D01*
G01X13045Y1521D01*
G01X13055Y1557D01*
G01X13059Y1575D01*
G01X13062Y1594D01*
G01X13064Y1612D01*
G01X13065Y1631D01*
G01X13065Y1668D01*
G01X13064Y1687D01*
G01X13062Y1705D01*
G01X13059Y1724D01*
G01X13055Y1742D01*
G01X13045Y1778D01*
G01X13039Y1796D01*
G01X13032Y1813D01*
G01X13016Y1847D01*
G01X13007Y1863D01*
G01X12997Y1879D01*
G01X12975Y1909D01*
G01X12963Y1923D01*
G01X12950Y1937D01*
G01X12937Y1950D01*
G01X12923Y1963D01*
G01X12909Y1975D01*
G01X12879Y1997D01*
G01X12863Y2007D01*
G01X12847Y2016D01*
G01X12813Y2032D01*
G01X12796Y2039D01*
G01X12778Y2045D01*
G01X12742Y2055D01*
G01X12724Y2059D01*
G01X12705Y2062D01*
G01X12687Y2064D01*
G01X12668Y2065D01*
G37*
G36*
G01X6668Y1065D02*
G01X6631Y1065D01*
G01X6612Y1064D01*
G01X6594Y1062D01*
G01X6575Y1059D01*
G01X6557Y1055D01*
G01X6521Y1045D01*
G01X6503Y1039D01*
G01X6486Y1032D01*
G01X6452Y1016D01*
G01X6436Y1007D01*
G01X6420Y997D01*
G01X6390Y975D01*
G01X6376Y963D01*
G01X6362Y950D01*
G01X6349Y937D01*
G01X6336Y923D01*
G01X6324Y909D01*
G01X6302Y879D01*
G01X6292Y863D01*
G01X6283Y847D01*
G01X6267Y813D01*
G01X6260Y796D01*
G01X6254Y778D01*
G01X6244Y742D01*
G01X6240Y724D01*
G01X6237Y705D01*
G01X6235Y687D01*
G01X6234Y668D01*
G01X6234Y631D01*
G01X6235Y612D01*
G01X6237Y594D01*
G01X6240Y575D01*
G01X6244Y557D01*
G01X6254Y521D01*
G01X6260Y503D01*
G01X6267Y486D01*
G01X6283Y452D01*
G01X6292Y436D01*
G01X6302Y420D01*
G01X6324Y390D01*
G01X6336Y376D01*
G01X6349Y362D01*
G01X6362Y349D01*
G01X6376Y336D01*
G01X6390Y324D01*
G01X6420Y302D01*
G01X6436Y292D01*
G01X6452Y283D01*
G01X6486Y267D01*
G01X6503Y260D01*
G01X6521Y254D01*
G01X6557Y244D01*
G01X6575Y240D01*
G01X6594Y237D01*
G01X6612Y235D01*
G01X6631Y234D01*
G01X6668Y234D01*
G01X6687Y235D01*
G01X6705Y237D01*
G01X6724Y240D01*
G01X6742Y244D01*
G01X6778Y254D01*
G01X6796Y260D01*
G01X6813Y267D01*
G01X6847Y283D01*
G01X6863Y292D01*
G01X6879Y302D01*
G01X6909Y324D01*
G01X6923Y336D01*
G01X6937Y349D01*
G01X6950Y362D01*
G01X6963Y376D01*
G01X6975Y390D01*
G01X6997Y420D01*
G01X7007Y436D01*
G01X7016Y452D01*
G01X7032Y486D01*
G01X7039Y503D01*
G01X7045Y521D01*
G01X7055Y557D01*
G01X7059Y575D01*
G01X7062Y594D01*
G01X7064Y612D01*
G01X7065Y631D01*
G01X7065Y668D01*
G01X7064Y687D01*
G01X7062Y705D01*
G01X7059Y724D01*
G01X7055Y742D01*
G01X7045Y778D01*
G01X7039Y796D01*
G01X7032Y813D01*
G01X7016Y847D01*
G01X7007Y863D01*
G01X6997Y879D01*
G01X6975Y909D01*
G01X6963Y923D01*
G01X6950Y937D01*
G01X6937Y950D01*
G01X6923Y963D01*
G01X6909Y975D01*
G01X6879Y997D01*
G01X6863Y1007D01*
G01X6847Y1016D01*
G01X6813Y1032D01*
G01X6796Y1039D01*
G01X6778Y1045D01*
G01X6742Y1055D01*
G01X6724Y1059D01*
G01X6705Y1062D01*
G01X6687Y1064D01*
G01X6668Y1065D01*
G37*
G36*
G01X733Y5094D02*
G01X355Y5094D01*
G01X337Y5090D01*
G01X319Y5084D01*
G01X311Y5079D01*
G01X304Y5074D01*
G01X296Y5068D01*
G01X284Y5054D01*
G01X274Y5038D01*
G01X270Y5030D01*
G01X267Y5021D01*
G01X265Y5012D01*
G01X264Y5003D01*
G01X263Y4993D01*
G01X263Y4821D01*
G01X733Y4821D01*
G01X733Y5094D01*
G37*
G36*
G01X733Y4378D02*
G01X263Y4378D01*
G01X263Y4206D01*
G01X264Y4196D01*
G01X265Y4187D01*
G01X267Y4178D01*
G01X270Y4169D01*
G01X274Y4161D01*
G01X284Y4145D01*
G01X296Y4131D01*
G01X304Y4125D01*
G01X311Y4120D01*
G01X319Y4115D01*
G01X337Y4109D01*
G01X355Y4105D01*
G01X733Y4105D01*
G01X733Y4378D01*
G37*
G36*
G01X2040Y4378D02*
G01X1571Y4378D01*
G01X1571Y4105D01*
G01X1949Y4105D01*
G01X1967Y4109D01*
G01X1976Y4112D01*
G01X1984Y4115D01*
G01X2000Y4125D01*
G01X2007Y4131D01*
G01X2014Y4138D01*
G01X2020Y4145D01*
G01X2030Y4161D01*
G01X2033Y4169D01*
G01X2039Y4187D01*
G01X2040Y4196D01*
G01X2040Y4378D01*
G37*
G36*
G01X1949Y5094D02*
G01X1571Y5094D01*
G01X1571Y4821D01*
G01X2040Y4821D01*
G01X2040Y5003D01*
G01X2039Y5012D01*
G01X2033Y5030D01*
G01X2030Y5038D01*
G01X2020Y5054D01*
G01X2014Y5061D01*
G01X2007Y5068D01*
G01X2000Y5074D01*
G01X1984Y5084D01*
G01X1976Y5087D01*
G01X1967Y5090D01*
G01X1949Y5094D01*
G37*
G36*
G01X18661Y5196D02*
G01X18430Y5196D01*
G01X18430Y4943D01*
G01X18762Y4943D01*
G01X18762Y5104D01*
G01X18761Y5113D01*
G01X18752Y5140D01*
G01X18742Y5156D01*
G01X18736Y5163D01*
G01X18722Y5175D01*
G01X18714Y5181D01*
G01X18698Y5189D01*
G01X18689Y5192D01*
G01X18680Y5194D01*
G01X18671Y5195D01*
G01X18661Y5196D01*
G37*
G36*
G01X17869Y5196D02*
G01X17638Y5196D01*
G01X17628Y5195D01*
G01X17619Y5194D01*
G01X17610Y5192D01*
G01X17601Y5189D01*
G01X17585Y5181D01*
G01X17577Y5175D01*
G01X17563Y5163D01*
G01X17557Y5156D01*
G01X17547Y5140D01*
G01X17538Y5113D01*
G01X17537Y5104D01*
G01X17537Y4943D01*
G01X17869Y4943D01*
G01X17869Y5196D01*
G37*
G36*
G01X13012Y3356D02*
G01X12680Y3356D01*
G01X12680Y3103D01*
G01X12911Y3103D01*
G01X12921Y3104D01*
G01X12930Y3105D01*
G01X12939Y3107D01*
G01X12948Y3110D01*
G01X12964Y3118D01*
G01X12972Y3124D01*
G01X12986Y3136D01*
G01X12992Y3143D01*
G01X13002Y3159D01*
G01X13011Y3186D01*
G01X13012Y3195D01*
G01X13012Y3356D01*
G37*
G36*
G01X12119Y3356D02*
G01X11787Y3356D01*
G01X11787Y3195D01*
G01X11788Y3186D01*
G01X11797Y3159D01*
G01X11807Y3143D01*
G01X11813Y3136D01*
G01X11827Y3124D01*
G01X11835Y3118D01*
G01X11851Y3110D01*
G01X11860Y3107D01*
G01X11869Y3105D01*
G01X11878Y3104D01*
G01X11888Y3103D01*
G01X12119Y3103D01*
G01X12119Y3356D01*
G37*
G36*
G01X18762Y4538D02*
G01X18430Y4538D01*
G01X18430Y4285D01*
G01X18661Y4285D01*
G01X18671Y4286D01*
G01X18680Y4287D01*
G01X18689Y4289D01*
G01X18698Y4292D01*
G01X18714Y4300D01*
G01X18722Y4306D01*
G01X18736Y4318D01*
G01X18742Y4325D01*
G01X18752Y4341D01*
G01X18761Y4368D01*
G01X18762Y4377D01*
G01X18762Y4538D01*
G37*
G36*
G01X12119Y4014D02*
G01X11888Y4014D01*
G01X11878Y4013D01*
G01X11869Y4012D01*
G01X11860Y4010D01*
G01X11851Y4007D01*
G01X11835Y3999D01*
G01X11827Y3993D01*
G01X11813Y3981D01*
G01X11807Y3974D01*
G01X11797Y3958D01*
G01X11788Y3931D01*
G01X11787Y3922D01*
G01X11787Y3761D01*
G01X12119Y3761D01*
G01X12119Y4014D01*
G37*
G36*
G01X12911Y4014D02*
G01X12680Y4014D01*
G01X12680Y3761D01*
G01X13012Y3761D01*
G01X13012Y3922D01*
G01X13011Y3931D01*
G01X13002Y3958D01*
G01X12992Y3974D01*
G01X12986Y3981D01*
G01X12972Y3993D01*
G01X12964Y3999D01*
G01X12948Y4007D01*
G01X12939Y4010D01*
G01X12930Y4012D01*
G01X12921Y4013D01*
G01X12911Y4014D01*
G37*
G36*
G01X17869Y4538D02*
G01X17537Y4538D01*
G01X17537Y4377D01*
G01X17538Y4368D01*
G01X17547Y4341D01*
G01X17557Y4325D01*
G01X17563Y4318D01*
G01X17577Y4306D01*
G01X17585Y4300D01*
G01X17601Y4292D01*
G01X17610Y4289D01*
G01X17619Y4287D01*
G01X17628Y4286D01*
G01X17638Y4285D01*
G01X17869Y4285D01*
G01X17869Y4538D01*
G37*
G36*
G01X6457Y3457D02*
G01X6214Y3457D01*
G01X6214Y3306D01*
G01X6216Y3296D01*
G01X6218Y3287D01*
G01X6221Y3278D01*
G01X6224Y3270D01*
G01X6234Y3254D01*
G01X6240Y3247D01*
G01X6247Y3240D01*
G01X6254Y3234D01*
G01X6270Y3224D01*
G01X6278Y3221D01*
G01X6287Y3218D01*
G01X6296Y3216D01*
G01X6306Y3214D01*
G01X6457Y3214D01*
G01X6457Y3457D01*
G37*
G36*
G01X6457Y4085D02*
G01X6306Y4085D01*
G01X6296Y4083D01*
G01X6287Y4081D01*
G01X6278Y4078D01*
G01X6270Y4075D01*
G01X6254Y4065D01*
G01X6247Y4059D01*
G01X6240Y4052D01*
G01X6234Y4045D01*
G01X6224Y4029D01*
G01X6221Y4021D01*
G01X6218Y4012D01*
G01X6216Y4003D01*
G01X6214Y3993D01*
G01X6214Y3842D01*
G01X6457Y3842D01*
G01X6457Y4085D01*
G37*
G36*
G01X6993Y4085D02*
G01X6842Y4085D01*
G01X6842Y3842D01*
G01X7085Y3842D01*
G01X7085Y3993D01*
G01X7083Y4003D01*
G01X7081Y4012D01*
G01X7078Y4021D01*
G01X7075Y4029D01*
G01X7065Y4045D01*
G01X7059Y4052D01*
G01X7052Y4059D01*
G01X7045Y4065D01*
G01X7029Y4075D01*
G01X7021Y4078D01*
G01X7012Y4081D01*
G01X7003Y4083D01*
G01X6993Y4085D01*
G37*
G36*
G01X7085Y3457D02*
G01X6842Y3457D01*
G01X6842Y3214D01*
G01X6993Y3214D01*
G01X7003Y3216D01*
G01X7012Y3218D01*
G01X7021Y3221D01*
G01X7029Y3224D01*
G01X7045Y3234D01*
G01X7052Y3240D01*
G01X7059Y3247D01*
G01X7065Y3254D01*
G01X7075Y3270D01*
G01X7078Y3278D01*
G01X7081Y3287D01*
G01X7083Y3296D01*
G01X7085Y3306D01*
G01X7085Y3457D01*
G37*
G36*
G01X14131Y2778D02*
G01X13937Y2778D01*
G01X13937Y2505D01*
G01X14040Y2505D01*
G01X14058Y2509D01*
G01X14067Y2512D01*
G01X14075Y2515D01*
G01X14091Y2525D01*
G01X14098Y2531D01*
G01X14105Y2538D01*
G01X14111Y2545D01*
G01X14121Y2561D01*
G01X14124Y2569D01*
G01X14130Y2587D01*
G01X14131Y2596D01*
G01X14131Y2778D01*
G37*
G36*
G01X13651Y2778D02*
G01X13457Y2778D01*
G01X13457Y2596D01*
G01X13458Y2587D01*
G01X13464Y2569D01*
G01X13467Y2561D01*
G01X13477Y2545D01*
G01X13483Y2538D01*
G01X13490Y2531D01*
G01X13497Y2525D01*
G01X13513Y2515D01*
G01X13521Y2512D01*
G01X13530Y2509D01*
G01X13548Y2505D01*
G01X13651Y2505D01*
G01X13651Y2778D01*
G37*
G36*
G01X13651Y3494D02*
G01X13548Y3494D01*
G01X13530Y3490D01*
G01X13521Y3487D01*
G01X13513Y3484D01*
G01X13497Y3474D01*
G01X13490Y3468D01*
G01X13483Y3461D01*
G01X13477Y3454D01*
G01X13467Y3438D01*
G01X13464Y3430D01*
G01X13458Y3412D01*
G01X13457Y3403D01*
G01X13457Y3221D01*
G01X13651Y3221D01*
G01X13651Y3494D01*
G37*
G36*
G01X17467Y467D02*
G01X17276Y467D01*
G01X17284Y451D01*
G01X17293Y435D01*
G01X17303Y419D01*
G01X17314Y404D01*
G01X17325Y390D01*
G01X17337Y375D01*
G01X17349Y362D01*
G01X17362Y349D01*
G01X17375Y337D01*
G01X17390Y325D01*
G01X17404Y314D01*
G01X17419Y303D01*
G01X17435Y293D01*
G01X17451Y284D01*
G01X17467Y276D01*
G01X17467Y467D01*
G37*
G36*
G01X5467Y467D02*
G01X5276Y467D01*
G01X5284Y451D01*
G01X5293Y435D01*
G01X5303Y419D01*
G01X5314Y404D01*
G01X5325Y390D01*
G01X5337Y375D01*
G01X5349Y362D01*
G01X5362Y349D01*
G01X5375Y337D01*
G01X5390Y325D01*
G01X5404Y314D01*
G01X5419Y303D01*
G01X5435Y293D01*
G01X5451Y284D01*
G01X5467Y276D01*
G01X5467Y467D01*
G37*
G36*
G01X17848Y1015D02*
G01X17832Y1023D01*
G01X17832Y832D01*
G01X18023Y832D01*
G01X18015Y848D01*
G01X18006Y864D01*
G01X17996Y880D01*
G01X17985Y895D01*
G01X17974Y909D01*
G01X17962Y924D01*
G01X17950Y937D01*
G01X17937Y950D01*
G01X17924Y962D01*
G01X17909Y974D01*
G01X17895Y985D01*
G01X17880Y996D01*
G01X17864Y1006D01*
G01X17848Y1015D01*
G37*
G36*
G01X5467Y832D02*
G01X5467Y1023D01*
G01X5451Y1015D01*
G01X5435Y1006D01*
G01X5419Y996D01*
G01X5404Y985D01*
G01X5390Y974D01*
G01X5375Y962D01*
G01X5362Y950D01*
G01X5349Y937D01*
G01X5337Y924D01*
G01X5325Y909D01*
G01X5314Y895D01*
G01X5303Y880D01*
G01X5293Y864D01*
G01X5284Y848D01*
G01X5276Y832D01*
G01X5467Y832D01*
G37*
G36*
G01X18023Y467D02*
G01X17832Y467D01*
G01X17832Y276D01*
G01X17848Y284D01*
G01X17864Y293D01*
G01X17880Y303D01*
G01X17895Y314D01*
G01X17909Y325D01*
G01X17924Y337D01*
G01X17937Y349D01*
G01X17950Y362D01*
G01X17962Y375D01*
G01X17974Y390D01*
G01X17985Y404D01*
G01X17996Y419D01*
G01X18006Y435D01*
G01X18015Y451D01*
G01X18023Y467D01*
G37*
G36*
G01X3848Y1015D02*
G01X3832Y1023D01*
G01X3832Y832D01*
G01X4023Y832D01*
G01X4015Y848D01*
G01X4006Y864D01*
G01X3996Y880D01*
G01X3985Y895D01*
G01X3974Y909D01*
G01X3962Y924D01*
G01X3950Y937D01*
G01X3937Y950D01*
G01X3924Y962D01*
G01X3909Y974D01*
G01X3895Y985D01*
G01X3880Y996D01*
G01X3864Y1006D01*
G01X3848Y1015D01*
G37*
G36*
G01X4023Y467D02*
G01X3832Y467D01*
G01X3832Y276D01*
G01X3848Y284D01*
G01X3864Y293D01*
G01X3880Y303D01*
G01X3895Y314D01*
G01X3909Y325D01*
G01X3924Y337D01*
G01X3937Y349D01*
G01X3950Y362D01*
G01X3962Y375D01*
G01X3974Y390D01*
G01X3985Y404D01*
G01X3996Y419D01*
G01X4006Y435D01*
G01X4015Y451D01*
G01X4023Y467D01*
G37*
G36*
G01X13848Y1015D02*
G01X13832Y1023D01*
G01X13832Y832D01*
G01X14023Y832D01*
G01X14015Y848D01*
G01X14006Y864D01*
G01X13996Y880D01*
G01X13985Y895D01*
G01X13974Y909D01*
G01X13962Y924D01*
G01X13950Y937D01*
G01X13937Y950D01*
G01X13924Y962D01*
G01X13909Y974D01*
G01X13895Y985D01*
G01X13880Y996D01*
G01X13864Y1006D01*
G01X13848Y1015D01*
G37*
G36*
G01X13467Y467D02*
G01X13276Y467D01*
G01X13284Y451D01*
G01X13293Y435D01*
G01X13303Y419D01*
G01X13314Y404D01*
G01X13325Y390D01*
G01X13337Y375D01*
G01X13349Y362D01*
G01X13362Y349D01*
G01X13375Y337D01*
G01X13390Y325D01*
G01X13404Y314D01*
G01X13419Y303D01*
G01X13435Y293D01*
G01X13451Y284D01*
G01X13467Y276D01*
G01X13467Y467D01*
G37*
G36*
G01X13467Y832D02*
G01X13467Y1023D01*
G01X13451Y1015D01*
G01X13435Y1006D01*
G01X13419Y996D01*
G01X13404Y985D01*
G01X13390Y974D01*
G01X13375Y962D01*
G01X13362Y950D01*
G01X13349Y937D01*
G01X13337Y924D01*
G01X13325Y909D01*
G01X13314Y895D01*
G01X13303Y880D01*
G01X13293Y864D01*
G01X13284Y848D01*
G01X13276Y832D01*
G01X13467Y832D01*
G37*
G36*
G01X14023Y467D02*
G01X13832Y467D01*
G01X13832Y276D01*
G01X13848Y284D01*
G01X13864Y293D01*
G01X13880Y303D01*
G01X13895Y314D01*
G01X13909Y325D01*
G01X13924Y337D01*
G01X13937Y349D01*
G01X13950Y362D01*
G01X13962Y375D01*
G01X13974Y390D01*
G01X13985Y404D01*
G01X13996Y419D01*
G01X14006Y435D01*
G01X14015Y451D01*
G01X14023Y467D01*
G37*
G36*
G01X3467Y832D02*
G01X3467Y1023D01*
G01X3451Y1015D01*
G01X3435Y1006D01*
G01X3419Y996D01*
G01X3404Y985D01*
G01X3390Y974D01*
G01X3375Y962D01*
G01X3362Y950D01*
G01X3349Y937D01*
G01X3337Y924D01*
G01X3325Y909D01*
G01X3314Y895D01*
G01X3303Y880D01*
G01X3293Y864D01*
G01X3284Y848D01*
G01X3276Y832D01*
G01X3467Y832D01*
G37*
G36*
G01X6023Y467D02*
G01X5832Y467D01*
G01X5832Y276D01*
G01X5848Y284D01*
G01X5864Y293D01*
G01X5880Y303D01*
G01X5895Y314D01*
G01X5909Y325D01*
G01X5924Y337D01*
G01X5937Y349D01*
G01X5950Y362D01*
G01X5962Y375D01*
G01X5974Y390D01*
G01X5985Y404D01*
G01X5996Y419D01*
G01X6006Y435D01*
G01X6015Y451D01*
G01X6023Y467D01*
G37*
G36*
G01X5848Y1015D02*
G01X5832Y1023D01*
G01X5832Y832D01*
G01X6023Y832D01*
G01X6015Y848D01*
G01X6006Y864D01*
G01X5996Y880D01*
G01X5985Y895D01*
G01X5974Y909D01*
G01X5962Y924D01*
G01X5950Y937D01*
G01X5937Y950D01*
G01X5924Y962D01*
G01X5909Y974D01*
G01X5895Y985D01*
G01X5880Y996D01*
G01X5864Y1006D01*
G01X5848Y1015D01*
G37*
G36*
G01X3467Y467D02*
G01X3276Y467D01*
G01X3284Y451D01*
G01X3293Y435D01*
G01X3303Y419D01*
G01X3314Y404D01*
G01X3325Y390D01*
G01X3337Y375D01*
G01X3349Y362D01*
G01X3362Y349D01*
G01X3375Y337D01*
G01X3390Y325D01*
G01X3404Y314D01*
G01X3419Y303D01*
G01X3435Y293D01*
G01X3451Y284D01*
G01X3467Y276D01*
G01X3467Y467D01*
G37*
G36*
G01X15467Y1832D02*
G01X15467Y2023D01*
G01X15451Y2015D01*
G01X15435Y2006D01*
G01X15419Y1996D01*
G01X15404Y1985D01*
G01X15390Y1974D01*
G01X15375Y1962D01*
G01X15362Y1950D01*
G01X15349Y1937D01*
G01X15337Y1924D01*
G01X15325Y1909D01*
G01X15314Y1895D01*
G01X15303Y1880D01*
G01X15293Y1864D01*
G01X15284Y1848D01*
G01X15276Y1832D01*
G01X15467Y1832D01*
G37*
G36*
G01X11023Y467D02*
G01X10832Y467D01*
G01X10832Y276D01*
G01X10848Y284D01*
G01X10864Y293D01*
G01X10880Y303D01*
G01X10895Y314D01*
G01X10909Y325D01*
G01X10924Y337D01*
G01X10937Y349D01*
G01X10950Y362D01*
G01X10962Y375D01*
G01X10974Y390D01*
G01X10985Y404D01*
G01X10996Y419D01*
G01X11006Y435D01*
G01X11015Y451D01*
G01X11023Y467D01*
G37*
G36*
G01X10848Y1015D02*
G01X10832Y1023D01*
G01X10832Y832D01*
G01X11023Y832D01*
G01X11015Y848D01*
G01X11006Y864D01*
G01X10996Y880D01*
G01X10985Y895D01*
G01X10974Y909D01*
G01X10962Y924D01*
G01X10950Y937D01*
G01X10937Y950D01*
G01X10924Y962D01*
G01X10909Y974D01*
G01X10895Y985D01*
G01X10880Y996D01*
G01X10864Y1006D01*
G01X10848Y1015D01*
G37*
G36*
G01X15467Y1467D02*
G01X15276Y1467D01*
G01X15284Y1451D01*
G01X15293Y1435D01*
G01X15303Y1419D01*
G01X15314Y1404D01*
G01X15325Y1390D01*
G01X15337Y1375D01*
G01X15349Y1362D01*
G01X15362Y1349D01*
G01X15375Y1337D01*
G01X15390Y1325D01*
G01X15404Y1314D01*
G01X15419Y1303D01*
G01X15435Y1293D01*
G01X15451Y1284D01*
G01X15467Y1276D01*
G01X15467Y1467D01*
G37*
G36*
G01X16023Y1467D02*
G01X15832Y1467D01*
G01X15832Y1276D01*
G01X15848Y1284D01*
G01X15864Y1293D01*
G01X15880Y1303D01*
G01X15895Y1314D01*
G01X15909Y1325D01*
G01X15924Y1337D01*
G01X15937Y1349D01*
G01X15950Y1362D01*
G01X15962Y1375D01*
G01X15974Y1390D01*
G01X15985Y1404D01*
G01X15996Y1419D01*
G01X16006Y1435D01*
G01X16015Y1451D01*
G01X16023Y1467D01*
G37*
G36*
G01X15848Y2015D02*
G01X15832Y2023D01*
G01X15832Y1832D01*
G01X16023Y1832D01*
G01X16015Y1848D01*
G01X16006Y1864D01*
G01X15996Y1880D01*
G01X15985Y1895D01*
G01X15974Y1909D01*
G01X15962Y1924D01*
G01X15950Y1937D01*
G01X15937Y1950D01*
G01X15924Y1962D01*
G01X15909Y1974D01*
G01X15895Y1985D01*
G01X15880Y1996D01*
G01X15864Y2006D01*
G01X15848Y2015D01*
G37*
G36*
G01X7467Y1467D02*
G01X7276Y1467D01*
G01X7284Y1451D01*
G01X7293Y1435D01*
G01X7303Y1419D01*
G01X7314Y1404D01*
G01X7325Y1390D01*
G01X7337Y1375D01*
G01X7349Y1362D01*
G01X7362Y1349D01*
G01X7375Y1337D01*
G01X7390Y1325D01*
G01X7404Y1314D01*
G01X7419Y1303D01*
G01X7435Y1293D01*
G01X7451Y1284D01*
G01X7467Y1276D01*
G01X7467Y1467D01*
G37*
G36*
G01X7467Y1832D02*
G01X7467Y2023D01*
G01X7451Y2015D01*
G01X7435Y2006D01*
G01X7419Y1996D01*
G01X7404Y1985D01*
G01X7390Y1974D01*
G01X7375Y1962D01*
G01X7362Y1950D01*
G01X7349Y1937D01*
G01X7337Y1924D01*
G01X7325Y1909D01*
G01X7314Y1895D01*
G01X7303Y1880D01*
G01X7293Y1864D01*
G01X7284Y1848D01*
G01X7276Y1832D01*
G01X7467Y1832D01*
G37*
G36*
G01X10467Y467D02*
G01X10276Y467D01*
G01X10284Y451D01*
G01X10293Y435D01*
G01X10303Y419D01*
G01X10314Y404D01*
G01X10325Y390D01*
G01X10337Y375D01*
G01X10349Y362D01*
G01X10362Y349D01*
G01X10375Y337D01*
G01X10390Y325D01*
G01X10404Y314D01*
G01X10419Y303D01*
G01X10435Y293D01*
G01X10451Y284D01*
G01X10467Y276D01*
G01X10467Y467D01*
G37*
G36*
G01X10467Y832D02*
G01X10467Y1023D01*
G01X10451Y1015D01*
G01X10435Y1006D01*
G01X10419Y996D01*
G01X10404Y985D01*
G01X10390Y974D01*
G01X10375Y962D01*
G01X10362Y950D01*
G01X10349Y937D01*
G01X10337Y924D01*
G01X10325Y909D01*
G01X10314Y895D01*
G01X10303Y880D01*
G01X10293Y864D01*
G01X10284Y848D01*
G01X10276Y832D01*
G01X10467Y832D01*
G37*
G36*
G01X17467Y832D02*
G01X17467Y1023D01*
G01X17451Y1015D01*
G01X17435Y1006D01*
G01X17419Y996D01*
G01X17404Y985D01*
G01X17390Y974D01*
G01X17375Y962D01*
G01X17362Y950D01*
G01X17349Y937D01*
G01X17337Y924D01*
G01X17325Y909D01*
G01X17314Y895D01*
G01X17303Y880D01*
G01X17293Y864D01*
G01X17284Y848D01*
G01X17276Y832D01*
G01X17467Y832D01*
G37*
G36*
G01X8023Y1467D02*
G01X7832Y1467D01*
G01X7832Y1276D01*
G01X7848Y1284D01*
G01X7864Y1293D01*
G01X7880Y1303D01*
G01X7895Y1314D01*
G01X7909Y1325D01*
G01X7924Y1337D01*
G01X7937Y1349D01*
G01X7950Y1362D01*
G01X7962Y1375D01*
G01X7974Y1390D01*
G01X7985Y1404D01*
G01X7996Y1419D01*
G01X8006Y1435D01*
G01X8015Y1451D01*
G01X8023Y1467D01*
G37*
G36*
G01X7848Y2015D02*
G01X7832Y2023D01*
G01X7832Y1832D01*
G01X8023Y1832D01*
G01X8015Y1848D01*
G01X8006Y1864D01*
G01X7996Y1880D01*
G01X7985Y1895D01*
G01X7974Y1909D01*
G01X7962Y1924D01*
G01X7950Y1937D01*
G01X7937Y1950D01*
G01X7924Y1962D01*
G01X7909Y1974D01*
G01X7895Y1985D01*
G01X7880Y1996D01*
G01X7864Y2006D01*
G01X7848Y2015D01*
G37*
G36*
G01X467Y1832D02*
G01X467Y2023D01*
G01X451Y2015D01*
G01X435Y2006D01*
G01X419Y1996D01*
G01X404Y1985D01*
G01X390Y1974D01*
G01X375Y1962D01*
G01X362Y1950D01*
G01X349Y1937D01*
G01X337Y1924D01*
G01X325Y1909D01*
G01X314Y1895D01*
G01X303Y1880D01*
G01X293Y1864D01*
G01X284Y1848D01*
G01X276Y1832D01*
G01X467Y1832D01*
G37*
G36*
G01X1023Y1467D02*
G01X832Y1467D01*
G01X832Y1276D01*
G01X848Y1284D01*
G01X864Y1293D01*
G01X880Y1303D01*
G01X895Y1314D01*
G01X909Y1325D01*
G01X924Y1337D01*
G01X937Y1349D01*
G01X950Y1362D01*
G01X962Y1375D01*
G01X974Y1390D01*
G01X985Y1404D01*
G01X996Y1419D01*
G01X1006Y1435D01*
G01X1015Y1451D01*
G01X1023Y1467D01*
G37*
G36*
G01X848Y2015D02*
G01X832Y2023D01*
G01X832Y1832D01*
G01X1023Y1832D01*
G01X1015Y1848D01*
G01X1006Y1864D01*
G01X996Y1880D01*
G01X985Y1895D01*
G01X974Y1909D01*
G01X962Y1924D01*
G01X950Y1937D01*
G01X937Y1950D01*
G01X924Y1962D01*
G01X909Y1974D01*
G01X895Y1985D01*
G01X880Y1996D01*
G01X864Y2006D01*
G01X848Y2015D01*
G37*
G36*
G01X467Y1467D02*
G01X276Y1467D01*
G01X284Y1451D01*
G01X293Y1435D01*
G01X303Y1419D01*
G01X314Y1404D01*
G01X325Y1390D01*
G01X337Y1375D01*
G01X349Y1362D01*
G01X362Y1349D01*
G01X375Y1337D01*
G01X390Y1325D01*
G01X404Y1314D01*
G01X419Y1303D01*
G01X435Y1293D01*
G01X451Y1284D01*
G01X467Y1276D01*
G01X467Y1467D01*
G37*
G36*
G01X16835Y3804D02*
G01X16738Y3804D01*
G01X16738Y3649D01*
G01X16927Y3649D01*
G01X16927Y3703D01*
G01X16926Y3712D01*
G01X16925Y3722D01*
G01X16923Y3731D01*
G01X16920Y3740D01*
G01X16912Y3756D01*
G01X16906Y3764D01*
G01X16901Y3771D01*
G01X16894Y3778D01*
G01X16887Y3784D01*
G01X16879Y3789D01*
G01X16871Y3793D01*
G01X16862Y3797D01*
G01X16854Y3800D01*
G01X16844Y3802D01*
G01X16835Y3804D01*
G37*
G36*
G01X5877Y4150D02*
G01X5688Y4150D01*
G01X5688Y3995D01*
G01X5785Y3995D01*
G01X5794Y3997D01*
G01X5804Y3999D01*
G01X5812Y4002D01*
G01X5821Y4006D01*
G01X5829Y4010D01*
G01X5837Y4015D01*
G01X5844Y4021D01*
G01X5851Y4028D01*
G01X5856Y4035D01*
G01X5862Y4043D01*
G01X5870Y4059D01*
G01X5873Y4068D01*
G01X5875Y4077D01*
G01X5876Y4087D01*
G01X5877Y4096D01*
G01X5877Y4150D01*
G37*
G36*
G01X5411Y4150D02*
G01X5222Y4150D01*
G01X5222Y4096D01*
G01X5223Y4087D01*
G01X5224Y4077D01*
G01X5226Y4068D01*
G01X5229Y4059D01*
G01X5237Y4043D01*
G01X5243Y4035D01*
G01X5248Y4028D01*
G01X5255Y4021D01*
G01X5262Y4015D01*
G01X5270Y4010D01*
G01X5278Y4006D01*
G01X5287Y4002D01*
G01X5295Y3999D01*
G01X5305Y3997D01*
G01X5314Y3995D01*
G01X5411Y3995D01*
G01X5411Y4150D01*
G37*
G36*
G01X16461Y3804D02*
G01X16364Y3804D01*
G01X16355Y3802D01*
G01X16345Y3800D01*
G01X16337Y3797D01*
G01X16328Y3793D01*
G01X16320Y3789D01*
G01X16312Y3784D01*
G01X16305Y3778D01*
G01X16298Y3771D01*
G01X16293Y3764D01*
G01X16287Y3756D01*
G01X16279Y3740D01*
G01X16276Y3731D01*
G01X16274Y3722D01*
G01X16273Y3712D01*
G01X16272Y3703D01*
G01X16272Y3649D01*
G01X16461Y3649D01*
G01X16461Y3804D01*
G37*

%LPD*%
G54D11*
G01X5550Y4746D02*
G01X6553Y4746D01*
G01X6650Y4650D01*
G01X15605Y3000D02*
G01X16453Y3000D01*
G01X16550Y3096D01*
G01X16550Y3096D02*
G01X17687Y3096D01*
G01X18150Y3559D01*
G01X18150Y3559D02*
G01X18150Y1150D01*
G01X18650Y650D01*
G01X14700Y3000D02*
G01X12959Y4740D01*
G01X12400Y4740D01*
G01X12400Y4740D02*
G01X11591Y5550D01*
G01X4900Y5550D01*
G01X3950Y4600D01*
G01X3947Y4600D01*
G01X3947Y4600D02*
G01X4093Y4746D01*
G01X5550Y4746D01*
G54D12*
G01X3947Y4600D03*
G01X1152Y4600D03*
G36*
G01X12911Y5095D02*
G01X12911Y4386D01*
G01X11888Y4386D01*
G01X11888Y5095D01*
G01X12911Y5095D01*
G37*
G36*
G01X12911Y3913D02*
G01X12911Y3204D01*
G01X11888Y3204D01*
G01X11888Y3913D01*
G01X12911Y3913D01*
G37*
G36*
G01X17638Y3204D02*
G01X17638Y3913D01*
G01X18661Y3913D01*
G01X18661Y3204D01*
G01X17638Y3204D01*
G37*
G36*
G01X17638Y4386D02*
G01X17638Y5095D01*
G01X18661Y5095D01*
G01X18661Y4386D01*
G01X17638Y4386D01*
G37*
G36*
G01X16826Y3703D02*
G01X16826Y3388D01*
G01X16373Y3388D01*
G01X16373Y3703D01*
G01X16826Y3703D01*
G37*
G36*
G01X16826Y3211D02*
G01X16826Y2896D01*
G01X16373Y2896D01*
G01X16373Y3211D01*
G01X16826Y3211D01*
G37*
G36*
G01X13951Y5047D02*
G01X13951Y5952D01*
G01X15448Y5952D01*
G01X15448Y5047D01*
G01X13951Y5047D01*
G37*
G36*
G01X14463Y2606D02*
G01X14463Y3393D01*
G01X14936Y3393D01*
G01X14936Y2606D01*
G01X14463Y2606D01*
G37*
G36*
G01X15369Y2606D02*
G01X15369Y3393D01*
G01X15841Y3393D01*
G01X15841Y2606D01*
G01X15369Y2606D01*
G37*
G36*
G01X13558Y2606D02*
G01X13558Y3393D01*
G01X14030Y3393D01*
G01X14030Y2606D01*
G01X13558Y2606D01*
G37*
G36*
G01X5323Y4096D02*
G01X5323Y4411D01*
G01X5776Y4411D01*
G01X5776Y4096D01*
G01X5323Y4096D01*
G37*
G36*
G01X5323Y4588D02*
G01X5323Y4903D01*
G01X5776Y4903D01*
G01X5776Y4588D01*
G01X5323Y4588D01*
G37*
G36*
G01X19964Y1335D02*
G01X19335Y1335D01*
G01X19335Y1964D01*
G01X19964Y1964D01*
G01X19964Y1335D01*
G37*
G54D18*
G01X19650Y650D03*
G01X18650Y1650D03*
G01X18650Y650D03*
G01X17650Y1650D03*
G01X17650Y650D03*
G01X16650Y1650D03*
G01X16650Y650D03*
G01X15650Y1650D03*
G01X15650Y650D03*
G01X14650Y1650D03*
G01X14650Y650D03*
G01X13650Y1650D03*
G01X13650Y650D03*
G01X12650Y1650D03*
G01X12650Y650D03*
G01X11650Y1650D03*
G01X11650Y650D03*
G01X10650Y1650D03*
G01X10650Y650D03*
G01X9650Y1650D03*
G01X9650Y650D03*
G01X8650Y1650D03*
G01X8650Y650D03*
G01X7650Y1650D03*
G01X7650Y650D03*
G01X6650Y1650D03*
G01X6650Y650D03*
G01X5650Y1650D03*
G01X5650Y650D03*
G01X4650Y1650D03*
G01X4650Y650D03*
G01X3650Y1650D03*
G01X3650Y650D03*
G01X2650Y1650D03*
G01X2650Y650D03*
G01X1650Y1650D03*
G01X1650Y650D03*
G01X650Y1650D03*
G01X650Y650D03*
G54D19*
G01X6650Y3650D03*
G54D20*
G01X6650Y4650D03*
G01X7650Y3650D03*
G01X7650Y4650D03*
G01X8650Y3650D03*
G01X8650Y4650D03*
G01X9650Y3650D03*
G01X9650Y4650D03*
M00*
M02*
