G04 Layer: TopSilkLayer*
G04 EasyEDA v6.1.52, Wed, 17 Jul 2019 13:51:58 GMT*
G04 0f272f2afd1b494c8b1dbf383a833715,ab89ba01d8c54d20b0ee7efe4e0f3ffc,10*
G04 Gerber Generator version 0.2*
G04 Scale: 100 percent, Rotated: No, Reflected: No *
G04 Dimensions in inches *
G04 leading zeros omitted , absolute positions ,2 integer and 4 decimal *
%FSLAX24Y24*%
%MOIN*%
G90*
G70D02*

%ADD10C,0.010000*%
%ADD21C,0.004000*%
%ADD22C,0.002000*%
%ADD23C,0.006000*%

%LPD*%
G54D10*
G01X20150Y150D02*
G01X20150Y2150D01*
G01X150Y2150D01*
G01X150Y150D01*
G01X20150Y150D01*
G01X19150Y1150D02*
G01X20150Y1150D01*
G01X19150Y2150D02*
G01X19150Y1150D01*
G01X876Y2926D02*
G01X3499Y2926D01*
G01X4223Y3650D02*
G01X3499Y2926D01*
G01X4223Y5549D02*
G01X3499Y6273D01*
G01X876Y6273D02*
G01X3499Y6273D01*
G01X4223Y5549D02*
G01X4223Y5092D01*
G01X4223Y4107D02*
G01X4223Y3650D01*
G01X876Y4107D02*
G01X876Y2926D01*
G01X876Y6273D02*
G01X876Y5092D01*
G01X11750Y4465D02*
G01X11750Y5223D01*
G01X13049Y5223D01*
G01X13049Y5433D01*
G01X11750Y5433D01*
G01X11750Y5223D01*
G01X13049Y3834D02*
G01X13049Y3076D01*
G01X11750Y3076D01*
G01X11750Y3834D01*
G01X13049Y4465D02*
G01X13049Y5223D01*
G01X18799Y3834D02*
G01X18799Y3076D01*
G01X17500Y3076D01*
G01X17500Y2866D01*
G01X18799Y2866D01*
G01X18799Y3076D01*
G01X17500Y4465D02*
G01X17500Y5223D01*
G01X18799Y5223D01*
G01X18799Y4465D01*
G01X17500Y3834D02*
G01X17500Y3076D01*
G01X16950Y3400D02*
G01X16950Y3750D01*
G01X16850Y3850D02*
G01X16350Y3850D01*
G01X16250Y3750D02*
G01X16250Y3400D01*
G01X16950Y3200D02*
G01X16950Y2850D01*
G01X16850Y2750D02*
G01X16350Y2750D01*
G01X16250Y2850D02*
G01X16250Y3200D01*
G01X13440Y3492D02*
G01X15959Y3492D01*
G01X13440Y3492D02*
G01X13440Y4988D01*
G01X15959Y4988D02*
G01X13440Y4988D01*
G01X15959Y4988D02*
G01X15959Y3492D01*
G01X6150Y5150D02*
G01X10250Y5150D01*
G01X10250Y3150D01*
G01X6050Y3150D01*
G01X6050Y5150D01*
G01X6150Y5150D01*
G01X6050Y4150D02*
G01X7150Y4150D01*
G01X7150Y3150D01*
G01X5200Y4400D02*
G01X5200Y4050D01*
G01X5300Y3950D02*
G01X5800Y3950D01*
G01X5900Y4050D02*
G01X5900Y4400D01*
G01X5200Y4600D02*
G01X5200Y4950D01*
G01X5300Y5050D02*
G01X5800Y5050D01*
G01X5900Y4950D02*
G01X5900Y4600D01*
G54D21*
G01X5350Y2781D02*
G01X5350Y2399D01*
G01X5350Y2781D02*
G01X5605Y2399D01*
G01X5605Y2781D02*
G01X5605Y2399D01*
G01X5725Y2781D02*
G01X5725Y2399D01*
G01X5725Y2781D02*
G01X5888Y2781D01*
G01X5943Y2763D01*
G01X5960Y2745D01*
G01X5978Y2708D01*
G01X5978Y2672D01*
G01X5960Y2636D01*
G01X5943Y2618D01*
G01X5888Y2599D01*
G01X5725Y2599D01*
G01X5852Y2599D02*
G01X5978Y2399D01*
G01X6098Y2781D02*
G01X6098Y2399D01*
G01X6098Y2781D02*
G01X6335Y2781D01*
G01X6098Y2599D02*
G01X6244Y2599D01*
G01X6473Y2690D02*
G01X6473Y2708D01*
G01X6492Y2745D01*
G01X6510Y2763D01*
G01X6546Y2781D01*
G01X6618Y2781D01*
G01X6655Y2763D01*
G01X6673Y2745D01*
G01X6692Y2708D01*
G01X6692Y2672D01*
G01X6673Y2636D01*
G01X6636Y2581D01*
G01X6455Y2399D01*
G01X6710Y2399D01*
G01X7011Y2781D02*
G01X6830Y2527D01*
G01X7102Y2527D01*
G01X7011Y2781D02*
G01X7011Y2399D01*
G01X7222Y2781D02*
G01X7222Y2399D01*
G01X7222Y2399D02*
G01X7440Y2399D01*
G01X7669Y2781D02*
G01X7614Y2763D01*
G01X7578Y2708D01*
G01X7560Y2618D01*
G01X7560Y2563D01*
G01X7578Y2472D01*
G01X7614Y2418D01*
G01X7669Y2399D01*
G01X7706Y2399D01*
G01X7760Y2418D01*
G01X7797Y2472D01*
G01X7814Y2563D01*
G01X7814Y2618D01*
G01X7797Y2708D01*
G01X7760Y2763D01*
G01X7706Y2781D01*
G01X7669Y2781D01*
G01X7935Y2708D02*
G01X7972Y2727D01*
G01X8026Y2781D01*
G01X8026Y2399D01*
G01X8310Y2727D02*
G01X8310Y2399D01*
G01X8146Y2563D02*
G01X8473Y2563D01*
G01X8873Y2781D02*
G01X8873Y2399D01*
G01X8873Y2781D02*
G01X9036Y2781D01*
G01X9092Y2763D01*
G01X9110Y2745D01*
G01X9127Y2708D01*
G01X9127Y2672D01*
G01X9110Y2636D01*
G01X9092Y2618D01*
G01X9036Y2599D01*
G01X8873Y2599D01*
G01X9001Y2599D02*
G01X9127Y2399D01*
G01X9247Y2654D02*
G01X9247Y2272D01*
G01X9247Y2599D02*
G01X9285Y2636D01*
G01X9321Y2654D01*
G01X9375Y2654D01*
G01X9411Y2636D01*
G01X9447Y2599D01*
G01X9465Y2545D01*
G01X9465Y2508D01*
G01X9447Y2454D01*
G01X9411Y2418D01*
G01X9375Y2399D01*
G01X9321Y2399D01*
G01X9285Y2418D01*
G01X9247Y2454D01*
G01X9585Y2781D02*
G01X9605Y2763D01*
G01X9622Y2781D01*
G01X9605Y2799D01*
G01X9585Y2781D01*
G01X9605Y2654D02*
G01X9605Y2399D01*
G01X9778Y2781D02*
G01X9978Y2781D01*
G01X9869Y2636D01*
G01X9925Y2636D01*
G01X9960Y2618D01*
G01X9978Y2599D01*
G01X9997Y2545D01*
G01X9997Y2508D01*
G01X9978Y2454D01*
G01X9943Y2418D01*
G01X9888Y2399D01*
G01X9834Y2399D01*
G01X9778Y2418D01*
G01X9760Y2436D01*
G01X9743Y2472D01*
G01X10397Y2781D02*
G01X10397Y2399D01*
G01X10652Y2781D02*
G01X10652Y2399D01*
G01X10397Y2599D02*
G01X10652Y2599D01*
G01X10989Y2654D02*
G01X10989Y2399D01*
G01X10989Y2599D02*
G01X10953Y2636D01*
G01X10917Y2654D01*
G01X10863Y2654D01*
G01X10826Y2636D01*
G01X10789Y2599D01*
G01X10772Y2545D01*
G01X10772Y2508D01*
G01X10789Y2454D01*
G01X10826Y2418D01*
G01X10863Y2399D01*
G01X10917Y2399D01*
G01X10953Y2418D01*
G01X10989Y2454D01*
G01X11164Y2781D02*
G01X11164Y2472D01*
G01X11182Y2418D01*
G01X11218Y2399D01*
G01X11255Y2399D01*
G01X11110Y2654D02*
G01X11236Y2654D01*
G01X19400Y3528D02*
G01X19782Y3528D01*
G01X19400Y3528D02*
G01X19400Y3692D01*
G01X19418Y3746D01*
G01X19436Y3764D01*
G01X19473Y3783D01*
G01X19509Y3783D01*
G01X19545Y3764D01*
G01X19563Y3746D01*
G01X19582Y3692D01*
G01X19582Y3528D01*
G01X19582Y3655D02*
G01X19782Y3783D01*
G01X19636Y3903D02*
G01X19636Y4121D01*
G01X19600Y4121D01*
G01X19563Y4103D01*
G01X19545Y4084D01*
G01X19527Y4048D01*
G01X19527Y3993D01*
G01X19545Y3957D01*
G01X19582Y3921D01*
G01X19636Y3903D01*
G01X19673Y3903D01*
G01X19727Y3921D01*
G01X19763Y3957D01*
G01X19782Y3993D01*
G01X19782Y4048D01*
G01X19763Y4084D01*
G01X19727Y4121D01*
G01X19527Y4241D02*
G01X19782Y4350D01*
G01X19527Y4459D02*
G01X19782Y4350D01*
G01X19473Y4859D02*
G01X19454Y4895D01*
G01X19400Y4950D01*
G01X19782Y4950D01*
G54D22*
G01X5535Y3604D02*
G01X5527Y3622D01*
G01X5509Y3640D01*
G01X5490Y3649D01*
G01X5455Y3649D01*
G01X5435Y3640D01*
G01X5418Y3622D01*
G01X5409Y3604D01*
G01X5400Y3576D01*
G01X5400Y3531D01*
G01X5409Y3504D01*
G01X5418Y3485D01*
G01X5435Y3467D01*
G01X5455Y3458D01*
G01X5490Y3458D01*
G01X5509Y3467D01*
G01X5527Y3485D01*
G01X5535Y3504D01*
G01X5535Y3531D01*
G01X5490Y3531D02*
G01X5535Y3531D01*
G01X5596Y3585D02*
G01X5596Y3458D01*
G01X5596Y3549D02*
G01X5623Y3576D01*
G01X5642Y3585D01*
G01X5668Y3585D01*
G01X5686Y3576D01*
G01X5696Y3549D01*
G01X5696Y3458D01*
G01X5864Y3649D02*
G01X5864Y3458D01*
G01X5864Y3558D02*
G01X5847Y3576D01*
G01X5828Y3585D01*
G01X5802Y3585D01*
G01X5784Y3576D01*
G01X5764Y3558D01*
G01X5756Y3531D01*
G01X5756Y3513D01*
G01X5764Y3485D01*
G01X5784Y3467D01*
G01X5802Y3458D01*
G01X5828Y3458D01*
G01X5847Y3467D01*
G01X5864Y3485D01*
G54D23*
G01X2207Y2548D02*
G01X2186Y2588D01*
G01X2144Y2630D01*
G01X2105Y2650D01*
G01X2023Y2650D01*
G01X1982Y2630D01*
G01X1940Y2588D01*
G01X1919Y2548D01*
G01X1900Y2486D01*
G01X1900Y2384D01*
G01X1919Y2323D01*
G01X1940Y2282D01*
G01X1982Y2240D01*
G01X2023Y2221D01*
G01X2105Y2221D01*
G01X2144Y2240D01*
G01X2186Y2282D01*
G01X2207Y2323D01*
G01X2586Y2650D02*
G01X2382Y2650D01*
G01X2361Y2465D01*
G01X2382Y2486D01*
G01X2443Y2507D01*
G01X2505Y2507D01*
G01X2567Y2486D01*
G01X2607Y2446D01*
G01X2627Y2384D01*
G01X2627Y2344D01*
G01X2607Y2282D01*
G01X2567Y2240D01*
G01X2505Y2221D01*
G01X2443Y2221D01*
G01X2382Y2240D01*
G01X2361Y2261D01*
G01X2342Y2303D01*
G01X12306Y5807D02*
G01X12265Y5786D01*
G01X12224Y5744D01*
G01X12204Y5705D01*
G01X12204Y5623D01*
G01X12224Y5582D01*
G01X12265Y5540D01*
G01X12306Y5519D01*
G01X12368Y5500D01*
G01X12470Y5500D01*
G01X12531Y5519D01*
G01X12572Y5540D01*
G01X12613Y5582D01*
G01X12633Y5623D01*
G01X12633Y5705D01*
G01X12613Y5744D01*
G01X12572Y5786D01*
G01X12531Y5807D01*
G01X12204Y5982D02*
G01X12204Y6207D01*
G01X12368Y6084D01*
G01X12368Y6146D01*
G01X12388Y6186D01*
G01X12408Y6207D01*
G01X12470Y6228D01*
G01X12511Y6228D01*
G01X12572Y6207D01*
G01X12613Y6167D01*
G01X12633Y6105D01*
G01X12633Y6044D01*
G01X12613Y5982D01*
G01X12593Y5961D01*
G01X12552Y5942D01*
G01X18056Y5757D02*
G01X18015Y5736D01*
G01X17974Y5694D01*
G01X17954Y5655D01*
G01X17954Y5573D01*
G01X17974Y5532D01*
G01X18015Y5490D01*
G01X18056Y5469D01*
G01X18118Y5450D01*
G01X18220Y5450D01*
G01X18281Y5469D01*
G01X18322Y5490D01*
G01X18363Y5532D01*
G01X18383Y5573D01*
G01X18383Y5655D01*
G01X18363Y5694D01*
G01X18322Y5736D01*
G01X18281Y5757D01*
G01X18036Y5892D02*
G01X18015Y5932D01*
G01X17954Y5994D01*
G01X18383Y5994D01*
G01X16551Y4428D02*
G01X16510Y4407D01*
G01X16469Y4367D01*
G01X16449Y4326D01*
G01X16449Y4244D01*
G01X16469Y4203D01*
G01X16510Y4163D01*
G01X16551Y4142D01*
G01X16612Y4121D01*
G01X16714Y4121D01*
G01X16776Y4142D01*
G01X16817Y4163D01*
G01X16858Y4203D01*
G01X16878Y4244D01*
G01X16878Y4326D01*
G01X16858Y4367D01*
G01X16817Y4407D01*
G01X16776Y4428D01*
G01X16551Y4584D02*
G01X16530Y4584D01*
G01X16489Y4605D01*
G01X16469Y4625D01*
G01X16449Y4665D01*
G01X16449Y4748D01*
G01X16469Y4788D01*
G01X16489Y4809D01*
G01X16530Y4830D01*
G01X16571Y4830D01*
G01X16612Y4809D01*
G01X16674Y4767D01*
G01X16878Y4563D01*
G01X16878Y4850D01*
G01X5452Y5507D02*
G01X5411Y5486D01*
G01X5370Y5446D01*
G01X5350Y5405D01*
G01X5350Y5323D01*
G01X5370Y5282D01*
G01X5411Y5242D01*
G01X5452Y5221D01*
G01X5513Y5201D01*
G01X5615Y5201D01*
G01X5677Y5221D01*
G01X5718Y5242D01*
G01X5759Y5282D01*
G01X5779Y5323D01*
G01X5779Y5405D01*
G01X5759Y5446D01*
G01X5718Y5486D01*
G01X5677Y5507D01*
G01X5350Y5846D02*
G01X5636Y5642D01*
G01X5636Y5950D01*
G01X5350Y5846D02*
G01X5779Y5846D01*
G54D10*
G75*
G01X16950Y3750D02*
G03X16850Y3850I-100J0D01*
G01*
G75*
G01X16350Y3850D02*
G03X16250Y3750I0J-100D01*
G01*
G75*
G01X16950Y2850D02*
G02X16850Y2750I-100J0D01*
G01*
G75*
G01X16350Y2750D02*
G02X16250Y2850I0J100D01*
G01*
G75*
G01X5200Y4050D02*
G03X5300Y3950I100J0D01*
G01*
G75*
G01X5800Y3950D02*
G03X5900Y4050I0J100D01*
G01*
G75*
G01X5200Y4950D02*
G02X5300Y5050I100J0D01*
G01*
G75*
G01X5800Y5050D02*
G02X5900Y4950I0J-100D01*
G01*
G75*
G01X19700Y2400D02*
G03X19700Y2400I-50J0D01*
G01*
M00*
M02*
