;Layer: Drill PTH
;EasyEDA v6.1.52, Wed, 17 Jul 2019 13:51:58 GMT
;0f272f2afd1b494c8b1dbf383a833715,ab89ba01d8c54d20b0ee7efe4e0f3ffc,10
;Gerber Generator version 0.2
M48
INCH,LZ,00.0000
;Holesize 1 = 0.039 INCH
T01C0.039
;Holesize 2 = 0.043 INCH
T02C0.043
%
G05
G90
T01
X+019650Y+001650
X+019650Y+000650
X+018650Y+001650
X+018650Y+000650
X+017650Y+001650
X+017650Y+000650
X+016650Y+001650
X+016650Y+000650
X+015650Y+001650
X+015650Y+000650
X+014650Y+001650
X+014650Y+000650
X+013650Y+001650
X+013650Y+000650
X+012650Y+001650
X+012650Y+000650
X+011650Y+001650
X+011650Y+000650
X+010650Y+001650
X+010650Y+000650
X+009650Y+001650
X+009650Y+000650
X+008650Y+001650
X+008650Y+000650
X+007650Y+001650
X+007650Y+000650
X+006650Y+001650
X+006650Y+000650
X+005650Y+001650
X+005650Y+000650
X+004650Y+001650
X+004650Y+000650
X+003650Y+001650
X+003650Y+000650
X+002650Y+001650
X+002650Y+000650
X+001650Y+001650
X+001650Y+000650
X+000650Y+001650
X+000650Y+000650
T02
X+006650Y+003650
X+006650Y+004650
X+007650Y+003650
X+007650Y+004650
X+008650Y+003650
X+008650Y+004650
X+009650Y+003650
X+009650Y+004650
M30
