G04 Layer: BottomLayer*
G04 EasyEDA v6.1.52, Wed, 17 Jul 2019 13:51:58 GMT*
G04 0f272f2afd1b494c8b1dbf383a833715,ab89ba01d8c54d20b0ee7efe4e0f3ffc,10*
G04 Gerber Generator version 0.2*
G04 Scale: 100 percent, Rotated: No, Reflected: No *
G04 Dimensions in inches *
G04 leading zeros omitted , absolute positions ,2 integer and 4 decimal *
%FSLAX24Y24*%
%MOIN*%
G90*
G70D02*

%ADD10C,0.010000*%
%ADD18C,0.062992*%
%ADD19R,0.066929X0.066929*%
%ADD20C,0.066929*%

%LPD*%
G36*
G01X20153Y6244D02*
G01X146Y6244D01*
G01X134Y6242D01*
G01X129Y6240D01*
G01X119Y6234D01*
G01X115Y6230D01*
G01X109Y6220D01*
G01X107Y6215D01*
G01X105Y6203D01*
G01X105Y146D01*
G01X107Y134D01*
G01X109Y129D01*
G01X115Y119D01*
G01X119Y115D01*
G01X129Y109D01*
G01X134Y107D01*
G01X146Y105D01*
G01X7183Y105D01*
G01X7195Y107D01*
G01X7200Y109D01*
G01X7210Y115D01*
G01X7214Y119D01*
G01X7220Y129D01*
G01X7222Y134D01*
G01X7223Y140D01*
G01X7223Y152D01*
G01X7219Y164D01*
G01X7216Y169D01*
G01X7212Y174D01*
G01X7032Y354D01*
G01X7023Y367D01*
G01X7019Y372D01*
G01X7015Y376D01*
G01X7011Y379D01*
G01X7006Y382D01*
G01X7001Y384D01*
G01X6995Y385D01*
G01X6983Y385D01*
G01X6976Y383D01*
G01X6964Y377D01*
G01X6960Y372D01*
G01X6934Y346D01*
G01X6906Y322D01*
G01X6891Y311D01*
G01X6876Y301D01*
G01X6860Y291D01*
G01X6844Y282D01*
G01X6828Y274D01*
G01X6811Y266D01*
G01X6794Y259D01*
G01X6776Y253D01*
G01X6759Y248D01*
G01X6723Y240D01*
G01X6705Y237D01*
G01X6686Y235D01*
G01X6668Y234D01*
G01X6631Y234D01*
G01X6612Y235D01*
G01X6594Y237D01*
G01X6575Y240D01*
G01X6557Y244D01*
G01X6521Y254D01*
G01X6503Y260D01*
G01X6486Y267D01*
G01X6452Y283D01*
G01X6436Y292D01*
G01X6420Y302D01*
G01X6390Y324D01*
G01X6376Y336D01*
G01X6362Y349D01*
G01X6349Y362D01*
G01X6336Y376D01*
G01X6324Y390D01*
G01X6302Y420D01*
G01X6292Y436D01*
G01X6283Y452D01*
G01X6267Y486D01*
G01X6260Y503D01*
G01X6254Y521D01*
G01X6244Y557D01*
G01X6240Y575D01*
G01X6237Y594D01*
G01X6235Y612D01*
G01X6234Y631D01*
G01X6234Y668D01*
G01X6235Y687D01*
G01X6237Y705D01*
G01X6240Y724D01*
G01X6244Y742D01*
G01X6254Y778D01*
G01X6260Y796D01*
G01X6267Y813D01*
G01X6283Y847D01*
G01X6292Y863D01*
G01X6302Y879D01*
G01X6324Y909D01*
G01X6336Y923D01*
G01X6349Y937D01*
G01X6362Y950D01*
G01X6376Y963D01*
G01X6390Y975D01*
G01X6420Y997D01*
G01X6436Y1007D01*
G01X6452Y1016D01*
G01X6486Y1032D01*
G01X6503Y1039D01*
G01X6521Y1045D01*
G01X6557Y1055D01*
G01X6575Y1059D01*
G01X6594Y1062D01*
G01X6612Y1064D01*
G01X6631Y1065D01*
G01X6669Y1065D01*
G01X6688Y1064D01*
G01X6726Y1058D01*
G01X6745Y1054D01*
G01X6783Y1044D01*
G01X6819Y1030D01*
G01X6853Y1012D01*
G01X6870Y1002D01*
G01X6886Y992D01*
G01X6902Y980D01*
G01X6917Y968D01*
G01X6931Y955D01*
G01X6941Y949D01*
G01X6953Y945D01*
G01X6964Y945D01*
G01X6970Y946D01*
G01X6975Y948D01*
G01X6980Y951D01*
G01X6985Y955D01*
G01X6989Y959D01*
G01X6992Y963D01*
G01X6995Y968D01*
G01X6997Y974D01*
G01X6998Y979D01*
G01X6998Y1320D01*
G01X6997Y1325D01*
G01X6995Y1331D01*
G01X6992Y1336D01*
G01X6989Y1340D01*
G01X6985Y1344D01*
G01X6980Y1348D01*
G01X6975Y1351D01*
G01X6970Y1353D01*
G01X6964Y1354D01*
G01X6953Y1354D01*
G01X6941Y1350D01*
G01X6931Y1344D01*
G01X6917Y1331D01*
G01X6902Y1319D01*
G01X6886Y1307D01*
G01X6870Y1297D01*
G01X6853Y1287D01*
G01X6819Y1269D01*
G01X6783Y1255D01*
G01X6745Y1245D01*
G01X6726Y1241D01*
G01X6688Y1235D01*
G01X6669Y1234D01*
G01X6631Y1234D01*
G01X6612Y1235D01*
G01X6594Y1237D01*
G01X6575Y1240D01*
G01X6557Y1244D01*
G01X6521Y1254D01*
G01X6503Y1260D01*
G01X6486Y1267D01*
G01X6452Y1283D01*
G01X6436Y1292D01*
G01X6420Y1302D01*
G01X6390Y1324D01*
G01X6376Y1336D01*
G01X6362Y1349D01*
G01X6349Y1362D01*
G01X6336Y1376D01*
G01X6324Y1390D01*
G01X6302Y1420D01*
G01X6292Y1436D01*
G01X6283Y1452D01*
G01X6267Y1486D01*
G01X6260Y1503D01*
G01X6254Y1521D01*
G01X6244Y1557D01*
G01X6240Y1575D01*
G01X6237Y1594D01*
G01X6235Y1612D01*
G01X6234Y1631D01*
G01X6234Y1668D01*
G01X6235Y1687D01*
G01X6237Y1705D01*
G01X6240Y1724D01*
G01X6244Y1742D01*
G01X6254Y1778D01*
G01X6260Y1796D01*
G01X6267Y1813D01*
G01X6283Y1847D01*
G01X6292Y1863D01*
G01X6302Y1879D01*
G01X6324Y1909D01*
G01X6336Y1923D01*
G01X6349Y1937D01*
G01X6362Y1950D01*
G01X6376Y1963D01*
G01X6390Y1975D01*
G01X6420Y1997D01*
G01X6436Y2007D01*
G01X6452Y2016D01*
G01X6486Y2032D01*
G01X6503Y2039D01*
G01X6521Y2045D01*
G01X6557Y2055D01*
G01X6575Y2059D01*
G01X6594Y2062D01*
G01X6612Y2064D01*
G01X6631Y2065D01*
G01X6669Y2065D01*
G01X6688Y2064D01*
G01X6726Y2058D01*
G01X6745Y2054D01*
G01X6783Y2044D01*
G01X6819Y2030D01*
G01X6853Y2012D01*
G01X6870Y2002D01*
G01X6886Y1992D01*
G01X6902Y1980D01*
G01X6917Y1968D01*
G01X6931Y1955D01*
G01X6941Y1949D01*
G01X6953Y1945D01*
G01X6964Y1945D01*
G01X6970Y1946D01*
G01X6975Y1948D01*
G01X6980Y1951D01*
G01X6985Y1955D01*
G01X6989Y1959D01*
G01X6992Y1963D01*
G01X6995Y1968D01*
G01X6997Y1974D01*
G01X6998Y1979D01*
G01X6998Y2400D01*
G01X6999Y2411D01*
G01X7000Y2423D01*
G01X7003Y2435D01*
G01X7006Y2446D01*
G01X7010Y2457D01*
G01X7015Y2468D01*
G01X7027Y2488D01*
G01X7035Y2498D01*
G01X7487Y2950D01*
G01X7491Y2955D01*
G01X7494Y2960D01*
G01X7497Y2966D01*
G01X7498Y2972D01*
G01X7498Y3220D01*
G01X7497Y3225D01*
G01X7495Y3231D01*
G01X7492Y3236D01*
G01X7480Y3248D01*
G01X7475Y3251D01*
G01X7458Y3258D01*
G01X7441Y3267D01*
G01X7425Y3276D01*
G01X7409Y3286D01*
G01X7379Y3308D01*
G01X7364Y3320D01*
G01X7351Y3333D01*
G01X7337Y3346D01*
G01X7325Y3359D01*
G01X7312Y3374D01*
G01X7301Y3388D01*
G01X7290Y3403D01*
G01X7270Y3435D01*
G01X7261Y3452D01*
G01X7253Y3468D01*
G01X7246Y3486D01*
G01X7239Y3503D01*
G01X7233Y3521D01*
G01X7228Y3539D01*
G01X7220Y3575D01*
G01X7217Y3594D01*
G01X7215Y3612D01*
G01X7214Y3631D01*
G01X7214Y3669D01*
G01X7216Y3687D01*
G01X7220Y3725D01*
G01X7224Y3744D01*
G01X7229Y3762D01*
G01X7234Y3781D01*
G01X7240Y3798D01*
G01X7247Y3816D01*
G01X7255Y3834D01*
G01X7263Y3851D01*
G01X7272Y3867D01*
G01X7282Y3884D01*
G01X7293Y3899D01*
G01X7304Y3915D01*
G01X7316Y3930D01*
G01X7328Y3944D01*
G01X7341Y3958D01*
G01X7355Y3971D01*
G01X7369Y3983D01*
G01X7384Y3995D01*
G01X7400Y4006D01*
G01X7415Y4017D01*
G01X7432Y4027D01*
G01X7448Y4036D01*
G01X7465Y4044D01*
G01X7483Y4052D01*
G01X7501Y4059D01*
G01X7518Y4065D01*
G01X7537Y4070D01*
G01X7555Y4075D01*
G01X7574Y4079D01*
G01X7612Y4083D01*
G01X7630Y4085D01*
G01X7650Y4085D01*
G01X7676Y4084D01*
G01X7702Y4082D01*
G01X7713Y4082D01*
G01X7719Y4083D01*
G01X7724Y4085D01*
G01X7729Y4088D01*
G01X7733Y4091D01*
G01X7737Y4095D01*
G01X7741Y4100D01*
G01X7744Y4105D01*
G01X7746Y4110D01*
G01X7747Y4116D01*
G01X7747Y4128D01*
G01X7743Y4140D01*
G01X7740Y4145D01*
G01X7736Y4150D01*
G01X7683Y4202D01*
G01X7679Y4206D01*
G01X7673Y4210D01*
G01X7667Y4212D01*
G01X7655Y4214D01*
G01X7630Y4214D01*
G01X7612Y4216D01*
G01X7574Y4220D01*
G01X7555Y4224D01*
G01X7537Y4229D01*
G01X7518Y4234D01*
G01X7501Y4240D01*
G01X7483Y4247D01*
G01X7465Y4255D01*
G01X7448Y4263D01*
G01X7432Y4272D01*
G01X7415Y4282D01*
G01X7400Y4293D01*
G01X7384Y4304D01*
G01X7369Y4316D01*
G01X7355Y4328D01*
G01X7341Y4341D01*
G01X7328Y4355D01*
G01X7316Y4369D01*
G01X7304Y4384D01*
G01X7293Y4400D01*
G01X7282Y4415D01*
G01X7272Y4432D01*
G01X7263Y4448D01*
G01X7255Y4465D01*
G01X7247Y4483D01*
G01X7240Y4501D01*
G01X7234Y4518D01*
G01X7229Y4537D01*
G01X7224Y4555D01*
G01X7220Y4574D01*
G01X7216Y4612D01*
G01X7214Y4630D01*
G01X7214Y4669D01*
G01X7216Y4687D01*
G01X7220Y4725D01*
G01X7224Y4744D01*
G01X7229Y4762D01*
G01X7234Y4781D01*
G01X7240Y4798D01*
G01X7247Y4816D01*
G01X7255Y4834D01*
G01X7263Y4851D01*
G01X7272Y4867D01*
G01X7282Y4884D01*
G01X7293Y4899D01*
G01X7304Y4915D01*
G01X7316Y4930D01*
G01X7328Y4944D01*
G01X7341Y4958D01*
G01X7355Y4971D01*
G01X7369Y4983D01*
G01X7384Y4995D01*
G01X7400Y5006D01*
G01X7415Y5017D01*
G01X7432Y5027D01*
G01X7448Y5036D01*
G01X7465Y5044D01*
G01X7483Y5052D01*
G01X7501Y5059D01*
G01X7518Y5065D01*
G01X7537Y5070D01*
G01X7555Y5075D01*
G01X7574Y5079D01*
G01X7612Y5083D01*
G01X7630Y5085D01*
G01X7669Y5085D01*
G01X7687Y5083D01*
G01X7725Y5079D01*
G01X7744Y5075D01*
G01X7762Y5070D01*
G01X7781Y5065D01*
G01X7798Y5059D01*
G01X7816Y5052D01*
G01X7834Y5044D01*
G01X7851Y5036D01*
G01X7867Y5027D01*
G01X7884Y5017D01*
G01X7899Y5006D01*
G01X7915Y4995D01*
G01X7930Y4983D01*
G01X7944Y4971D01*
G01X7958Y4958D01*
G01X7971Y4944D01*
G01X7983Y4930D01*
G01X7995Y4915D01*
G01X8006Y4899D01*
G01X8017Y4884D01*
G01X8027Y4867D01*
G01X8036Y4851D01*
G01X8044Y4834D01*
G01X8052Y4816D01*
G01X8059Y4798D01*
G01X8065Y4781D01*
G01X8070Y4762D01*
G01X8075Y4744D01*
G01X8079Y4725D01*
G01X8083Y4687D01*
G01X8085Y4669D01*
G01X8085Y4630D01*
G01X8081Y4590D01*
G01X8078Y4571D01*
G01X8074Y4551D01*
G01X8069Y4532D01*
G01X8063Y4513D01*
G01X8057Y4495D01*
G01X8049Y4476D01*
G01X8041Y4458D01*
G01X8032Y4441D01*
G01X8022Y4424D01*
G01X8011Y4407D01*
G01X8000Y4391D01*
G01X7988Y4375D01*
G01X7984Y4370D01*
G01X7981Y4363D01*
G01X7980Y4357D01*
G01X7979Y4350D01*
G01X7981Y4338D01*
G01X7983Y4332D01*
G01X7991Y4322D01*
G01X8256Y4056D01*
G01X8265Y4047D01*
G01X8279Y4027D01*
G01X8285Y4016D01*
G01X8290Y4004D01*
G01X8294Y3993D01*
G01X8296Y3987D01*
G01X8299Y3982D01*
G01X8302Y3978D01*
G01X8306Y3974D01*
G01X8311Y3970D01*
G01X8321Y3966D01*
G01X8333Y3964D01*
G01X8338Y3965D01*
G01X8344Y3966D01*
G01X8349Y3968D01*
G01X8355Y3971D01*
G01X8359Y3974D01*
G01X8373Y3986D01*
G01X8388Y3998D01*
G01X8403Y4009D01*
G01X8435Y4029D01*
G01X8451Y4038D01*
G01X8468Y4046D01*
G01X8485Y4053D01*
G01X8503Y4060D01*
G01X8521Y4066D01*
G01X8539Y4071D01*
G01X8575Y4079D01*
G01X8594Y4082D01*
G01X8612Y4084D01*
G01X8631Y4085D01*
G01X8669Y4085D01*
G01X8687Y4083D01*
G01X8725Y4079D01*
G01X8744Y4075D01*
G01X8762Y4070D01*
G01X8781Y4065D01*
G01X8798Y4059D01*
G01X8816Y4052D01*
G01X8834Y4044D01*
G01X8851Y4036D01*
G01X8867Y4027D01*
G01X8884Y4017D01*
G01X8899Y4006D01*
G01X8915Y3995D01*
G01X8930Y3983D01*
G01X8944Y3971D01*
G01X8958Y3958D01*
G01X8971Y3944D01*
G01X8983Y3930D01*
G01X8995Y3915D01*
G01X9006Y3899D01*
G01X9017Y3884D01*
G01X9027Y3867D01*
G01X9036Y3851D01*
G01X9044Y3834D01*
G01X9052Y3816D01*
G01X9059Y3798D01*
G01X9065Y3781D01*
G01X9070Y3762D01*
G01X9075Y3744D01*
G01X9079Y3725D01*
G01X9083Y3687D01*
G01X9085Y3669D01*
G01X9085Y3631D01*
G01X9084Y3612D01*
G01X9082Y3594D01*
G01X9079Y3575D01*
G01X9071Y3539D01*
G01X9066Y3521D01*
G01X9060Y3503D01*
G01X9053Y3486D01*
G01X9046Y3468D01*
G01X9038Y3452D01*
G01X9029Y3435D01*
G01X9009Y3403D01*
G01X8998Y3388D01*
G01X8987Y3374D01*
G01X8974Y3359D01*
G01X8962Y3346D01*
G01X8948Y3333D01*
G01X8935Y3320D01*
G01X8920Y3308D01*
G01X8890Y3286D01*
G01X8874Y3276D01*
G01X8858Y3267D01*
G01X8841Y3258D01*
G01X8824Y3251D01*
G01X8819Y3248D01*
G01X8807Y3236D01*
G01X8804Y3231D01*
G01X8802Y3225D01*
G01X8801Y3220D01*
G01X8801Y2058D01*
G01X8802Y2052D01*
G01X8804Y2047D01*
G01X8810Y2037D01*
G01X8814Y2033D01*
G01X8824Y2027D01*
G01X8841Y2019D01*
G01X8857Y2010D01*
G01X8874Y2000D01*
G01X8889Y1989D01*
G01X8905Y1978D01*
G01X8933Y1954D01*
G01X8947Y1940D01*
G01X8960Y1926D01*
G01X8972Y1912D01*
G01X8984Y1897D01*
G01X8995Y1882D01*
G01X9005Y1866D01*
G01X9023Y1832D01*
G01X9031Y1815D01*
G01X9038Y1798D01*
G01X9045Y1780D01*
G01X9050Y1762D01*
G01X9055Y1743D01*
G01X9059Y1725D01*
G01X9062Y1706D01*
G01X9064Y1687D01*
G01X9065Y1668D01*
G01X9065Y1631D01*
G01X9064Y1612D01*
G01X9062Y1594D01*
G01X9059Y1575D01*
G01X9055Y1557D01*
G01X9045Y1521D01*
G01X9039Y1503D01*
G01X9032Y1486D01*
G01X9016Y1452D01*
G01X9007Y1436D01*
G01X8997Y1420D01*
G01X8975Y1390D01*
G01X8963Y1376D01*
G01X8950Y1362D01*
G01X8937Y1349D01*
G01X8923Y1336D01*
G01X8909Y1324D01*
G01X8879Y1302D01*
G01X8863Y1292D01*
G01X8847Y1283D01*
G01X8813Y1267D01*
G01X8796Y1260D01*
G01X8778Y1254D01*
G01X8742Y1244D01*
G01X8724Y1240D01*
G01X8705Y1237D01*
G01X8687Y1235D01*
G01X8668Y1234D01*
G01X8630Y1234D01*
G01X8611Y1235D01*
G01X8573Y1241D01*
G01X8554Y1245D01*
G01X8516Y1255D01*
G01X8480Y1269D01*
G01X8446Y1287D01*
G01X8429Y1297D01*
G01X8413Y1307D01*
G01X8397Y1319D01*
G01X8382Y1331D01*
G01X8368Y1344D01*
G01X8358Y1350D01*
G01X8346Y1354D01*
G01X8335Y1354D01*
G01X8329Y1353D01*
G01X8324Y1351D01*
G01X8319Y1348D01*
G01X8314Y1344D01*
G01X8310Y1340D01*
G01X8307Y1336D01*
G01X8304Y1331D01*
G01X8302Y1325D01*
G01X8301Y1320D01*
G01X8301Y1222D01*
G01X8302Y1216D01*
G01X8305Y1210D01*
G01X8308Y1205D01*
G01X8312Y1200D01*
G01X8464Y1049D01*
G01X8468Y1045D01*
G01X8474Y1042D01*
G01X8479Y1039D01*
G01X8486Y1038D01*
G01X8492Y1037D01*
G01X8499Y1038D01*
G01X8506Y1040D01*
G01X8523Y1046D01*
G01X8541Y1051D01*
G01X8558Y1055D01*
G01X8576Y1059D01*
G01X8595Y1062D01*
G01X8613Y1064D01*
G01X8631Y1065D01*
G01X8668Y1065D01*
G01X8687Y1064D01*
G01X8705Y1062D01*
G01X8724Y1059D01*
G01X8742Y1055D01*
G01X8778Y1045D01*
G01X8796Y1039D01*
G01X8813Y1032D01*
G01X8847Y1016D01*
G01X8863Y1007D01*
G01X8879Y997D01*
G01X8909Y975D01*
G01X8923Y963D01*
G01X8937Y950D01*
G01X8950Y937D01*
G01X8963Y923D01*
G01X8975Y909D01*
G01X8997Y879D01*
G01X9007Y863D01*
G01X9016Y847D01*
G01X9032Y813D01*
G01X9039Y796D01*
G01X9045Y778D01*
G01X9055Y742D01*
G01X9059Y724D01*
G01X9062Y705D01*
G01X9064Y687D01*
G01X9065Y668D01*
G01X9065Y630D01*
G01X9064Y611D01*
G01X9058Y573D01*
G01X9054Y554D01*
G01X9044Y516D01*
G01X9030Y480D01*
G01X9012Y446D01*
G01X9002Y429D01*
G01X8992Y413D01*
G01X8980Y397D01*
G01X8968Y382D01*
G01X8955Y368D01*
G01X8949Y358D01*
G01X8945Y346D01*
G01X8945Y335D01*
G01X8946Y329D01*
G01X8948Y324D01*
G01X8951Y319D01*
G01X8955Y314D01*
G01X8959Y310D01*
G01X8963Y307D01*
G01X8968Y304D01*
G01X8974Y302D01*
G01X8979Y301D01*
G01X9077Y301D01*
G01X9083Y302D01*
G01X9089Y305D01*
G01X9094Y308D01*
G01X9099Y312D01*
G01X9250Y464D01*
G01X9254Y468D01*
G01X9257Y474D01*
G01X9260Y479D01*
G01X9261Y486D01*
G01X9262Y492D01*
G01X9261Y499D01*
G01X9259Y506D01*
G01X9253Y523D01*
G01X9248Y541D01*
G01X9244Y558D01*
G01X9240Y576D01*
G01X9237Y595D01*
G01X9235Y613D01*
G01X9234Y631D01*
G01X9234Y668D01*
G01X9235Y687D01*
G01X9237Y705D01*
G01X9240Y724D01*
G01X9244Y742D01*
G01X9254Y778D01*
G01X9260Y796D01*
G01X9267Y813D01*
G01X9283Y847D01*
G01X9292Y863D01*
G01X9302Y879D01*
G01X9324Y909D01*
G01X9336Y923D01*
G01X9349Y937D01*
G01X9362Y950D01*
G01X9376Y963D01*
G01X9390Y975D01*
G01X9420Y997D01*
G01X9436Y1007D01*
G01X9452Y1016D01*
G01X9486Y1032D01*
G01X9503Y1039D01*
G01X9521Y1045D01*
G01X9557Y1055D01*
G01X9575Y1059D01*
G01X9594Y1062D01*
G01X9612Y1064D01*
G01X9631Y1065D01*
G01X9668Y1065D01*
G01X9687Y1064D01*
G01X9705Y1062D01*
G01X9724Y1059D01*
G01X9742Y1055D01*
G01X9778Y1045D01*
G01X9796Y1039D01*
G01X9813Y1032D01*
G01X9847Y1016D01*
G01X9863Y1007D01*
G01X9879Y997D01*
G01X9909Y975D01*
G01X9923Y963D01*
G01X9937Y950D01*
G01X9950Y937D01*
G01X9963Y923D01*
G01X9975Y909D01*
G01X9997Y879D01*
G01X10007Y863D01*
G01X10016Y847D01*
G01X10032Y813D01*
G01X10039Y796D01*
G01X10045Y778D01*
G01X10055Y742D01*
G01X10059Y724D01*
G01X10062Y705D01*
G01X10064Y687D01*
G01X10065Y668D01*
G01X10065Y631D01*
G01X10064Y612D01*
G01X10062Y594D01*
G01X10059Y575D01*
G01X10055Y557D01*
G01X10045Y521D01*
G01X10039Y503D01*
G01X10032Y486D01*
G01X10016Y452D01*
G01X10007Y436D01*
G01X9997Y420D01*
G01X9975Y390D01*
G01X9963Y376D01*
G01X9950Y362D01*
G01X9937Y349D01*
G01X9923Y336D01*
G01X9909Y324D01*
G01X9879Y302D01*
G01X9863Y292D01*
G01X9847Y283D01*
G01X9813Y267D01*
G01X9796Y260D01*
G01X9778Y254D01*
G01X9742Y244D01*
G01X9724Y240D01*
G01X9705Y237D01*
G01X9687Y235D01*
G01X9668Y234D01*
G01X9631Y234D01*
G01X9613Y235D01*
G01X9595Y237D01*
G01X9576Y240D01*
G01X9558Y244D01*
G01X9541Y248D01*
G01X9523Y253D01*
G01X9506Y259D01*
G01X9499Y261D01*
G01X9492Y262D01*
G01X9486Y261D01*
G01X9479Y260D01*
G01X9474Y257D01*
G01X9468Y254D01*
G01X9464Y250D01*
G01X9387Y174D01*
G01X9383Y169D01*
G01X9380Y164D01*
G01X9376Y152D01*
G01X9376Y140D01*
G01X9377Y134D01*
G01X9379Y129D01*
G01X9385Y119D01*
G01X9389Y115D01*
G01X9399Y109D01*
G01X9404Y107D01*
G01X9416Y105D01*
G01X20153Y105D01*
G01X20165Y107D01*
G01X20170Y109D01*
G01X20180Y115D01*
G01X20184Y119D01*
G01X20190Y129D01*
G01X20192Y134D01*
G01X20193Y140D01*
G01X20193Y6209D01*
G01X20192Y6215D01*
G01X20190Y6220D01*
G01X20184Y6230D01*
G01X20180Y6234D01*
G01X20170Y6240D01*
G01X20165Y6242D01*
G01X20153Y6244D01*
G37*

%LPC*%
G36*
G01X8669Y5085D02*
G01X8630Y5085D01*
G01X8612Y5083D01*
G01X8574Y5079D01*
G01X8555Y5075D01*
G01X8537Y5070D01*
G01X8518Y5065D01*
G01X8501Y5059D01*
G01X8483Y5052D01*
G01X8465Y5044D01*
G01X8448Y5036D01*
G01X8432Y5027D01*
G01X8415Y5017D01*
G01X8400Y5006D01*
G01X8384Y4995D01*
G01X8369Y4983D01*
G01X8355Y4971D01*
G01X8341Y4958D01*
G01X8328Y4944D01*
G01X8316Y4930D01*
G01X8304Y4915D01*
G01X8293Y4899D01*
G01X8282Y4884D01*
G01X8272Y4867D01*
G01X8263Y4851D01*
G01X8255Y4834D01*
G01X8247Y4816D01*
G01X8240Y4798D01*
G01X8234Y4781D01*
G01X8229Y4762D01*
G01X8224Y4744D01*
G01X8220Y4725D01*
G01X8216Y4687D01*
G01X8214Y4669D01*
G01X8214Y4630D01*
G01X8216Y4612D01*
G01X8220Y4574D01*
G01X8224Y4555D01*
G01X8229Y4537D01*
G01X8234Y4518D01*
G01X8240Y4501D01*
G01X8247Y4483D01*
G01X8255Y4465D01*
G01X8263Y4448D01*
G01X8272Y4432D01*
G01X8282Y4415D01*
G01X8293Y4400D01*
G01X8304Y4384D01*
G01X8316Y4369D01*
G01X8328Y4355D01*
G01X8341Y4341D01*
G01X8355Y4328D01*
G01X8369Y4316D01*
G01X8384Y4304D01*
G01X8400Y4293D01*
G01X8415Y4282D01*
G01X8432Y4272D01*
G01X8448Y4263D01*
G01X8465Y4255D01*
G01X8483Y4247D01*
G01X8501Y4240D01*
G01X8518Y4234D01*
G01X8537Y4229D01*
G01X8555Y4224D01*
G01X8574Y4220D01*
G01X8612Y4216D01*
G01X8630Y4214D01*
G01X8669Y4214D01*
G01X8689Y4216D01*
G01X8708Y4218D01*
G01X8728Y4221D01*
G01X8747Y4225D01*
G01X8785Y4235D01*
G01X8804Y4242D01*
G01X8822Y4249D01*
G01X8840Y4258D01*
G01X8845Y4260D01*
G01X8857Y4262D01*
G01X8864Y4261D01*
G01X8870Y4260D01*
G01X8875Y4257D01*
G01X8881Y4254D01*
G01X8886Y4250D01*
G01X9051Y4085D01*
G01X9061Y4077D01*
G01X9081Y4065D01*
G01X9092Y4060D01*
G01X9103Y4056D01*
G01X9114Y4053D01*
G01X9126Y4050D01*
G01X9150Y4048D01*
G01X9343Y4048D01*
G01X9349Y4047D01*
G01X9354Y4045D01*
G01X9364Y4039D01*
G01X9368Y4035D01*
G01X9374Y4025D01*
G01X9376Y4020D01*
G01X9377Y4014D01*
G01X9377Y4003D01*
G01X9376Y3997D01*
G01X9374Y3992D01*
G01X9368Y3982D01*
G01X9364Y3978D01*
G01X9349Y3965D01*
G01X9335Y3951D01*
G01X9322Y3937D01*
G01X9309Y3922D01*
G01X9298Y3906D01*
G01X9286Y3890D01*
G01X9276Y3874D01*
G01X9266Y3857D01*
G01X9257Y3839D01*
G01X9249Y3821D01*
G01X9235Y3785D01*
G01X9225Y3747D01*
G01X9221Y3728D01*
G01X9218Y3708D01*
G01X9216Y3689D01*
G01X9214Y3669D01*
G01X9214Y3631D01*
G01X9215Y3612D01*
G01X9217Y3594D01*
G01X9220Y3575D01*
G01X9228Y3539D01*
G01X9233Y3521D01*
G01X9239Y3503D01*
G01X9246Y3486D01*
G01X9253Y3468D01*
G01X9261Y3452D01*
G01X9270Y3435D01*
G01X9290Y3403D01*
G01X9301Y3388D01*
G01X9312Y3374D01*
G01X9325Y3359D01*
G01X9337Y3346D01*
G01X9351Y3333D01*
G01X9364Y3320D01*
G01X9379Y3308D01*
G01X9409Y3286D01*
G01X9425Y3276D01*
G01X9441Y3267D01*
G01X9458Y3258D01*
G01X9475Y3251D01*
G01X9480Y3248D01*
G01X9492Y3236D01*
G01X9495Y3231D01*
G01X9497Y3225D01*
G01X9498Y3220D01*
G01X9498Y2058D01*
G01X9497Y2052D01*
G01X9495Y2047D01*
G01X9489Y2037D01*
G01X9485Y2033D01*
G01X9475Y2027D01*
G01X9458Y2019D01*
G01X9442Y2010D01*
G01X9425Y2000D01*
G01X9410Y1989D01*
G01X9394Y1978D01*
G01X9366Y1954D01*
G01X9352Y1940D01*
G01X9339Y1926D01*
G01X9327Y1912D01*
G01X9315Y1897D01*
G01X9304Y1882D01*
G01X9294Y1866D01*
G01X9276Y1832D01*
G01X9268Y1815D01*
G01X9261Y1798D01*
G01X9254Y1780D01*
G01X9249Y1762D01*
G01X9244Y1743D01*
G01X9240Y1725D01*
G01X9237Y1706D01*
G01X9235Y1687D01*
G01X9234Y1668D01*
G01X9234Y1631D01*
G01X9235Y1612D01*
G01X9237Y1594D01*
G01X9240Y1575D01*
G01X9244Y1557D01*
G01X9254Y1521D01*
G01X9260Y1503D01*
G01X9267Y1486D01*
G01X9283Y1452D01*
G01X9292Y1436D01*
G01X9302Y1420D01*
G01X9324Y1390D01*
G01X9336Y1376D01*
G01X9349Y1362D01*
G01X9362Y1349D01*
G01X9376Y1336D01*
G01X9390Y1324D01*
G01X9420Y1302D01*
G01X9436Y1292D01*
G01X9452Y1283D01*
G01X9486Y1267D01*
G01X9503Y1260D01*
G01X9521Y1254D01*
G01X9557Y1244D01*
G01X9575Y1240D01*
G01X9594Y1237D01*
G01X9612Y1235D01*
G01X9631Y1234D01*
G01X9668Y1234D01*
G01X9687Y1235D01*
G01X9705Y1237D01*
G01X9724Y1240D01*
G01X9742Y1244D01*
G01X9778Y1254D01*
G01X9796Y1260D01*
G01X9813Y1267D01*
G01X9847Y1283D01*
G01X9863Y1292D01*
G01X9879Y1302D01*
G01X9909Y1324D01*
G01X9923Y1336D01*
G01X9937Y1349D01*
G01X9950Y1362D01*
G01X9963Y1376D01*
G01X9975Y1390D01*
G01X9997Y1420D01*
G01X10007Y1436D01*
G01X10016Y1452D01*
G01X10032Y1486D01*
G01X10039Y1503D01*
G01X10045Y1521D01*
G01X10055Y1557D01*
G01X10059Y1575D01*
G01X10062Y1594D01*
G01X10064Y1612D01*
G01X10065Y1631D01*
G01X10065Y1668D01*
G01X10064Y1687D01*
G01X10062Y1706D01*
G01X10059Y1725D01*
G01X10055Y1743D01*
G01X10050Y1762D01*
G01X10045Y1780D01*
G01X10038Y1798D01*
G01X10031Y1815D01*
G01X10023Y1832D01*
G01X10005Y1866D01*
G01X9995Y1882D01*
G01X9984Y1897D01*
G01X9972Y1912D01*
G01X9960Y1926D01*
G01X9947Y1940D01*
G01X9933Y1954D01*
G01X9905Y1978D01*
G01X9889Y1989D01*
G01X9874Y2000D01*
G01X9857Y2010D01*
G01X9841Y2019D01*
G01X9824Y2027D01*
G01X9814Y2033D01*
G01X9810Y2037D01*
G01X9804Y2047D01*
G01X9802Y2052D01*
G01X9801Y2058D01*
G01X9801Y3220D01*
G01X9802Y3225D01*
G01X9804Y3231D01*
G01X9807Y3236D01*
G01X9819Y3248D01*
G01X9824Y3251D01*
G01X9841Y3258D01*
G01X9858Y3267D01*
G01X9874Y3276D01*
G01X9890Y3286D01*
G01X9920Y3308D01*
G01X9935Y3320D01*
G01X9948Y3333D01*
G01X9962Y3346D01*
G01X9974Y3359D01*
G01X9987Y3374D01*
G01X9998Y3388D01*
G01X10009Y3403D01*
G01X10029Y3435D01*
G01X10038Y3452D01*
G01X10046Y3468D01*
G01X10053Y3486D01*
G01X10060Y3503D01*
G01X10066Y3521D01*
G01X10071Y3539D01*
G01X10079Y3575D01*
G01X10082Y3594D01*
G01X10084Y3612D01*
G01X10085Y3631D01*
G01X10085Y3650D01*
G01X10084Y3676D01*
G01X10082Y3702D01*
G01X10082Y3713D01*
G01X10083Y3719D01*
G01X10085Y3724D01*
G01X10088Y3729D01*
G01X10091Y3733D01*
G01X10095Y3737D01*
G01X10100Y3741D01*
G01X10105Y3744D01*
G01X10110Y3746D01*
G01X10116Y3747D01*
G01X10128Y3747D01*
G01X10140Y3743D01*
G01X10145Y3740D01*
G01X10150Y3736D01*
G01X10487Y3399D01*
G01X10491Y3394D01*
G01X10494Y3389D01*
G01X10497Y3383D01*
G01X10498Y3377D01*
G01X10498Y2058D01*
G01X10497Y2052D01*
G01X10495Y2047D01*
G01X10489Y2037D01*
G01X10485Y2033D01*
G01X10475Y2027D01*
G01X10458Y2019D01*
G01X10442Y2010D01*
G01X10425Y2000D01*
G01X10410Y1989D01*
G01X10394Y1978D01*
G01X10366Y1954D01*
G01X10352Y1940D01*
G01X10339Y1926D01*
G01X10327Y1912D01*
G01X10315Y1897D01*
G01X10304Y1882D01*
G01X10294Y1866D01*
G01X10276Y1832D01*
G01X10268Y1815D01*
G01X10261Y1798D01*
G01X10254Y1780D01*
G01X10249Y1762D01*
G01X10244Y1743D01*
G01X10240Y1725D01*
G01X10237Y1706D01*
G01X10235Y1687D01*
G01X10234Y1668D01*
G01X10234Y1631D01*
G01X10235Y1612D01*
G01X10237Y1594D01*
G01X10240Y1575D01*
G01X10244Y1557D01*
G01X10254Y1521D01*
G01X10260Y1503D01*
G01X10267Y1486D01*
G01X10283Y1452D01*
G01X10292Y1436D01*
G01X10302Y1420D01*
G01X10324Y1390D01*
G01X10336Y1376D01*
G01X10349Y1362D01*
G01X10362Y1349D01*
G01X10376Y1336D01*
G01X10390Y1324D01*
G01X10420Y1302D01*
G01X10436Y1292D01*
G01X10452Y1283D01*
G01X10486Y1267D01*
G01X10503Y1260D01*
G01X10521Y1254D01*
G01X10557Y1244D01*
G01X10575Y1240D01*
G01X10594Y1237D01*
G01X10612Y1235D01*
G01X10631Y1234D01*
G01X10668Y1234D01*
G01X10687Y1235D01*
G01X10705Y1237D01*
G01X10724Y1240D01*
G01X10742Y1244D01*
G01X10778Y1254D01*
G01X10796Y1260D01*
G01X10813Y1267D01*
G01X10847Y1283D01*
G01X10863Y1292D01*
G01X10879Y1302D01*
G01X10909Y1324D01*
G01X10923Y1336D01*
G01X10937Y1349D01*
G01X10950Y1362D01*
G01X10963Y1376D01*
G01X10975Y1390D01*
G01X10997Y1420D01*
G01X11007Y1436D01*
G01X11016Y1452D01*
G01X11032Y1486D01*
G01X11039Y1503D01*
G01X11045Y1521D01*
G01X11055Y1557D01*
G01X11059Y1575D01*
G01X11062Y1594D01*
G01X11064Y1612D01*
G01X11065Y1631D01*
G01X11065Y1668D01*
G01X11064Y1687D01*
G01X11062Y1706D01*
G01X11059Y1725D01*
G01X11055Y1743D01*
G01X11050Y1762D01*
G01X11045Y1780D01*
G01X11038Y1798D01*
G01X11031Y1815D01*
G01X11023Y1832D01*
G01X11005Y1866D01*
G01X10995Y1882D01*
G01X10984Y1897D01*
G01X10972Y1912D01*
G01X10960Y1926D01*
G01X10947Y1940D01*
G01X10933Y1954D01*
G01X10905Y1978D01*
G01X10889Y1989D01*
G01X10874Y2000D01*
G01X10857Y2010D01*
G01X10841Y2019D01*
G01X10824Y2027D01*
G01X10814Y2033D01*
G01X10810Y2037D01*
G01X10804Y2047D01*
G01X10802Y2052D01*
G01X10801Y2058D01*
G01X10801Y3449D01*
G01X10799Y3473D01*
G01X10796Y3485D01*
G01X10793Y3496D01*
G01X10789Y3507D01*
G01X10784Y3518D01*
G01X10772Y3538D01*
G01X10764Y3548D01*
G01X10006Y4306D01*
G01X9993Y4318D01*
G01X9989Y4322D01*
G01X9985Y4327D01*
G01X9982Y4332D01*
G01X9980Y4337D01*
G01X9978Y4349D01*
G01X9979Y4356D01*
G01X9981Y4362D01*
G01X9983Y4369D01*
G01X9987Y4374D01*
G01X10011Y4406D01*
G01X10021Y4422D01*
G01X10031Y4439D01*
G01X10040Y4457D01*
G01X10048Y4475D01*
G01X10051Y4480D01*
G01X10063Y4492D01*
G01X10068Y4495D01*
G01X10074Y4497D01*
G01X10079Y4498D01*
G01X10177Y4498D01*
G01X10183Y4497D01*
G01X10189Y4494D01*
G01X10194Y4491D01*
G01X10199Y4487D01*
G01X12487Y2199D01*
G01X12491Y2194D01*
G01X12494Y2189D01*
G01X12497Y2183D01*
G01X12498Y2177D01*
G01X12498Y2058D01*
G01X12497Y2052D01*
G01X12495Y2047D01*
G01X12489Y2037D01*
G01X12485Y2033D01*
G01X12475Y2027D01*
G01X12458Y2019D01*
G01X12442Y2010D01*
G01X12425Y2000D01*
G01X12410Y1989D01*
G01X12394Y1978D01*
G01X12366Y1954D01*
G01X12352Y1940D01*
G01X12339Y1926D01*
G01X12327Y1912D01*
G01X12315Y1897D01*
G01X12304Y1882D01*
G01X12294Y1866D01*
G01X12276Y1832D01*
G01X12268Y1815D01*
G01X12261Y1798D01*
G01X12254Y1780D01*
G01X12249Y1762D01*
G01X12244Y1743D01*
G01X12240Y1725D01*
G01X12237Y1706D01*
G01X12235Y1687D01*
G01X12234Y1668D01*
G01X12234Y1631D01*
G01X12235Y1612D01*
G01X12237Y1594D01*
G01X12240Y1575D01*
G01X12244Y1557D01*
G01X12254Y1521D01*
G01X12260Y1503D01*
G01X12267Y1486D01*
G01X12283Y1452D01*
G01X12292Y1436D01*
G01X12302Y1420D01*
G01X12324Y1390D01*
G01X12336Y1376D01*
G01X12349Y1362D01*
G01X12362Y1349D01*
G01X12376Y1336D01*
G01X12390Y1324D01*
G01X12420Y1302D01*
G01X12436Y1292D01*
G01X12452Y1283D01*
G01X12486Y1267D01*
G01X12503Y1260D01*
G01X12521Y1254D01*
G01X12557Y1244D01*
G01X12575Y1240D01*
G01X12594Y1237D01*
G01X12612Y1235D01*
G01X12631Y1234D01*
G01X12668Y1234D01*
G01X12687Y1235D01*
G01X12705Y1237D01*
G01X12724Y1240D01*
G01X12742Y1244D01*
G01X12778Y1254D01*
G01X12796Y1260D01*
G01X12813Y1267D01*
G01X12847Y1283D01*
G01X12863Y1292D01*
G01X12879Y1302D01*
G01X12909Y1324D01*
G01X12923Y1336D01*
G01X12937Y1349D01*
G01X12950Y1362D01*
G01X12963Y1376D01*
G01X12975Y1390D01*
G01X12997Y1420D01*
G01X13007Y1436D01*
G01X13016Y1452D01*
G01X13032Y1486D01*
G01X13039Y1503D01*
G01X13045Y1521D01*
G01X13055Y1557D01*
G01X13059Y1575D01*
G01X13062Y1594D01*
G01X13064Y1612D01*
G01X13065Y1631D01*
G01X13065Y1668D01*
G01X13064Y1687D01*
G01X13062Y1706D01*
G01X13059Y1725D01*
G01X13055Y1743D01*
G01X13050Y1762D01*
G01X13045Y1780D01*
G01X13038Y1798D01*
G01X13031Y1815D01*
G01X13023Y1832D01*
G01X13005Y1866D01*
G01X12995Y1882D01*
G01X12984Y1897D01*
G01X12972Y1912D01*
G01X12960Y1926D01*
G01X12947Y1940D01*
G01X12933Y1954D01*
G01X12905Y1978D01*
G01X12889Y1989D01*
G01X12874Y2000D01*
G01X12857Y2010D01*
G01X12841Y2019D01*
G01X12824Y2027D01*
G01X12814Y2033D01*
G01X12810Y2037D01*
G01X12804Y2047D01*
G01X12802Y2052D01*
G01X12801Y2058D01*
G01X12801Y2249D01*
G01X12799Y2273D01*
G01X12796Y2285D01*
G01X12793Y2296D01*
G01X12789Y2307D01*
G01X12784Y2318D01*
G01X12772Y2338D01*
G01X12764Y2348D01*
G01X10348Y4764D01*
G01X10338Y4772D01*
G01X10318Y4784D01*
G01X10307Y4789D01*
G01X10296Y4793D01*
G01X10285Y4796D01*
G01X10273Y4799D01*
G01X10261Y4800D01*
G01X10250Y4801D01*
G01X10079Y4801D01*
G01X10074Y4802D01*
G01X10068Y4804D01*
G01X10063Y4807D01*
G01X10051Y4819D01*
G01X10048Y4824D01*
G01X10041Y4841D01*
G01X10032Y4858D01*
G01X10023Y4874D01*
G01X10013Y4890D01*
G01X9991Y4920D01*
G01X9979Y4935D01*
G01X9966Y4948D01*
G01X9953Y4962D01*
G01X9940Y4974D01*
G01X9925Y4987D01*
G01X9911Y4998D01*
G01X9896Y5009D01*
G01X9864Y5029D01*
G01X9847Y5038D01*
G01X9831Y5046D01*
G01X9813Y5053D01*
G01X9796Y5060D01*
G01X9778Y5066D01*
G01X9760Y5071D01*
G01X9724Y5079D01*
G01X9705Y5082D01*
G01X9687Y5084D01*
G01X9668Y5085D01*
G01X9630Y5085D01*
G01X9612Y5083D01*
G01X9574Y5079D01*
G01X9555Y5075D01*
G01X9537Y5070D01*
G01X9518Y5065D01*
G01X9501Y5059D01*
G01X9483Y5052D01*
G01X9465Y5044D01*
G01X9448Y5036D01*
G01X9432Y5027D01*
G01X9415Y5017D01*
G01X9400Y5006D01*
G01X9384Y4995D01*
G01X9369Y4983D01*
G01X9355Y4971D01*
G01X9341Y4958D01*
G01X9328Y4944D01*
G01X9316Y4930D01*
G01X9304Y4915D01*
G01X9293Y4899D01*
G01X9282Y4884D01*
G01X9272Y4867D01*
G01X9263Y4851D01*
G01X9255Y4834D01*
G01X9247Y4816D01*
G01X9240Y4798D01*
G01X9234Y4781D01*
G01X9229Y4762D01*
G01X9224Y4744D01*
G01X9220Y4725D01*
G01X9216Y4687D01*
G01X9214Y4669D01*
G01X9214Y4630D01*
G01X9218Y4592D01*
G01X9224Y4554D01*
G01X9229Y4535D01*
G01X9235Y4517D01*
G01X9241Y4498D01*
G01X9248Y4480D01*
G01X9256Y4463D01*
G01X9274Y4429D01*
G01X9284Y4412D01*
G01X9287Y4407D01*
G01X9289Y4402D01*
G01X9290Y4396D01*
G01X9291Y4391D01*
G01X9289Y4379D01*
G01X9287Y4374D01*
G01X9281Y4364D01*
G01X9277Y4360D01*
G01X9267Y4354D01*
G01X9262Y4352D01*
G01X9256Y4351D01*
G01X9222Y4351D01*
G01X9216Y4352D01*
G01X9210Y4355D01*
G01X9205Y4358D01*
G01X9200Y4362D01*
G01X9077Y4485D01*
G01X9073Y4490D01*
G01X9070Y4496D01*
G01X9067Y4501D01*
G01X9066Y4507D01*
G01X9065Y4514D01*
G01X9066Y4520D01*
G01X9067Y4525D01*
G01X9073Y4545D01*
G01X9081Y4587D01*
G01X9083Y4608D01*
G01X9085Y4628D01*
G01X9085Y4669D01*
G01X9083Y4687D01*
G01X9079Y4725D01*
G01X9075Y4744D01*
G01X9070Y4762D01*
G01X9065Y4781D01*
G01X9059Y4798D01*
G01X9052Y4816D01*
G01X9044Y4834D01*
G01X9036Y4851D01*
G01X9027Y4867D01*
G01X9017Y4884D01*
G01X9006Y4899D01*
G01X8995Y4915D01*
G01X8983Y4930D01*
G01X8971Y4944D01*
G01X8958Y4958D01*
G01X8944Y4971D01*
G01X8930Y4983D01*
G01X8915Y4995D01*
G01X8899Y5006D01*
G01X8884Y5017D01*
G01X8867Y5027D01*
G01X8851Y5036D01*
G01X8834Y5044D01*
G01X8816Y5052D01*
G01X8798Y5059D01*
G01X8781Y5065D01*
G01X8762Y5070D01*
G01X8744Y5075D01*
G01X8725Y5079D01*
G01X8687Y5083D01*
G01X8669Y5085D01*
G37*
G36*
G01X6669Y5085D02*
G01X6630Y5085D01*
G01X6612Y5083D01*
G01X6574Y5079D01*
G01X6555Y5075D01*
G01X6537Y5070D01*
G01X6518Y5065D01*
G01X6501Y5059D01*
G01X6483Y5052D01*
G01X6465Y5044D01*
G01X6448Y5036D01*
G01X6432Y5027D01*
G01X6415Y5017D01*
G01X6400Y5006D01*
G01X6384Y4995D01*
G01X6369Y4983D01*
G01X6355Y4971D01*
G01X6341Y4958D01*
G01X6328Y4944D01*
G01X6316Y4930D01*
G01X6304Y4915D01*
G01X6293Y4899D01*
G01X6282Y4884D01*
G01X6272Y4867D01*
G01X6263Y4851D01*
G01X6255Y4834D01*
G01X6247Y4816D01*
G01X6240Y4798D01*
G01X6234Y4781D01*
G01X6229Y4762D01*
G01X6224Y4744D01*
G01X6220Y4725D01*
G01X6216Y4687D01*
G01X6214Y4669D01*
G01X6214Y4630D01*
G01X6216Y4612D01*
G01X6220Y4574D01*
G01X6224Y4555D01*
G01X6229Y4537D01*
G01X6234Y4518D01*
G01X6240Y4501D01*
G01X6247Y4483D01*
G01X6255Y4465D01*
G01X6263Y4448D01*
G01X6272Y4432D01*
G01X6282Y4415D01*
G01X6293Y4400D01*
G01X6304Y4384D01*
G01X6316Y4369D01*
G01X6328Y4355D01*
G01X6341Y4341D01*
G01X6355Y4328D01*
G01X6369Y4316D01*
G01X6384Y4304D01*
G01X6400Y4293D01*
G01X6415Y4282D01*
G01X6432Y4272D01*
G01X6448Y4263D01*
G01X6465Y4255D01*
G01X6483Y4247D01*
G01X6501Y4240D01*
G01X6518Y4234D01*
G01X6537Y4229D01*
G01X6555Y4224D01*
G01X6574Y4220D01*
G01X6612Y4216D01*
G01X6630Y4214D01*
G01X6669Y4214D01*
G01X6687Y4216D01*
G01X6725Y4220D01*
G01X6744Y4224D01*
G01X6762Y4229D01*
G01X6781Y4234D01*
G01X6798Y4240D01*
G01X6816Y4247D01*
G01X6834Y4255D01*
G01X6851Y4263D01*
G01X6867Y4272D01*
G01X6884Y4282D01*
G01X6899Y4293D01*
G01X6915Y4304D01*
G01X6930Y4316D01*
G01X6944Y4328D01*
G01X6958Y4341D01*
G01X6971Y4355D01*
G01X6983Y4369D01*
G01X6995Y4384D01*
G01X7006Y4400D01*
G01X7017Y4415D01*
G01X7027Y4432D01*
G01X7036Y4448D01*
G01X7044Y4465D01*
G01X7052Y4483D01*
G01X7059Y4501D01*
G01X7065Y4518D01*
G01X7070Y4537D01*
G01X7075Y4555D01*
G01X7079Y4574D01*
G01X7083Y4612D01*
G01X7085Y4630D01*
G01X7085Y4669D01*
G01X7083Y4687D01*
G01X7079Y4725D01*
G01X7075Y4744D01*
G01X7070Y4762D01*
G01X7065Y4781D01*
G01X7059Y4798D01*
G01X7052Y4816D01*
G01X7044Y4834D01*
G01X7036Y4851D01*
G01X7027Y4867D01*
G01X7017Y4884D01*
G01X7006Y4899D01*
G01X6995Y4915D01*
G01X6983Y4930D01*
G01X6971Y4944D01*
G01X6958Y4958D01*
G01X6944Y4971D01*
G01X6930Y4983D01*
G01X6915Y4995D01*
G01X6899Y5006D01*
G01X6884Y5017D01*
G01X6867Y5027D01*
G01X6851Y5036D01*
G01X6834Y5044D01*
G01X6816Y5052D01*
G01X6798Y5059D01*
G01X6781Y5065D01*
G01X6762Y5070D01*
G01X6744Y5075D01*
G01X6725Y5079D01*
G01X6687Y5083D01*
G01X6669Y5085D01*
G37*
G36*
G01X19974Y2065D02*
G01X19325Y2065D01*
G01X19316Y2064D01*
G01X19307Y2062D01*
G01X19298Y2059D01*
G01X19290Y2055D01*
G01X19281Y2050D01*
G01X19274Y2045D01*
G01X19266Y2039D01*
G01X19260Y2033D01*
G01X19254Y2025D01*
G01X19249Y2018D01*
G01X19244Y2009D01*
G01X19240Y2001D01*
G01X19237Y1992D01*
G01X19235Y1983D01*
G01X19234Y1974D01*
G01X19234Y1325D01*
G01X19235Y1316D01*
G01X19237Y1307D01*
G01X19240Y1298D01*
G01X19244Y1290D01*
G01X19249Y1281D01*
G01X19254Y1274D01*
G01X19260Y1266D01*
G01X19266Y1260D01*
G01X19274Y1254D01*
G01X19281Y1249D01*
G01X19290Y1244D01*
G01X19298Y1240D01*
G01X19307Y1237D01*
G01X19316Y1235D01*
G01X19325Y1234D01*
G01X19974Y1234D01*
G01X19983Y1235D01*
G01X19992Y1237D01*
G01X20001Y1240D01*
G01X20009Y1244D01*
G01X20018Y1249D01*
G01X20025Y1254D01*
G01X20033Y1260D01*
G01X20039Y1266D01*
G01X20045Y1274D01*
G01X20050Y1281D01*
G01X20055Y1290D01*
G01X20059Y1298D01*
G01X20062Y1307D01*
G01X20064Y1316D01*
G01X20065Y1325D01*
G01X20065Y1974D01*
G01X20064Y1983D01*
G01X20062Y1992D01*
G01X20059Y2001D01*
G01X20055Y2009D01*
G01X20050Y2018D01*
G01X20045Y2025D01*
G01X20039Y2033D01*
G01X20033Y2039D01*
G01X20025Y2045D01*
G01X20018Y2050D01*
G01X20009Y2055D01*
G01X20001Y2059D01*
G01X19992Y2062D01*
G01X19983Y2064D01*
G01X19974Y2065D01*
G37*
G36*
G01X668Y1065D02*
G01X631Y1065D01*
G01X612Y1064D01*
G01X594Y1062D01*
G01X575Y1059D01*
G01X557Y1055D01*
G01X521Y1045D01*
G01X503Y1039D01*
G01X486Y1032D01*
G01X452Y1016D01*
G01X436Y1007D01*
G01X420Y997D01*
G01X390Y975D01*
G01X376Y963D01*
G01X362Y950D01*
G01X349Y937D01*
G01X336Y923D01*
G01X324Y909D01*
G01X302Y879D01*
G01X292Y863D01*
G01X283Y847D01*
G01X267Y813D01*
G01X260Y796D01*
G01X254Y778D01*
G01X244Y742D01*
G01X240Y724D01*
G01X237Y705D01*
G01X235Y687D01*
G01X234Y668D01*
G01X234Y631D01*
G01X235Y612D01*
G01X237Y594D01*
G01X240Y575D01*
G01X244Y557D01*
G01X254Y521D01*
G01X260Y503D01*
G01X267Y486D01*
G01X283Y452D01*
G01X292Y436D01*
G01X302Y420D01*
G01X324Y390D01*
G01X336Y376D01*
G01X349Y362D01*
G01X362Y349D01*
G01X376Y336D01*
G01X390Y324D01*
G01X420Y302D01*
G01X436Y292D01*
G01X452Y283D01*
G01X486Y267D01*
G01X503Y260D01*
G01X521Y254D01*
G01X557Y244D01*
G01X575Y240D01*
G01X594Y237D01*
G01X612Y235D01*
G01X631Y234D01*
G01X668Y234D01*
G01X687Y235D01*
G01X705Y237D01*
G01X724Y240D01*
G01X742Y244D01*
G01X778Y254D01*
G01X796Y260D01*
G01X813Y267D01*
G01X847Y283D01*
G01X863Y292D01*
G01X879Y302D01*
G01X909Y324D01*
G01X923Y336D01*
G01X937Y349D01*
G01X950Y362D01*
G01X963Y376D01*
G01X975Y390D01*
G01X997Y420D01*
G01X1007Y436D01*
G01X1016Y452D01*
G01X1032Y486D01*
G01X1039Y503D01*
G01X1045Y521D01*
G01X1055Y557D01*
G01X1059Y575D01*
G01X1062Y594D01*
G01X1064Y612D01*
G01X1065Y631D01*
G01X1065Y668D01*
G01X1064Y687D01*
G01X1062Y705D01*
G01X1059Y724D01*
G01X1055Y742D01*
G01X1045Y778D01*
G01X1039Y796D01*
G01X1032Y813D01*
G01X1016Y847D01*
G01X1007Y863D01*
G01X997Y879D01*
G01X975Y909D01*
G01X963Y923D01*
G01X950Y937D01*
G01X937Y950D01*
G01X923Y963D01*
G01X909Y975D01*
G01X879Y997D01*
G01X863Y1007D01*
G01X847Y1016D01*
G01X813Y1032D01*
G01X796Y1039D01*
G01X778Y1045D01*
G01X742Y1055D01*
G01X724Y1059D01*
G01X705Y1062D01*
G01X687Y1064D01*
G01X668Y1065D01*
G37*
G36*
G01X1668Y1065D02*
G01X1631Y1065D01*
G01X1612Y1064D01*
G01X1594Y1062D01*
G01X1575Y1059D01*
G01X1557Y1055D01*
G01X1521Y1045D01*
G01X1503Y1039D01*
G01X1486Y1032D01*
G01X1452Y1016D01*
G01X1436Y1007D01*
G01X1420Y997D01*
G01X1390Y975D01*
G01X1376Y963D01*
G01X1362Y950D01*
G01X1349Y937D01*
G01X1336Y923D01*
G01X1324Y909D01*
G01X1302Y879D01*
G01X1292Y863D01*
G01X1283Y847D01*
G01X1267Y813D01*
G01X1260Y796D01*
G01X1254Y778D01*
G01X1244Y742D01*
G01X1240Y724D01*
G01X1237Y705D01*
G01X1235Y687D01*
G01X1234Y668D01*
G01X1234Y631D01*
G01X1235Y612D01*
G01X1237Y594D01*
G01X1240Y575D01*
G01X1244Y557D01*
G01X1254Y521D01*
G01X1260Y503D01*
G01X1267Y486D01*
G01X1283Y452D01*
G01X1292Y436D01*
G01X1302Y420D01*
G01X1324Y390D01*
G01X1336Y376D01*
G01X1349Y362D01*
G01X1362Y349D01*
G01X1376Y336D01*
G01X1390Y324D01*
G01X1420Y302D01*
G01X1436Y292D01*
G01X1452Y283D01*
G01X1486Y267D01*
G01X1503Y260D01*
G01X1521Y254D01*
G01X1557Y244D01*
G01X1575Y240D01*
G01X1594Y237D01*
G01X1612Y235D01*
G01X1631Y234D01*
G01X1668Y234D01*
G01X1687Y235D01*
G01X1705Y237D01*
G01X1724Y240D01*
G01X1742Y244D01*
G01X1778Y254D01*
G01X1796Y260D01*
G01X1813Y267D01*
G01X1847Y283D01*
G01X1863Y292D01*
G01X1879Y302D01*
G01X1909Y324D01*
G01X1923Y336D01*
G01X1937Y349D01*
G01X1950Y362D01*
G01X1963Y376D01*
G01X1975Y390D01*
G01X1997Y420D01*
G01X2007Y436D01*
G01X2016Y452D01*
G01X2032Y486D01*
G01X2039Y503D01*
G01X2045Y521D01*
G01X2055Y557D01*
G01X2059Y575D01*
G01X2062Y594D01*
G01X2064Y612D01*
G01X2065Y631D01*
G01X2065Y668D01*
G01X2064Y687D01*
G01X2062Y705D01*
G01X2059Y724D01*
G01X2055Y742D01*
G01X2045Y778D01*
G01X2039Y796D01*
G01X2032Y813D01*
G01X2016Y847D01*
G01X2007Y863D01*
G01X1997Y879D01*
G01X1975Y909D01*
G01X1963Y923D01*
G01X1950Y937D01*
G01X1937Y950D01*
G01X1923Y963D01*
G01X1909Y975D01*
G01X1879Y997D01*
G01X1863Y1007D01*
G01X1847Y1016D01*
G01X1813Y1032D01*
G01X1796Y1039D01*
G01X1778Y1045D01*
G01X1742Y1055D01*
G01X1724Y1059D01*
G01X1705Y1062D01*
G01X1687Y1064D01*
G01X1668Y1065D01*
G37*
G36*
G01X11668Y1065D02*
G01X11631Y1065D01*
G01X11612Y1064D01*
G01X11594Y1062D01*
G01X11575Y1059D01*
G01X11557Y1055D01*
G01X11521Y1045D01*
G01X11503Y1039D01*
G01X11486Y1032D01*
G01X11452Y1016D01*
G01X11436Y1007D01*
G01X11420Y997D01*
G01X11390Y975D01*
G01X11376Y963D01*
G01X11362Y950D01*
G01X11349Y937D01*
G01X11336Y923D01*
G01X11324Y909D01*
G01X11302Y879D01*
G01X11292Y863D01*
G01X11283Y847D01*
G01X11267Y813D01*
G01X11260Y796D01*
G01X11254Y778D01*
G01X11244Y742D01*
G01X11240Y724D01*
G01X11237Y705D01*
G01X11235Y687D01*
G01X11234Y668D01*
G01X11234Y631D01*
G01X11235Y612D01*
G01X11237Y594D01*
G01X11240Y575D01*
G01X11244Y557D01*
G01X11254Y521D01*
G01X11260Y503D01*
G01X11267Y486D01*
G01X11283Y452D01*
G01X11292Y436D01*
G01X11302Y420D01*
G01X11324Y390D01*
G01X11336Y376D01*
G01X11349Y362D01*
G01X11362Y349D01*
G01X11376Y336D01*
G01X11390Y324D01*
G01X11420Y302D01*
G01X11436Y292D01*
G01X11452Y283D01*
G01X11486Y267D01*
G01X11503Y260D01*
G01X11521Y254D01*
G01X11557Y244D01*
G01X11575Y240D01*
G01X11594Y237D01*
G01X11612Y235D01*
G01X11631Y234D01*
G01X11668Y234D01*
G01X11687Y235D01*
G01X11705Y237D01*
G01X11724Y240D01*
G01X11742Y244D01*
G01X11778Y254D01*
G01X11796Y260D01*
G01X11813Y267D01*
G01X11847Y283D01*
G01X11863Y292D01*
G01X11879Y302D01*
G01X11909Y324D01*
G01X11923Y336D01*
G01X11937Y349D01*
G01X11950Y362D01*
G01X11963Y376D01*
G01X11975Y390D01*
G01X11997Y420D01*
G01X12007Y436D01*
G01X12016Y452D01*
G01X12032Y486D01*
G01X12039Y503D01*
G01X12045Y521D01*
G01X12055Y557D01*
G01X12059Y575D01*
G01X12062Y594D01*
G01X12064Y612D01*
G01X12065Y631D01*
G01X12065Y668D01*
G01X12064Y687D01*
G01X12062Y705D01*
G01X12059Y724D01*
G01X12055Y742D01*
G01X12045Y778D01*
G01X12039Y796D01*
G01X12032Y813D01*
G01X12016Y847D01*
G01X12007Y863D01*
G01X11997Y879D01*
G01X11975Y909D01*
G01X11963Y923D01*
G01X11950Y937D01*
G01X11937Y950D01*
G01X11923Y963D01*
G01X11909Y975D01*
G01X11879Y997D01*
G01X11863Y1007D01*
G01X11847Y1016D01*
G01X11813Y1032D01*
G01X11796Y1039D01*
G01X11778Y1045D01*
G01X11742Y1055D01*
G01X11724Y1059D01*
G01X11705Y1062D01*
G01X11687Y1064D01*
G01X11668Y1065D01*
G37*
G36*
G01X18668Y2065D02*
G01X18631Y2065D01*
G01X18612Y2064D01*
G01X18594Y2062D01*
G01X18575Y2059D01*
G01X18557Y2055D01*
G01X18521Y2045D01*
G01X18503Y2039D01*
G01X18486Y2032D01*
G01X18452Y2016D01*
G01X18436Y2007D01*
G01X18420Y1997D01*
G01X18390Y1975D01*
G01X18376Y1963D01*
G01X18362Y1950D01*
G01X18349Y1937D01*
G01X18336Y1923D01*
G01X18324Y1909D01*
G01X18302Y1879D01*
G01X18292Y1863D01*
G01X18283Y1847D01*
G01X18267Y1813D01*
G01X18260Y1796D01*
G01X18254Y1778D01*
G01X18244Y1742D01*
G01X18240Y1724D01*
G01X18237Y1705D01*
G01X18235Y1687D01*
G01X18234Y1668D01*
G01X18234Y1631D01*
G01X18235Y1612D01*
G01X18237Y1594D01*
G01X18240Y1575D01*
G01X18244Y1557D01*
G01X18254Y1521D01*
G01X18260Y1503D01*
G01X18267Y1486D01*
G01X18283Y1452D01*
G01X18292Y1436D01*
G01X18302Y1420D01*
G01X18324Y1390D01*
G01X18336Y1376D01*
G01X18349Y1362D01*
G01X18362Y1349D01*
G01X18376Y1336D01*
G01X18390Y1324D01*
G01X18420Y1302D01*
G01X18436Y1292D01*
G01X18452Y1283D01*
G01X18486Y1267D01*
G01X18503Y1260D01*
G01X18521Y1254D01*
G01X18557Y1244D01*
G01X18575Y1240D01*
G01X18594Y1237D01*
G01X18612Y1235D01*
G01X18631Y1234D01*
G01X18668Y1234D01*
G01X18687Y1235D01*
G01X18705Y1237D01*
G01X18724Y1240D01*
G01X18742Y1244D01*
G01X18778Y1254D01*
G01X18796Y1260D01*
G01X18813Y1267D01*
G01X18847Y1283D01*
G01X18863Y1292D01*
G01X18879Y1302D01*
G01X18909Y1324D01*
G01X18923Y1336D01*
G01X18937Y1349D01*
G01X18950Y1362D01*
G01X18963Y1376D01*
G01X18975Y1390D01*
G01X18997Y1420D01*
G01X19007Y1436D01*
G01X19016Y1452D01*
G01X19032Y1486D01*
G01X19039Y1503D01*
G01X19045Y1521D01*
G01X19055Y1557D01*
G01X19059Y1575D01*
G01X19062Y1594D01*
G01X19064Y1612D01*
G01X19065Y1631D01*
G01X19065Y1668D01*
G01X19064Y1687D01*
G01X19062Y1705D01*
G01X19059Y1724D01*
G01X19055Y1742D01*
G01X19045Y1778D01*
G01X19039Y1796D01*
G01X19032Y1813D01*
G01X19016Y1847D01*
G01X19007Y1863D01*
G01X18997Y1879D01*
G01X18975Y1909D01*
G01X18963Y1923D01*
G01X18950Y1937D01*
G01X18937Y1950D01*
G01X18923Y1963D01*
G01X18909Y1975D01*
G01X18879Y1997D01*
G01X18863Y2007D01*
G01X18847Y2016D01*
G01X18813Y2032D01*
G01X18796Y2039D01*
G01X18778Y2045D01*
G01X18742Y2055D01*
G01X18724Y2059D01*
G01X18705Y2062D01*
G01X18687Y2064D01*
G01X18668Y2065D01*
G37*
G36*
G01X4668Y1065D02*
G01X4631Y1065D01*
G01X4612Y1064D01*
G01X4594Y1062D01*
G01X4575Y1059D01*
G01X4557Y1055D01*
G01X4521Y1045D01*
G01X4503Y1039D01*
G01X4486Y1032D01*
G01X4452Y1016D01*
G01X4436Y1007D01*
G01X4420Y997D01*
G01X4390Y975D01*
G01X4376Y963D01*
G01X4362Y950D01*
G01X4349Y937D01*
G01X4336Y923D01*
G01X4324Y909D01*
G01X4302Y879D01*
G01X4292Y863D01*
G01X4283Y847D01*
G01X4267Y813D01*
G01X4260Y796D01*
G01X4254Y778D01*
G01X4244Y742D01*
G01X4240Y724D01*
G01X4237Y705D01*
G01X4235Y687D01*
G01X4234Y668D01*
G01X4234Y631D01*
G01X4235Y612D01*
G01X4237Y594D01*
G01X4240Y575D01*
G01X4244Y557D01*
G01X4254Y521D01*
G01X4260Y503D01*
G01X4267Y486D01*
G01X4283Y452D01*
G01X4292Y436D01*
G01X4302Y420D01*
G01X4324Y390D01*
G01X4336Y376D01*
G01X4349Y362D01*
G01X4362Y349D01*
G01X4376Y336D01*
G01X4390Y324D01*
G01X4420Y302D01*
G01X4436Y292D01*
G01X4452Y283D01*
G01X4486Y267D01*
G01X4503Y260D01*
G01X4521Y254D01*
G01X4557Y244D01*
G01X4575Y240D01*
G01X4594Y237D01*
G01X4612Y235D01*
G01X4631Y234D01*
G01X4668Y234D01*
G01X4687Y235D01*
G01X4705Y237D01*
G01X4724Y240D01*
G01X4742Y244D01*
G01X4778Y254D01*
G01X4796Y260D01*
G01X4813Y267D01*
G01X4847Y283D01*
G01X4863Y292D01*
G01X4879Y302D01*
G01X4909Y324D01*
G01X4923Y336D01*
G01X4937Y349D01*
G01X4950Y362D01*
G01X4963Y376D01*
G01X4975Y390D01*
G01X4997Y420D01*
G01X5007Y436D01*
G01X5016Y452D01*
G01X5032Y486D01*
G01X5039Y503D01*
G01X5045Y521D01*
G01X5055Y557D01*
G01X5059Y575D01*
G01X5062Y594D01*
G01X5064Y612D01*
G01X5065Y631D01*
G01X5065Y668D01*
G01X5064Y687D01*
G01X5062Y705D01*
G01X5059Y724D01*
G01X5055Y742D01*
G01X5045Y778D01*
G01X5039Y796D01*
G01X5032Y813D01*
G01X5016Y847D01*
G01X5007Y863D01*
G01X4997Y879D01*
G01X4975Y909D01*
G01X4963Y923D01*
G01X4950Y937D01*
G01X4937Y950D01*
G01X4923Y963D01*
G01X4909Y975D01*
G01X4879Y997D01*
G01X4863Y1007D01*
G01X4847Y1016D01*
G01X4813Y1032D01*
G01X4796Y1039D01*
G01X4778Y1045D01*
G01X4742Y1055D01*
G01X4724Y1059D01*
G01X4705Y1062D01*
G01X4687Y1064D01*
G01X4668Y1065D01*
G37*
G36*
G01X2668Y2065D02*
G01X2631Y2065D01*
G01X2612Y2064D01*
G01X2594Y2062D01*
G01X2575Y2059D01*
G01X2557Y2055D01*
G01X2521Y2045D01*
G01X2503Y2039D01*
G01X2486Y2032D01*
G01X2452Y2016D01*
G01X2436Y2007D01*
G01X2420Y1997D01*
G01X2390Y1975D01*
G01X2376Y1963D01*
G01X2362Y1950D01*
G01X2349Y1937D01*
G01X2336Y1923D01*
G01X2324Y1909D01*
G01X2302Y1879D01*
G01X2292Y1863D01*
G01X2283Y1847D01*
G01X2267Y1813D01*
G01X2260Y1796D01*
G01X2254Y1778D01*
G01X2244Y1742D01*
G01X2240Y1724D01*
G01X2237Y1705D01*
G01X2235Y1687D01*
G01X2234Y1668D01*
G01X2234Y1631D01*
G01X2235Y1612D01*
G01X2237Y1594D01*
G01X2240Y1575D01*
G01X2244Y1557D01*
G01X2254Y1521D01*
G01X2260Y1503D01*
G01X2267Y1486D01*
G01X2283Y1452D01*
G01X2292Y1436D01*
G01X2302Y1420D01*
G01X2324Y1390D01*
G01X2336Y1376D01*
G01X2349Y1362D01*
G01X2362Y1349D01*
G01X2376Y1336D01*
G01X2390Y1324D01*
G01X2420Y1302D01*
G01X2436Y1292D01*
G01X2452Y1283D01*
G01X2486Y1267D01*
G01X2503Y1260D01*
G01X2521Y1254D01*
G01X2557Y1244D01*
G01X2575Y1240D01*
G01X2594Y1237D01*
G01X2612Y1235D01*
G01X2631Y1234D01*
G01X2668Y1234D01*
G01X2687Y1235D01*
G01X2705Y1237D01*
G01X2724Y1240D01*
G01X2742Y1244D01*
G01X2778Y1254D01*
G01X2796Y1260D01*
G01X2813Y1267D01*
G01X2847Y1283D01*
G01X2863Y1292D01*
G01X2879Y1302D01*
G01X2909Y1324D01*
G01X2923Y1336D01*
G01X2937Y1349D01*
G01X2950Y1362D01*
G01X2963Y1376D01*
G01X2975Y1390D01*
G01X2997Y1420D01*
G01X3007Y1436D01*
G01X3016Y1452D01*
G01X3032Y1486D01*
G01X3039Y1503D01*
G01X3045Y1521D01*
G01X3055Y1557D01*
G01X3059Y1575D01*
G01X3062Y1594D01*
G01X3064Y1612D01*
G01X3065Y1631D01*
G01X3065Y1668D01*
G01X3064Y1687D01*
G01X3062Y1705D01*
G01X3059Y1724D01*
G01X3055Y1742D01*
G01X3045Y1778D01*
G01X3039Y1796D01*
G01X3032Y1813D01*
G01X3016Y1847D01*
G01X3007Y1863D01*
G01X2997Y1879D01*
G01X2975Y1909D01*
G01X2963Y1923D01*
G01X2950Y1937D01*
G01X2937Y1950D01*
G01X2923Y1963D01*
G01X2909Y1975D01*
G01X2879Y1997D01*
G01X2863Y2007D01*
G01X2847Y2016D01*
G01X2813Y2032D01*
G01X2796Y2039D01*
G01X2778Y2045D01*
G01X2742Y2055D01*
G01X2724Y2059D01*
G01X2705Y2062D01*
G01X2687Y2064D01*
G01X2668Y2065D01*
G37*
G36*
G01X19668Y1065D02*
G01X19631Y1065D01*
G01X19612Y1064D01*
G01X19594Y1062D01*
G01X19575Y1059D01*
G01X19557Y1055D01*
G01X19521Y1045D01*
G01X19503Y1039D01*
G01X19486Y1032D01*
G01X19452Y1016D01*
G01X19436Y1007D01*
G01X19420Y997D01*
G01X19390Y975D01*
G01X19376Y963D01*
G01X19362Y950D01*
G01X19349Y937D01*
G01X19336Y923D01*
G01X19324Y909D01*
G01X19302Y879D01*
G01X19292Y863D01*
G01X19283Y847D01*
G01X19267Y813D01*
G01X19260Y796D01*
G01X19254Y778D01*
G01X19244Y742D01*
G01X19240Y724D01*
G01X19237Y705D01*
G01X19235Y687D01*
G01X19234Y668D01*
G01X19234Y631D01*
G01X19235Y612D01*
G01X19237Y594D01*
G01X19240Y575D01*
G01X19244Y557D01*
G01X19254Y521D01*
G01X19260Y503D01*
G01X19267Y486D01*
G01X19283Y452D01*
G01X19292Y436D01*
G01X19302Y420D01*
G01X19324Y390D01*
G01X19336Y376D01*
G01X19349Y362D01*
G01X19362Y349D01*
G01X19376Y336D01*
G01X19390Y324D01*
G01X19420Y302D01*
G01X19436Y292D01*
G01X19452Y283D01*
G01X19486Y267D01*
G01X19503Y260D01*
G01X19521Y254D01*
G01X19557Y244D01*
G01X19575Y240D01*
G01X19594Y237D01*
G01X19612Y235D01*
G01X19631Y234D01*
G01X19668Y234D01*
G01X19687Y235D01*
G01X19705Y237D01*
G01X19724Y240D01*
G01X19742Y244D01*
G01X19778Y254D01*
G01X19796Y260D01*
G01X19813Y267D01*
G01X19847Y283D01*
G01X19863Y292D01*
G01X19879Y302D01*
G01X19909Y324D01*
G01X19923Y336D01*
G01X19937Y349D01*
G01X19950Y362D01*
G01X19963Y376D01*
G01X19975Y390D01*
G01X19997Y420D01*
G01X20007Y436D01*
G01X20016Y452D01*
G01X20032Y486D01*
G01X20039Y503D01*
G01X20045Y521D01*
G01X20055Y557D01*
G01X20059Y575D01*
G01X20062Y594D01*
G01X20064Y612D01*
G01X20065Y631D01*
G01X20065Y668D01*
G01X20064Y687D01*
G01X20062Y705D01*
G01X20059Y724D01*
G01X20055Y742D01*
G01X20045Y778D01*
G01X20039Y796D01*
G01X20032Y813D01*
G01X20016Y847D01*
G01X20007Y863D01*
G01X19997Y879D01*
G01X19975Y909D01*
G01X19963Y923D01*
G01X19950Y937D01*
G01X19937Y950D01*
G01X19923Y963D01*
G01X19909Y975D01*
G01X19879Y997D01*
G01X19863Y1007D01*
G01X19847Y1016D01*
G01X19813Y1032D01*
G01X19796Y1039D01*
G01X19778Y1045D01*
G01X19742Y1055D01*
G01X19724Y1059D01*
G01X19705Y1062D01*
G01X19687Y1064D01*
G01X19668Y1065D01*
G37*
G36*
G01X16668Y2065D02*
G01X16631Y2065D01*
G01X16612Y2064D01*
G01X16594Y2062D01*
G01X16575Y2059D01*
G01X16557Y2055D01*
G01X16521Y2045D01*
G01X16503Y2039D01*
G01X16486Y2032D01*
G01X16452Y2016D01*
G01X16436Y2007D01*
G01X16420Y1997D01*
G01X16390Y1975D01*
G01X16376Y1963D01*
G01X16362Y1950D01*
G01X16349Y1937D01*
G01X16336Y1923D01*
G01X16324Y1909D01*
G01X16302Y1879D01*
G01X16292Y1863D01*
G01X16283Y1847D01*
G01X16267Y1813D01*
G01X16260Y1796D01*
G01X16254Y1778D01*
G01X16244Y1742D01*
G01X16240Y1724D01*
G01X16237Y1705D01*
G01X16235Y1687D01*
G01X16234Y1668D01*
G01X16234Y1631D01*
G01X16235Y1612D01*
G01X16237Y1594D01*
G01X16240Y1575D01*
G01X16244Y1557D01*
G01X16254Y1521D01*
G01X16260Y1503D01*
G01X16267Y1486D01*
G01X16283Y1452D01*
G01X16292Y1436D01*
G01X16302Y1420D01*
G01X16324Y1390D01*
G01X16336Y1376D01*
G01X16349Y1362D01*
G01X16362Y1349D01*
G01X16376Y1336D01*
G01X16390Y1324D01*
G01X16420Y1302D01*
G01X16436Y1292D01*
G01X16452Y1283D01*
G01X16486Y1267D01*
G01X16503Y1260D01*
G01X16521Y1254D01*
G01X16557Y1244D01*
G01X16575Y1240D01*
G01X16594Y1237D01*
G01X16612Y1235D01*
G01X16631Y1234D01*
G01X16668Y1234D01*
G01X16687Y1235D01*
G01X16705Y1237D01*
G01X16724Y1240D01*
G01X16742Y1244D01*
G01X16778Y1254D01*
G01X16796Y1260D01*
G01X16813Y1267D01*
G01X16847Y1283D01*
G01X16863Y1292D01*
G01X16879Y1302D01*
G01X16909Y1324D01*
G01X16923Y1336D01*
G01X16937Y1349D01*
G01X16950Y1362D01*
G01X16963Y1376D01*
G01X16975Y1390D01*
G01X16997Y1420D01*
G01X17007Y1436D01*
G01X17016Y1452D01*
G01X17032Y1486D01*
G01X17039Y1503D01*
G01X17045Y1521D01*
G01X17055Y1557D01*
G01X17059Y1575D01*
G01X17062Y1594D01*
G01X17064Y1612D01*
G01X17065Y1631D01*
G01X17065Y1668D01*
G01X17064Y1687D01*
G01X17062Y1705D01*
G01X17059Y1724D01*
G01X17055Y1742D01*
G01X17045Y1778D01*
G01X17039Y1796D01*
G01X17032Y1813D01*
G01X17016Y1847D01*
G01X17007Y1863D01*
G01X16997Y1879D01*
G01X16975Y1909D01*
G01X16963Y1923D01*
G01X16950Y1937D01*
G01X16937Y1950D01*
G01X16923Y1963D01*
G01X16909Y1975D01*
G01X16879Y1997D01*
G01X16863Y2007D01*
G01X16847Y2016D01*
G01X16813Y2032D01*
G01X16796Y2039D01*
G01X16778Y2045D01*
G01X16742Y2055D01*
G01X16724Y2059D01*
G01X16705Y2062D01*
G01X16687Y2064D01*
G01X16668Y2065D01*
G37*
G36*
G01X2668Y1065D02*
G01X2631Y1065D01*
G01X2612Y1064D01*
G01X2594Y1062D01*
G01X2575Y1059D01*
G01X2557Y1055D01*
G01X2521Y1045D01*
G01X2503Y1039D01*
G01X2486Y1032D01*
G01X2452Y1016D01*
G01X2436Y1007D01*
G01X2420Y997D01*
G01X2390Y975D01*
G01X2376Y963D01*
G01X2362Y950D01*
G01X2349Y937D01*
G01X2336Y923D01*
G01X2324Y909D01*
G01X2302Y879D01*
G01X2292Y863D01*
G01X2283Y847D01*
G01X2267Y813D01*
G01X2260Y796D01*
G01X2254Y778D01*
G01X2244Y742D01*
G01X2240Y724D01*
G01X2237Y705D01*
G01X2235Y687D01*
G01X2234Y668D01*
G01X2234Y631D01*
G01X2235Y612D01*
G01X2237Y594D01*
G01X2240Y575D01*
G01X2244Y557D01*
G01X2254Y521D01*
G01X2260Y503D01*
G01X2267Y486D01*
G01X2283Y452D01*
G01X2292Y436D01*
G01X2302Y420D01*
G01X2324Y390D01*
G01X2336Y376D01*
G01X2349Y362D01*
G01X2362Y349D01*
G01X2376Y336D01*
G01X2390Y324D01*
G01X2420Y302D01*
G01X2436Y292D01*
G01X2452Y283D01*
G01X2486Y267D01*
G01X2503Y260D01*
G01X2521Y254D01*
G01X2557Y244D01*
G01X2575Y240D01*
G01X2594Y237D01*
G01X2612Y235D01*
G01X2631Y234D01*
G01X2668Y234D01*
G01X2687Y235D01*
G01X2705Y237D01*
G01X2724Y240D01*
G01X2742Y244D01*
G01X2778Y254D01*
G01X2796Y260D01*
G01X2813Y267D01*
G01X2847Y283D01*
G01X2863Y292D01*
G01X2879Y302D01*
G01X2909Y324D01*
G01X2923Y336D01*
G01X2937Y349D01*
G01X2950Y362D01*
G01X2963Y376D01*
G01X2975Y390D01*
G01X2997Y420D01*
G01X3007Y436D01*
G01X3016Y452D01*
G01X3032Y486D01*
G01X3039Y503D01*
G01X3045Y521D01*
G01X3055Y557D01*
G01X3059Y575D01*
G01X3062Y594D01*
G01X3064Y612D01*
G01X3065Y631D01*
G01X3065Y668D01*
G01X3064Y687D01*
G01X3062Y705D01*
G01X3059Y724D01*
G01X3055Y742D01*
G01X3045Y778D01*
G01X3039Y796D01*
G01X3032Y813D01*
G01X3016Y847D01*
G01X3007Y863D01*
G01X2997Y879D01*
G01X2975Y909D01*
G01X2963Y923D01*
G01X2950Y937D01*
G01X2937Y950D01*
G01X2923Y963D01*
G01X2909Y975D01*
G01X2879Y997D01*
G01X2863Y1007D01*
G01X2847Y1016D01*
G01X2813Y1032D01*
G01X2796Y1039D01*
G01X2778Y1045D01*
G01X2742Y1055D01*
G01X2724Y1059D01*
G01X2705Y1062D01*
G01X2687Y1064D01*
G01X2668Y1065D01*
G37*
G36*
G01X15668Y1065D02*
G01X15631Y1065D01*
G01X15612Y1064D01*
G01X15594Y1062D01*
G01X15575Y1059D01*
G01X15557Y1055D01*
G01X15521Y1045D01*
G01X15503Y1039D01*
G01X15486Y1032D01*
G01X15452Y1016D01*
G01X15436Y1007D01*
G01X15420Y997D01*
G01X15390Y975D01*
G01X15376Y963D01*
G01X15362Y950D01*
G01X15349Y937D01*
G01X15336Y923D01*
G01X15324Y909D01*
G01X15302Y879D01*
G01X15292Y863D01*
G01X15283Y847D01*
G01X15267Y813D01*
G01X15260Y796D01*
G01X15254Y778D01*
G01X15244Y742D01*
G01X15240Y724D01*
G01X15237Y705D01*
G01X15235Y687D01*
G01X15234Y668D01*
G01X15234Y631D01*
G01X15235Y612D01*
G01X15237Y594D01*
G01X15240Y575D01*
G01X15244Y557D01*
G01X15254Y521D01*
G01X15260Y503D01*
G01X15267Y486D01*
G01X15283Y452D01*
G01X15292Y436D01*
G01X15302Y420D01*
G01X15324Y390D01*
G01X15336Y376D01*
G01X15349Y362D01*
G01X15362Y349D01*
G01X15376Y336D01*
G01X15390Y324D01*
G01X15420Y302D01*
G01X15436Y292D01*
G01X15452Y283D01*
G01X15486Y267D01*
G01X15503Y260D01*
G01X15521Y254D01*
G01X15557Y244D01*
G01X15575Y240D01*
G01X15594Y237D01*
G01X15612Y235D01*
G01X15631Y234D01*
G01X15668Y234D01*
G01X15687Y235D01*
G01X15705Y237D01*
G01X15724Y240D01*
G01X15742Y244D01*
G01X15778Y254D01*
G01X15796Y260D01*
G01X15813Y267D01*
G01X15847Y283D01*
G01X15863Y292D01*
G01X15879Y302D01*
G01X15909Y324D01*
G01X15923Y336D01*
G01X15937Y349D01*
G01X15950Y362D01*
G01X15963Y376D01*
G01X15975Y390D01*
G01X15997Y420D01*
G01X16007Y436D01*
G01X16016Y452D01*
G01X16032Y486D01*
G01X16039Y503D01*
G01X16045Y521D01*
G01X16055Y557D01*
G01X16059Y575D01*
G01X16062Y594D01*
G01X16064Y612D01*
G01X16065Y631D01*
G01X16065Y668D01*
G01X16064Y687D01*
G01X16062Y705D01*
G01X16059Y724D01*
G01X16055Y742D01*
G01X16045Y778D01*
G01X16039Y796D01*
G01X16032Y813D01*
G01X16016Y847D01*
G01X16007Y863D01*
G01X15997Y879D01*
G01X15975Y909D01*
G01X15963Y923D01*
G01X15950Y937D01*
G01X15937Y950D01*
G01X15923Y963D01*
G01X15909Y975D01*
G01X15879Y997D01*
G01X15863Y1007D01*
G01X15847Y1016D01*
G01X15813Y1032D01*
G01X15796Y1039D01*
G01X15778Y1045D01*
G01X15742Y1055D01*
G01X15724Y1059D01*
G01X15705Y1062D01*
G01X15687Y1064D01*
G01X15668Y1065D01*
G37*
G36*
G01X18668Y1065D02*
G01X18631Y1065D01*
G01X18612Y1064D01*
G01X18594Y1062D01*
G01X18575Y1059D01*
G01X18557Y1055D01*
G01X18521Y1045D01*
G01X18503Y1039D01*
G01X18486Y1032D01*
G01X18452Y1016D01*
G01X18436Y1007D01*
G01X18420Y997D01*
G01X18390Y975D01*
G01X18376Y963D01*
G01X18362Y950D01*
G01X18349Y937D01*
G01X18336Y923D01*
G01X18324Y909D01*
G01X18302Y879D01*
G01X18292Y863D01*
G01X18283Y847D01*
G01X18267Y813D01*
G01X18260Y796D01*
G01X18254Y778D01*
G01X18244Y742D01*
G01X18240Y724D01*
G01X18237Y705D01*
G01X18235Y687D01*
G01X18234Y668D01*
G01X18234Y631D01*
G01X18235Y612D01*
G01X18237Y594D01*
G01X18240Y575D01*
G01X18244Y557D01*
G01X18254Y521D01*
G01X18260Y503D01*
G01X18267Y486D01*
G01X18283Y452D01*
G01X18292Y436D01*
G01X18302Y420D01*
G01X18324Y390D01*
G01X18336Y376D01*
G01X18349Y362D01*
G01X18362Y349D01*
G01X18376Y336D01*
G01X18390Y324D01*
G01X18420Y302D01*
G01X18436Y292D01*
G01X18452Y283D01*
G01X18486Y267D01*
G01X18503Y260D01*
G01X18521Y254D01*
G01X18557Y244D01*
G01X18575Y240D01*
G01X18594Y237D01*
G01X18612Y235D01*
G01X18631Y234D01*
G01X18668Y234D01*
G01X18687Y235D01*
G01X18705Y237D01*
G01X18724Y240D01*
G01X18742Y244D01*
G01X18778Y254D01*
G01X18796Y260D01*
G01X18813Y267D01*
G01X18847Y283D01*
G01X18863Y292D01*
G01X18879Y302D01*
G01X18909Y324D01*
G01X18923Y336D01*
G01X18937Y349D01*
G01X18950Y362D01*
G01X18963Y376D01*
G01X18975Y390D01*
G01X18997Y420D01*
G01X19007Y436D01*
G01X19016Y452D01*
G01X19032Y486D01*
G01X19039Y503D01*
G01X19045Y521D01*
G01X19055Y557D01*
G01X19059Y575D01*
G01X19062Y594D01*
G01X19064Y612D01*
G01X19065Y631D01*
G01X19065Y668D01*
G01X19064Y687D01*
G01X19062Y705D01*
G01X19059Y724D01*
G01X19055Y742D01*
G01X19045Y778D01*
G01X19039Y796D01*
G01X19032Y813D01*
G01X19016Y847D01*
G01X19007Y863D01*
G01X18997Y879D01*
G01X18975Y909D01*
G01X18963Y923D01*
G01X18950Y937D01*
G01X18937Y950D01*
G01X18923Y963D01*
G01X18909Y975D01*
G01X18879Y997D01*
G01X18863Y1007D01*
G01X18847Y1016D01*
G01X18813Y1032D01*
G01X18796Y1039D01*
G01X18778Y1045D01*
G01X18742Y1055D01*
G01X18724Y1059D01*
G01X18705Y1062D01*
G01X18687Y1064D01*
G01X18668Y1065D01*
G37*
G36*
G01X11668Y2065D02*
G01X11631Y2065D01*
G01X11612Y2064D01*
G01X11594Y2062D01*
G01X11575Y2059D01*
G01X11557Y2055D01*
G01X11521Y2045D01*
G01X11503Y2039D01*
G01X11486Y2032D01*
G01X11452Y2016D01*
G01X11436Y2007D01*
G01X11420Y1997D01*
G01X11390Y1975D01*
G01X11376Y1963D01*
G01X11362Y1950D01*
G01X11349Y1937D01*
G01X11336Y1923D01*
G01X11324Y1909D01*
G01X11302Y1879D01*
G01X11292Y1863D01*
G01X11283Y1847D01*
G01X11267Y1813D01*
G01X11260Y1796D01*
G01X11254Y1778D01*
G01X11244Y1742D01*
G01X11240Y1724D01*
G01X11237Y1705D01*
G01X11235Y1687D01*
G01X11234Y1668D01*
G01X11234Y1631D01*
G01X11235Y1612D01*
G01X11237Y1594D01*
G01X11240Y1575D01*
G01X11244Y1557D01*
G01X11254Y1521D01*
G01X11260Y1503D01*
G01X11267Y1486D01*
G01X11283Y1452D01*
G01X11292Y1436D01*
G01X11302Y1420D01*
G01X11324Y1390D01*
G01X11336Y1376D01*
G01X11349Y1362D01*
G01X11362Y1349D01*
G01X11376Y1336D01*
G01X11390Y1324D01*
G01X11420Y1302D01*
G01X11436Y1292D01*
G01X11452Y1283D01*
G01X11486Y1267D01*
G01X11503Y1260D01*
G01X11521Y1254D01*
G01X11557Y1244D01*
G01X11575Y1240D01*
G01X11594Y1237D01*
G01X11612Y1235D01*
G01X11631Y1234D01*
G01X11668Y1234D01*
G01X11687Y1235D01*
G01X11705Y1237D01*
G01X11724Y1240D01*
G01X11742Y1244D01*
G01X11778Y1254D01*
G01X11796Y1260D01*
G01X11813Y1267D01*
G01X11847Y1283D01*
G01X11863Y1292D01*
G01X11879Y1302D01*
G01X11909Y1324D01*
G01X11923Y1336D01*
G01X11937Y1349D01*
G01X11950Y1362D01*
G01X11963Y1376D01*
G01X11975Y1390D01*
G01X11997Y1420D01*
G01X12007Y1436D01*
G01X12016Y1452D01*
G01X12032Y1486D01*
G01X12039Y1503D01*
G01X12045Y1521D01*
G01X12055Y1557D01*
G01X12059Y1575D01*
G01X12062Y1594D01*
G01X12064Y1612D01*
G01X12065Y1631D01*
G01X12065Y1668D01*
G01X12064Y1687D01*
G01X12062Y1705D01*
G01X12059Y1724D01*
G01X12055Y1742D01*
G01X12045Y1778D01*
G01X12039Y1796D01*
G01X12032Y1813D01*
G01X12016Y1847D01*
G01X12007Y1863D01*
G01X11997Y1879D01*
G01X11975Y1909D01*
G01X11963Y1923D01*
G01X11950Y1937D01*
G01X11937Y1950D01*
G01X11923Y1963D01*
G01X11909Y1975D01*
G01X11879Y1997D01*
G01X11863Y2007D01*
G01X11847Y2016D01*
G01X11813Y2032D01*
G01X11796Y2039D01*
G01X11778Y2045D01*
G01X11742Y2055D01*
G01X11724Y2059D01*
G01X11705Y2062D01*
G01X11687Y2064D01*
G01X11668Y2065D01*
G37*
G36*
G01X1668Y2065D02*
G01X1631Y2065D01*
G01X1612Y2064D01*
G01X1594Y2062D01*
G01X1575Y2059D01*
G01X1557Y2055D01*
G01X1521Y2045D01*
G01X1503Y2039D01*
G01X1486Y2032D01*
G01X1452Y2016D01*
G01X1436Y2007D01*
G01X1420Y1997D01*
G01X1390Y1975D01*
G01X1376Y1963D01*
G01X1362Y1950D01*
G01X1349Y1937D01*
G01X1336Y1923D01*
G01X1324Y1909D01*
G01X1302Y1879D01*
G01X1292Y1863D01*
G01X1283Y1847D01*
G01X1267Y1813D01*
G01X1260Y1796D01*
G01X1254Y1778D01*
G01X1244Y1742D01*
G01X1240Y1724D01*
G01X1237Y1705D01*
G01X1235Y1687D01*
G01X1234Y1668D01*
G01X1234Y1631D01*
G01X1235Y1612D01*
G01X1237Y1594D01*
G01X1240Y1575D01*
G01X1244Y1557D01*
G01X1254Y1521D01*
G01X1260Y1503D01*
G01X1267Y1486D01*
G01X1283Y1452D01*
G01X1292Y1436D01*
G01X1302Y1420D01*
G01X1324Y1390D01*
G01X1336Y1376D01*
G01X1349Y1362D01*
G01X1362Y1349D01*
G01X1376Y1336D01*
G01X1390Y1324D01*
G01X1420Y1302D01*
G01X1436Y1292D01*
G01X1452Y1283D01*
G01X1486Y1267D01*
G01X1503Y1260D01*
G01X1521Y1254D01*
G01X1557Y1244D01*
G01X1575Y1240D01*
G01X1594Y1237D01*
G01X1612Y1235D01*
G01X1631Y1234D01*
G01X1668Y1234D01*
G01X1687Y1235D01*
G01X1705Y1237D01*
G01X1724Y1240D01*
G01X1742Y1244D01*
G01X1778Y1254D01*
G01X1796Y1260D01*
G01X1813Y1267D01*
G01X1847Y1283D01*
G01X1863Y1292D01*
G01X1879Y1302D01*
G01X1909Y1324D01*
G01X1923Y1336D01*
G01X1937Y1349D01*
G01X1950Y1362D01*
G01X1963Y1376D01*
G01X1975Y1390D01*
G01X1997Y1420D01*
G01X2007Y1436D01*
G01X2016Y1452D01*
G01X2032Y1486D01*
G01X2039Y1503D01*
G01X2045Y1521D01*
G01X2055Y1557D01*
G01X2059Y1575D01*
G01X2062Y1594D01*
G01X2064Y1612D01*
G01X2065Y1631D01*
G01X2065Y1668D01*
G01X2064Y1687D01*
G01X2062Y1705D01*
G01X2059Y1724D01*
G01X2055Y1742D01*
G01X2045Y1778D01*
G01X2039Y1796D01*
G01X2032Y1813D01*
G01X2016Y1847D01*
G01X2007Y1863D01*
G01X1997Y1879D01*
G01X1975Y1909D01*
G01X1963Y1923D01*
G01X1950Y1937D01*
G01X1937Y1950D01*
G01X1923Y1963D01*
G01X1909Y1975D01*
G01X1879Y1997D01*
G01X1863Y2007D01*
G01X1847Y2016D01*
G01X1813Y2032D01*
G01X1796Y2039D01*
G01X1778Y2045D01*
G01X1742Y2055D01*
G01X1724Y2059D01*
G01X1705Y2062D01*
G01X1687Y2064D01*
G01X1668Y2065D01*
G37*
G36*
G01X13668Y2065D02*
G01X13631Y2065D01*
G01X13612Y2064D01*
G01X13594Y2062D01*
G01X13575Y2059D01*
G01X13557Y2055D01*
G01X13521Y2045D01*
G01X13503Y2039D01*
G01X13486Y2032D01*
G01X13452Y2016D01*
G01X13436Y2007D01*
G01X13420Y1997D01*
G01X13390Y1975D01*
G01X13376Y1963D01*
G01X13362Y1950D01*
G01X13349Y1937D01*
G01X13336Y1923D01*
G01X13324Y1909D01*
G01X13302Y1879D01*
G01X13292Y1863D01*
G01X13283Y1847D01*
G01X13267Y1813D01*
G01X13260Y1796D01*
G01X13254Y1778D01*
G01X13244Y1742D01*
G01X13240Y1724D01*
G01X13237Y1705D01*
G01X13235Y1687D01*
G01X13234Y1668D01*
G01X13234Y1631D01*
G01X13235Y1612D01*
G01X13237Y1594D01*
G01X13240Y1575D01*
G01X13244Y1557D01*
G01X13254Y1521D01*
G01X13260Y1503D01*
G01X13267Y1486D01*
G01X13283Y1452D01*
G01X13292Y1436D01*
G01X13302Y1420D01*
G01X13324Y1390D01*
G01X13336Y1376D01*
G01X13349Y1362D01*
G01X13362Y1349D01*
G01X13376Y1336D01*
G01X13390Y1324D01*
G01X13420Y1302D01*
G01X13436Y1292D01*
G01X13452Y1283D01*
G01X13486Y1267D01*
G01X13503Y1260D01*
G01X13521Y1254D01*
G01X13557Y1244D01*
G01X13575Y1240D01*
G01X13594Y1237D01*
G01X13612Y1235D01*
G01X13631Y1234D01*
G01X13668Y1234D01*
G01X13687Y1235D01*
G01X13705Y1237D01*
G01X13724Y1240D01*
G01X13742Y1244D01*
G01X13778Y1254D01*
G01X13796Y1260D01*
G01X13813Y1267D01*
G01X13847Y1283D01*
G01X13863Y1292D01*
G01X13879Y1302D01*
G01X13909Y1324D01*
G01X13923Y1336D01*
G01X13937Y1349D01*
G01X13950Y1362D01*
G01X13963Y1376D01*
G01X13975Y1390D01*
G01X13997Y1420D01*
G01X14007Y1436D01*
G01X14016Y1452D01*
G01X14032Y1486D01*
G01X14039Y1503D01*
G01X14045Y1521D01*
G01X14055Y1557D01*
G01X14059Y1575D01*
G01X14062Y1594D01*
G01X14064Y1612D01*
G01X14065Y1631D01*
G01X14065Y1668D01*
G01X14064Y1687D01*
G01X14062Y1705D01*
G01X14059Y1724D01*
G01X14055Y1742D01*
G01X14045Y1778D01*
G01X14039Y1796D01*
G01X14032Y1813D01*
G01X14016Y1847D01*
G01X14007Y1863D01*
G01X13997Y1879D01*
G01X13975Y1909D01*
G01X13963Y1923D01*
G01X13950Y1937D01*
G01X13937Y1950D01*
G01X13923Y1963D01*
G01X13909Y1975D01*
G01X13879Y1997D01*
G01X13863Y2007D01*
G01X13847Y2016D01*
G01X13813Y2032D01*
G01X13796Y2039D01*
G01X13778Y2045D01*
G01X13742Y2055D01*
G01X13724Y2059D01*
G01X13705Y2062D01*
G01X13687Y2064D01*
G01X13668Y2065D01*
G37*
G36*
G01X12668Y1065D02*
G01X12631Y1065D01*
G01X12612Y1064D01*
G01X12594Y1062D01*
G01X12575Y1059D01*
G01X12557Y1055D01*
G01X12521Y1045D01*
G01X12503Y1039D01*
G01X12486Y1032D01*
G01X12452Y1016D01*
G01X12436Y1007D01*
G01X12420Y997D01*
G01X12390Y975D01*
G01X12376Y963D01*
G01X12362Y950D01*
G01X12349Y937D01*
G01X12336Y923D01*
G01X12324Y909D01*
G01X12302Y879D01*
G01X12292Y863D01*
G01X12283Y847D01*
G01X12267Y813D01*
G01X12260Y796D01*
G01X12254Y778D01*
G01X12244Y742D01*
G01X12240Y724D01*
G01X12237Y705D01*
G01X12235Y687D01*
G01X12234Y668D01*
G01X12234Y631D01*
G01X12235Y612D01*
G01X12237Y594D01*
G01X12240Y575D01*
G01X12244Y557D01*
G01X12254Y521D01*
G01X12260Y503D01*
G01X12267Y486D01*
G01X12283Y452D01*
G01X12292Y436D01*
G01X12302Y420D01*
G01X12324Y390D01*
G01X12336Y376D01*
G01X12349Y362D01*
G01X12362Y349D01*
G01X12376Y336D01*
G01X12390Y324D01*
G01X12420Y302D01*
G01X12436Y292D01*
G01X12452Y283D01*
G01X12486Y267D01*
G01X12503Y260D01*
G01X12521Y254D01*
G01X12557Y244D01*
G01X12575Y240D01*
G01X12594Y237D01*
G01X12612Y235D01*
G01X12631Y234D01*
G01X12668Y234D01*
G01X12687Y235D01*
G01X12705Y237D01*
G01X12724Y240D01*
G01X12742Y244D01*
G01X12778Y254D01*
G01X12796Y260D01*
G01X12813Y267D01*
G01X12847Y283D01*
G01X12863Y292D01*
G01X12879Y302D01*
G01X12909Y324D01*
G01X12923Y336D01*
G01X12937Y349D01*
G01X12950Y362D01*
G01X12963Y376D01*
G01X12975Y390D01*
G01X12997Y420D01*
G01X13007Y436D01*
G01X13016Y452D01*
G01X13032Y486D01*
G01X13039Y503D01*
G01X13045Y521D01*
G01X13055Y557D01*
G01X13059Y575D01*
G01X13062Y594D01*
G01X13064Y612D01*
G01X13065Y631D01*
G01X13065Y668D01*
G01X13064Y687D01*
G01X13062Y705D01*
G01X13059Y724D01*
G01X13055Y742D01*
G01X13045Y778D01*
G01X13039Y796D01*
G01X13032Y813D01*
G01X13016Y847D01*
G01X13007Y863D01*
G01X12997Y879D01*
G01X12975Y909D01*
G01X12963Y923D01*
G01X12950Y937D01*
G01X12937Y950D01*
G01X12923Y963D01*
G01X12909Y975D01*
G01X12879Y997D01*
G01X12863Y1007D01*
G01X12847Y1016D01*
G01X12813Y1032D01*
G01X12796Y1039D01*
G01X12778Y1045D01*
G01X12742Y1055D01*
G01X12724Y1059D01*
G01X12705Y1062D01*
G01X12687Y1064D01*
G01X12668Y1065D01*
G37*
G36*
G01X4668Y2065D02*
G01X4631Y2065D01*
G01X4612Y2064D01*
G01X4594Y2062D01*
G01X4575Y2059D01*
G01X4557Y2055D01*
G01X4521Y2045D01*
G01X4503Y2039D01*
G01X4486Y2032D01*
G01X4452Y2016D01*
G01X4436Y2007D01*
G01X4420Y1997D01*
G01X4390Y1975D01*
G01X4376Y1963D01*
G01X4362Y1950D01*
G01X4349Y1937D01*
G01X4336Y1923D01*
G01X4324Y1909D01*
G01X4302Y1879D01*
G01X4292Y1863D01*
G01X4283Y1847D01*
G01X4267Y1813D01*
G01X4260Y1796D01*
G01X4254Y1778D01*
G01X4244Y1742D01*
G01X4240Y1724D01*
G01X4237Y1705D01*
G01X4235Y1687D01*
G01X4234Y1668D01*
G01X4234Y1631D01*
G01X4235Y1612D01*
G01X4237Y1594D01*
G01X4240Y1575D01*
G01X4244Y1557D01*
G01X4254Y1521D01*
G01X4260Y1503D01*
G01X4267Y1486D01*
G01X4283Y1452D01*
G01X4292Y1436D01*
G01X4302Y1420D01*
G01X4324Y1390D01*
G01X4336Y1376D01*
G01X4349Y1362D01*
G01X4362Y1349D01*
G01X4376Y1336D01*
G01X4390Y1324D01*
G01X4420Y1302D01*
G01X4436Y1292D01*
G01X4452Y1283D01*
G01X4486Y1267D01*
G01X4503Y1260D01*
G01X4521Y1254D01*
G01X4557Y1244D01*
G01X4575Y1240D01*
G01X4594Y1237D01*
G01X4612Y1235D01*
G01X4631Y1234D01*
G01X4668Y1234D01*
G01X4687Y1235D01*
G01X4705Y1237D01*
G01X4724Y1240D01*
G01X4742Y1244D01*
G01X4778Y1254D01*
G01X4796Y1260D01*
G01X4813Y1267D01*
G01X4847Y1283D01*
G01X4863Y1292D01*
G01X4879Y1302D01*
G01X4909Y1324D01*
G01X4923Y1336D01*
G01X4937Y1349D01*
G01X4950Y1362D01*
G01X4963Y1376D01*
G01X4975Y1390D01*
G01X4997Y1420D01*
G01X5007Y1436D01*
G01X5016Y1452D01*
G01X5032Y1486D01*
G01X5039Y1503D01*
G01X5045Y1521D01*
G01X5055Y1557D01*
G01X5059Y1575D01*
G01X5062Y1594D01*
G01X5064Y1612D01*
G01X5065Y1631D01*
G01X5065Y1668D01*
G01X5064Y1687D01*
G01X5062Y1705D01*
G01X5059Y1724D01*
G01X5055Y1742D01*
G01X5045Y1778D01*
G01X5039Y1796D01*
G01X5032Y1813D01*
G01X5016Y1847D01*
G01X5007Y1863D01*
G01X4997Y1879D01*
G01X4975Y1909D01*
G01X4963Y1923D01*
G01X4950Y1937D01*
G01X4937Y1950D01*
G01X4923Y1963D01*
G01X4909Y1975D01*
G01X4879Y1997D01*
G01X4863Y2007D01*
G01X4847Y2016D01*
G01X4813Y2032D01*
G01X4796Y2039D01*
G01X4778Y2045D01*
G01X4742Y2055D01*
G01X4724Y2059D01*
G01X4705Y2062D01*
G01X4687Y2064D01*
G01X4668Y2065D01*
G37*
G36*
G01X5668Y2065D02*
G01X5631Y2065D01*
G01X5612Y2064D01*
G01X5594Y2062D01*
G01X5575Y2059D01*
G01X5557Y2055D01*
G01X5521Y2045D01*
G01X5503Y2039D01*
G01X5486Y2032D01*
G01X5452Y2016D01*
G01X5436Y2007D01*
G01X5420Y1997D01*
G01X5390Y1975D01*
G01X5376Y1963D01*
G01X5362Y1950D01*
G01X5349Y1937D01*
G01X5336Y1923D01*
G01X5324Y1909D01*
G01X5302Y1879D01*
G01X5292Y1863D01*
G01X5283Y1847D01*
G01X5267Y1813D01*
G01X5260Y1796D01*
G01X5254Y1778D01*
G01X5244Y1742D01*
G01X5240Y1724D01*
G01X5237Y1705D01*
G01X5235Y1687D01*
G01X5234Y1668D01*
G01X5234Y1631D01*
G01X5235Y1612D01*
G01X5237Y1594D01*
G01X5240Y1575D01*
G01X5244Y1557D01*
G01X5254Y1521D01*
G01X5260Y1503D01*
G01X5267Y1486D01*
G01X5283Y1452D01*
G01X5292Y1436D01*
G01X5302Y1420D01*
G01X5324Y1390D01*
G01X5336Y1376D01*
G01X5349Y1362D01*
G01X5362Y1349D01*
G01X5376Y1336D01*
G01X5390Y1324D01*
G01X5420Y1302D01*
G01X5436Y1292D01*
G01X5452Y1283D01*
G01X5486Y1267D01*
G01X5503Y1260D01*
G01X5521Y1254D01*
G01X5557Y1244D01*
G01X5575Y1240D01*
G01X5594Y1237D01*
G01X5612Y1235D01*
G01X5631Y1234D01*
G01X5668Y1234D01*
G01X5687Y1235D01*
G01X5705Y1237D01*
G01X5724Y1240D01*
G01X5742Y1244D01*
G01X5778Y1254D01*
G01X5796Y1260D01*
G01X5813Y1267D01*
G01X5847Y1283D01*
G01X5863Y1292D01*
G01X5879Y1302D01*
G01X5909Y1324D01*
G01X5923Y1336D01*
G01X5937Y1349D01*
G01X5950Y1362D01*
G01X5963Y1376D01*
G01X5975Y1390D01*
G01X5997Y1420D01*
G01X6007Y1436D01*
G01X6016Y1452D01*
G01X6032Y1486D01*
G01X6039Y1503D01*
G01X6045Y1521D01*
G01X6055Y1557D01*
G01X6059Y1575D01*
G01X6062Y1594D01*
G01X6064Y1612D01*
G01X6065Y1631D01*
G01X6065Y1668D01*
G01X6064Y1687D01*
G01X6062Y1705D01*
G01X6059Y1724D01*
G01X6055Y1742D01*
G01X6045Y1778D01*
G01X6039Y1796D01*
G01X6032Y1813D01*
G01X6016Y1847D01*
G01X6007Y1863D01*
G01X5997Y1879D01*
G01X5975Y1909D01*
G01X5963Y1923D01*
G01X5950Y1937D01*
G01X5937Y1950D01*
G01X5923Y1963D01*
G01X5909Y1975D01*
G01X5879Y1997D01*
G01X5863Y2007D01*
G01X5847Y2016D01*
G01X5813Y2032D01*
G01X5796Y2039D01*
G01X5778Y2045D01*
G01X5742Y2055D01*
G01X5724Y2059D01*
G01X5705Y2062D01*
G01X5687Y2064D01*
G01X5668Y2065D01*
G37*
G36*
G01X16668Y1065D02*
G01X16631Y1065D01*
G01X16612Y1064D01*
G01X16594Y1062D01*
G01X16575Y1059D01*
G01X16557Y1055D01*
G01X16521Y1045D01*
G01X16503Y1039D01*
G01X16486Y1032D01*
G01X16452Y1016D01*
G01X16436Y1007D01*
G01X16420Y997D01*
G01X16390Y975D01*
G01X16376Y963D01*
G01X16362Y950D01*
G01X16349Y937D01*
G01X16336Y923D01*
G01X16324Y909D01*
G01X16302Y879D01*
G01X16292Y863D01*
G01X16283Y847D01*
G01X16267Y813D01*
G01X16260Y796D01*
G01X16254Y778D01*
G01X16244Y742D01*
G01X16240Y724D01*
G01X16237Y705D01*
G01X16235Y687D01*
G01X16234Y668D01*
G01X16234Y631D01*
G01X16235Y612D01*
G01X16237Y594D01*
G01X16240Y575D01*
G01X16244Y557D01*
G01X16254Y521D01*
G01X16260Y503D01*
G01X16267Y486D01*
G01X16283Y452D01*
G01X16292Y436D01*
G01X16302Y420D01*
G01X16324Y390D01*
G01X16336Y376D01*
G01X16349Y362D01*
G01X16362Y349D01*
G01X16376Y336D01*
G01X16390Y324D01*
G01X16420Y302D01*
G01X16436Y292D01*
G01X16452Y283D01*
G01X16486Y267D01*
G01X16503Y260D01*
G01X16521Y254D01*
G01X16557Y244D01*
G01X16575Y240D01*
G01X16594Y237D01*
G01X16612Y235D01*
G01X16631Y234D01*
G01X16668Y234D01*
G01X16687Y235D01*
G01X16705Y237D01*
G01X16724Y240D01*
G01X16742Y244D01*
G01X16778Y254D01*
G01X16796Y260D01*
G01X16813Y267D01*
G01X16847Y283D01*
G01X16863Y292D01*
G01X16879Y302D01*
G01X16909Y324D01*
G01X16923Y336D01*
G01X16937Y349D01*
G01X16950Y362D01*
G01X16963Y376D01*
G01X16975Y390D01*
G01X16997Y420D01*
G01X17007Y436D01*
G01X17016Y452D01*
G01X17032Y486D01*
G01X17039Y503D01*
G01X17045Y521D01*
G01X17055Y557D01*
G01X17059Y575D01*
G01X17062Y594D01*
G01X17064Y612D01*
G01X17065Y631D01*
G01X17065Y668D01*
G01X17064Y687D01*
G01X17062Y705D01*
G01X17059Y724D01*
G01X17055Y742D01*
G01X17045Y778D01*
G01X17039Y796D01*
G01X17032Y813D01*
G01X17016Y847D01*
G01X17007Y863D01*
G01X16997Y879D01*
G01X16975Y909D01*
G01X16963Y923D01*
G01X16950Y937D01*
G01X16937Y950D01*
G01X16923Y963D01*
G01X16909Y975D01*
G01X16879Y997D01*
G01X16863Y1007D01*
G01X16847Y1016D01*
G01X16813Y1032D01*
G01X16796Y1039D01*
G01X16778Y1045D01*
G01X16742Y1055D01*
G01X16724Y1059D01*
G01X16705Y1062D01*
G01X16687Y1064D01*
G01X16668Y1065D01*
G37*
G36*
G01X14668Y2065D02*
G01X14631Y2065D01*
G01X14612Y2064D01*
G01X14594Y2062D01*
G01X14575Y2059D01*
G01X14557Y2055D01*
G01X14521Y2045D01*
G01X14503Y2039D01*
G01X14486Y2032D01*
G01X14452Y2016D01*
G01X14436Y2007D01*
G01X14420Y1997D01*
G01X14390Y1975D01*
G01X14376Y1963D01*
G01X14362Y1950D01*
G01X14349Y1937D01*
G01X14336Y1923D01*
G01X14324Y1909D01*
G01X14302Y1879D01*
G01X14292Y1863D01*
G01X14283Y1847D01*
G01X14267Y1813D01*
G01X14260Y1796D01*
G01X14254Y1778D01*
G01X14244Y1742D01*
G01X14240Y1724D01*
G01X14237Y1705D01*
G01X14235Y1687D01*
G01X14234Y1668D01*
G01X14234Y1631D01*
G01X14235Y1612D01*
G01X14237Y1594D01*
G01X14240Y1575D01*
G01X14244Y1557D01*
G01X14254Y1521D01*
G01X14260Y1503D01*
G01X14267Y1486D01*
G01X14283Y1452D01*
G01X14292Y1436D01*
G01X14302Y1420D01*
G01X14324Y1390D01*
G01X14336Y1376D01*
G01X14349Y1362D01*
G01X14362Y1349D01*
G01X14376Y1336D01*
G01X14390Y1324D01*
G01X14420Y1302D01*
G01X14436Y1292D01*
G01X14452Y1283D01*
G01X14486Y1267D01*
G01X14503Y1260D01*
G01X14521Y1254D01*
G01X14557Y1244D01*
G01X14575Y1240D01*
G01X14594Y1237D01*
G01X14612Y1235D01*
G01X14631Y1234D01*
G01X14668Y1234D01*
G01X14687Y1235D01*
G01X14705Y1237D01*
G01X14724Y1240D01*
G01X14742Y1244D01*
G01X14778Y1254D01*
G01X14796Y1260D01*
G01X14813Y1267D01*
G01X14847Y1283D01*
G01X14863Y1292D01*
G01X14879Y1302D01*
G01X14909Y1324D01*
G01X14923Y1336D01*
G01X14937Y1349D01*
G01X14950Y1362D01*
G01X14963Y1376D01*
G01X14975Y1390D01*
G01X14997Y1420D01*
G01X15007Y1436D01*
G01X15016Y1452D01*
G01X15032Y1486D01*
G01X15039Y1503D01*
G01X15045Y1521D01*
G01X15055Y1557D01*
G01X15059Y1575D01*
G01X15062Y1594D01*
G01X15064Y1612D01*
G01X15065Y1631D01*
G01X15065Y1668D01*
G01X15064Y1687D01*
G01X15062Y1705D01*
G01X15059Y1724D01*
G01X15055Y1742D01*
G01X15045Y1778D01*
G01X15039Y1796D01*
G01X15032Y1813D01*
G01X15016Y1847D01*
G01X15007Y1863D01*
G01X14997Y1879D01*
G01X14975Y1909D01*
G01X14963Y1923D01*
G01X14950Y1937D01*
G01X14937Y1950D01*
G01X14923Y1963D01*
G01X14909Y1975D01*
G01X14879Y1997D01*
G01X14863Y2007D01*
G01X14847Y2016D01*
G01X14813Y2032D01*
G01X14796Y2039D01*
G01X14778Y2045D01*
G01X14742Y2055D01*
G01X14724Y2059D01*
G01X14705Y2062D01*
G01X14687Y2064D01*
G01X14668Y2065D01*
G37*
G36*
G01X3668Y2065D02*
G01X3631Y2065D01*
G01X3612Y2064D01*
G01X3594Y2062D01*
G01X3575Y2059D01*
G01X3557Y2055D01*
G01X3521Y2045D01*
G01X3503Y2039D01*
G01X3486Y2032D01*
G01X3452Y2016D01*
G01X3436Y2007D01*
G01X3420Y1997D01*
G01X3390Y1975D01*
G01X3376Y1963D01*
G01X3362Y1950D01*
G01X3349Y1937D01*
G01X3336Y1923D01*
G01X3324Y1909D01*
G01X3302Y1879D01*
G01X3292Y1863D01*
G01X3283Y1847D01*
G01X3267Y1813D01*
G01X3260Y1796D01*
G01X3254Y1778D01*
G01X3244Y1742D01*
G01X3240Y1724D01*
G01X3237Y1705D01*
G01X3235Y1687D01*
G01X3234Y1668D01*
G01X3234Y1631D01*
G01X3235Y1612D01*
G01X3237Y1594D01*
G01X3240Y1575D01*
G01X3244Y1557D01*
G01X3254Y1521D01*
G01X3260Y1503D01*
G01X3267Y1486D01*
G01X3283Y1452D01*
G01X3292Y1436D01*
G01X3302Y1420D01*
G01X3324Y1390D01*
G01X3336Y1376D01*
G01X3349Y1362D01*
G01X3362Y1349D01*
G01X3376Y1336D01*
G01X3390Y1324D01*
G01X3420Y1302D01*
G01X3436Y1292D01*
G01X3452Y1283D01*
G01X3486Y1267D01*
G01X3503Y1260D01*
G01X3521Y1254D01*
G01X3557Y1244D01*
G01X3575Y1240D01*
G01X3594Y1237D01*
G01X3612Y1235D01*
G01X3631Y1234D01*
G01X3668Y1234D01*
G01X3687Y1235D01*
G01X3705Y1237D01*
G01X3724Y1240D01*
G01X3742Y1244D01*
G01X3778Y1254D01*
G01X3796Y1260D01*
G01X3813Y1267D01*
G01X3847Y1283D01*
G01X3863Y1292D01*
G01X3879Y1302D01*
G01X3909Y1324D01*
G01X3923Y1336D01*
G01X3937Y1349D01*
G01X3950Y1362D01*
G01X3963Y1376D01*
G01X3975Y1390D01*
G01X3997Y1420D01*
G01X4007Y1436D01*
G01X4016Y1452D01*
G01X4032Y1486D01*
G01X4039Y1503D01*
G01X4045Y1521D01*
G01X4055Y1557D01*
G01X4059Y1575D01*
G01X4062Y1594D01*
G01X4064Y1612D01*
G01X4065Y1631D01*
G01X4065Y1668D01*
G01X4064Y1687D01*
G01X4062Y1705D01*
G01X4059Y1724D01*
G01X4055Y1742D01*
G01X4045Y1778D01*
G01X4039Y1796D01*
G01X4032Y1813D01*
G01X4016Y1847D01*
G01X4007Y1863D01*
G01X3997Y1879D01*
G01X3975Y1909D01*
G01X3963Y1923D01*
G01X3950Y1937D01*
G01X3937Y1950D01*
G01X3923Y1963D01*
G01X3909Y1975D01*
G01X3879Y1997D01*
G01X3863Y2007D01*
G01X3847Y2016D01*
G01X3813Y2032D01*
G01X3796Y2039D01*
G01X3778Y2045D01*
G01X3742Y2055D01*
G01X3724Y2059D01*
G01X3705Y2062D01*
G01X3687Y2064D01*
G01X3668Y2065D01*
G37*
G36*
G01X14668Y1065D02*
G01X14631Y1065D01*
G01X14612Y1064D01*
G01X14594Y1062D01*
G01X14575Y1059D01*
G01X14557Y1055D01*
G01X14521Y1045D01*
G01X14503Y1039D01*
G01X14486Y1032D01*
G01X14452Y1016D01*
G01X14436Y1007D01*
G01X14420Y997D01*
G01X14390Y975D01*
G01X14376Y963D01*
G01X14362Y950D01*
G01X14349Y937D01*
G01X14336Y923D01*
G01X14324Y909D01*
G01X14302Y879D01*
G01X14292Y863D01*
G01X14283Y847D01*
G01X14267Y813D01*
G01X14260Y796D01*
G01X14254Y778D01*
G01X14244Y742D01*
G01X14240Y724D01*
G01X14237Y705D01*
G01X14235Y687D01*
G01X14234Y668D01*
G01X14234Y631D01*
G01X14235Y612D01*
G01X14237Y594D01*
G01X14240Y575D01*
G01X14244Y557D01*
G01X14254Y521D01*
G01X14260Y503D01*
G01X14267Y486D01*
G01X14283Y452D01*
G01X14292Y436D01*
G01X14302Y420D01*
G01X14324Y390D01*
G01X14336Y376D01*
G01X14349Y362D01*
G01X14362Y349D01*
G01X14376Y336D01*
G01X14390Y324D01*
G01X14420Y302D01*
G01X14436Y292D01*
G01X14452Y283D01*
G01X14486Y267D01*
G01X14503Y260D01*
G01X14521Y254D01*
G01X14557Y244D01*
G01X14575Y240D01*
G01X14594Y237D01*
G01X14612Y235D01*
G01X14631Y234D01*
G01X14668Y234D01*
G01X14687Y235D01*
G01X14705Y237D01*
G01X14724Y240D01*
G01X14742Y244D01*
G01X14778Y254D01*
G01X14796Y260D01*
G01X14813Y267D01*
G01X14847Y283D01*
G01X14863Y292D01*
G01X14879Y302D01*
G01X14909Y324D01*
G01X14923Y336D01*
G01X14937Y349D01*
G01X14950Y362D01*
G01X14963Y376D01*
G01X14975Y390D01*
G01X14997Y420D01*
G01X15007Y436D01*
G01X15016Y452D01*
G01X15032Y486D01*
G01X15039Y503D01*
G01X15045Y521D01*
G01X15055Y557D01*
G01X15059Y575D01*
G01X15062Y594D01*
G01X15064Y612D01*
G01X15065Y631D01*
G01X15065Y668D01*
G01X15064Y687D01*
G01X15062Y705D01*
G01X15059Y724D01*
G01X15055Y742D01*
G01X15045Y778D01*
G01X15039Y796D01*
G01X15032Y813D01*
G01X15016Y847D01*
G01X15007Y863D01*
G01X14997Y879D01*
G01X14975Y909D01*
G01X14963Y923D01*
G01X14950Y937D01*
G01X14937Y950D01*
G01X14923Y963D01*
G01X14909Y975D01*
G01X14879Y997D01*
G01X14863Y1007D01*
G01X14847Y1016D01*
G01X14813Y1032D01*
G01X14796Y1039D01*
G01X14778Y1045D01*
G01X14742Y1055D01*
G01X14724Y1059D01*
G01X14705Y1062D01*
G01X14687Y1064D01*
G01X14668Y1065D01*
G37*
G36*
G01X17668Y2065D02*
G01X17631Y2065D01*
G01X17612Y2064D01*
G01X17594Y2062D01*
G01X17575Y2059D01*
G01X17557Y2055D01*
G01X17521Y2045D01*
G01X17503Y2039D01*
G01X17486Y2032D01*
G01X17452Y2016D01*
G01X17436Y2007D01*
G01X17420Y1997D01*
G01X17390Y1975D01*
G01X17376Y1963D01*
G01X17362Y1950D01*
G01X17349Y1937D01*
G01X17336Y1923D01*
G01X17324Y1909D01*
G01X17302Y1879D01*
G01X17292Y1863D01*
G01X17283Y1847D01*
G01X17267Y1813D01*
G01X17260Y1796D01*
G01X17254Y1778D01*
G01X17244Y1742D01*
G01X17240Y1724D01*
G01X17237Y1705D01*
G01X17235Y1687D01*
G01X17234Y1668D01*
G01X17234Y1631D01*
G01X17235Y1612D01*
G01X17237Y1594D01*
G01X17240Y1575D01*
G01X17244Y1557D01*
G01X17254Y1521D01*
G01X17260Y1503D01*
G01X17267Y1486D01*
G01X17283Y1452D01*
G01X17292Y1436D01*
G01X17302Y1420D01*
G01X17324Y1390D01*
G01X17336Y1376D01*
G01X17349Y1362D01*
G01X17362Y1349D01*
G01X17376Y1336D01*
G01X17390Y1324D01*
G01X17420Y1302D01*
G01X17436Y1292D01*
G01X17452Y1283D01*
G01X17486Y1267D01*
G01X17503Y1260D01*
G01X17521Y1254D01*
G01X17557Y1244D01*
G01X17575Y1240D01*
G01X17594Y1237D01*
G01X17612Y1235D01*
G01X17631Y1234D01*
G01X17668Y1234D01*
G01X17687Y1235D01*
G01X17705Y1237D01*
G01X17724Y1240D01*
G01X17742Y1244D01*
G01X17778Y1254D01*
G01X17796Y1260D01*
G01X17813Y1267D01*
G01X17847Y1283D01*
G01X17863Y1292D01*
G01X17879Y1302D01*
G01X17909Y1324D01*
G01X17923Y1336D01*
G01X17937Y1349D01*
G01X17950Y1362D01*
G01X17963Y1376D01*
G01X17975Y1390D01*
G01X17997Y1420D01*
G01X18007Y1436D01*
G01X18016Y1452D01*
G01X18032Y1486D01*
G01X18039Y1503D01*
G01X18045Y1521D01*
G01X18055Y1557D01*
G01X18059Y1575D01*
G01X18062Y1594D01*
G01X18064Y1612D01*
G01X18065Y1631D01*
G01X18065Y1668D01*
G01X18064Y1687D01*
G01X18062Y1705D01*
G01X18059Y1724D01*
G01X18055Y1742D01*
G01X18045Y1778D01*
G01X18039Y1796D01*
G01X18032Y1813D01*
G01X18016Y1847D01*
G01X18007Y1863D01*
G01X17997Y1879D01*
G01X17975Y1909D01*
G01X17963Y1923D01*
G01X17950Y1937D01*
G01X17937Y1950D01*
G01X17923Y1963D01*
G01X17909Y1975D01*
G01X17879Y1997D01*
G01X17863Y2007D01*
G01X17847Y2016D01*
G01X17813Y2032D01*
G01X17796Y2039D01*
G01X17778Y2045D01*
G01X17742Y2055D01*
G01X17724Y2059D01*
G01X17705Y2062D01*
G01X17687Y2064D01*
G01X17668Y2065D01*
G37*
G36*
G01X6457Y4085D02*
G01X6306Y4085D01*
G01X6296Y4083D01*
G01X6287Y4081D01*
G01X6278Y4078D01*
G01X6270Y4075D01*
G01X6254Y4065D01*
G01X6247Y4059D01*
G01X6240Y4052D01*
G01X6234Y4045D01*
G01X6224Y4029D01*
G01X6221Y4021D01*
G01X6218Y4012D01*
G01X6216Y4003D01*
G01X6214Y3993D01*
G01X6214Y3842D01*
G01X6457Y3842D01*
G01X6457Y4085D01*
G37*
G36*
G01X6993Y4085D02*
G01X6842Y4085D01*
G01X6842Y3842D01*
G01X7085Y3842D01*
G01X7085Y3993D01*
G01X7083Y4003D01*
G01X7081Y4012D01*
G01X7078Y4021D01*
G01X7075Y4029D01*
G01X7065Y4045D01*
G01X7059Y4052D01*
G01X7052Y4059D01*
G01X7045Y4065D01*
G01X7029Y4075D01*
G01X7021Y4078D01*
G01X7012Y4081D01*
G01X7003Y4083D01*
G01X6993Y4085D01*
G37*
G36*
G01X7085Y3457D02*
G01X6842Y3457D01*
G01X6842Y3214D01*
G01X6993Y3214D01*
G01X7003Y3216D01*
G01X7012Y3218D01*
G01X7021Y3221D01*
G01X7029Y3224D01*
G01X7045Y3234D01*
G01X7052Y3240D01*
G01X7059Y3247D01*
G01X7065Y3254D01*
G01X7075Y3270D01*
G01X7078Y3278D01*
G01X7081Y3287D01*
G01X7083Y3296D01*
G01X7085Y3306D01*
G01X7085Y3457D01*
G37*
G36*
G01X6457Y3457D02*
G01X6214Y3457D01*
G01X6214Y3306D01*
G01X6216Y3296D01*
G01X6218Y3287D01*
G01X6221Y3278D01*
G01X6224Y3270D01*
G01X6234Y3254D01*
G01X6240Y3247D01*
G01X6247Y3240D01*
G01X6254Y3234D01*
G01X6270Y3224D01*
G01X6278Y3221D01*
G01X6287Y3218D01*
G01X6296Y3216D01*
G01X6306Y3214D01*
G01X6457Y3214D01*
G01X6457Y3457D01*
G37*
G36*
G01X10467Y467D02*
G01X10276Y467D01*
G01X10284Y451D01*
G01X10293Y435D01*
G01X10303Y419D01*
G01X10314Y404D01*
G01X10325Y390D01*
G01X10337Y375D01*
G01X10349Y362D01*
G01X10362Y349D01*
G01X10375Y337D01*
G01X10390Y325D01*
G01X10404Y314D01*
G01X10419Y303D01*
G01X10435Y293D01*
G01X10451Y284D01*
G01X10467Y276D01*
G01X10467Y467D01*
G37*
G36*
G01X13467Y832D02*
G01X13467Y1023D01*
G01X13451Y1015D01*
G01X13435Y1006D01*
G01X13419Y996D01*
G01X13404Y985D01*
G01X13390Y974D01*
G01X13375Y962D01*
G01X13362Y950D01*
G01X13349Y937D01*
G01X13337Y924D01*
G01X13325Y909D01*
G01X13314Y895D01*
G01X13303Y880D01*
G01X13293Y864D01*
G01X13284Y848D01*
G01X13276Y832D01*
G01X13467Y832D01*
G37*
G36*
G01X10467Y832D02*
G01X10467Y1023D01*
G01X10451Y1015D01*
G01X10435Y1006D01*
G01X10419Y996D01*
G01X10404Y985D01*
G01X10390Y974D01*
G01X10375Y962D01*
G01X10362Y950D01*
G01X10349Y937D01*
G01X10337Y924D01*
G01X10325Y909D01*
G01X10314Y895D01*
G01X10303Y880D01*
G01X10293Y864D01*
G01X10284Y848D01*
G01X10276Y832D01*
G01X10467Y832D01*
G37*
G36*
G01X3467Y467D02*
G01X3276Y467D01*
G01X3284Y451D01*
G01X3293Y435D01*
G01X3303Y419D01*
G01X3314Y404D01*
G01X3325Y390D01*
G01X3337Y375D01*
G01X3349Y362D01*
G01X3362Y349D01*
G01X3375Y337D01*
G01X3390Y325D01*
G01X3404Y314D01*
G01X3419Y303D01*
G01X3435Y293D01*
G01X3451Y284D01*
G01X3467Y276D01*
G01X3467Y467D01*
G37*
G36*
G01X6023Y467D02*
G01X5832Y467D01*
G01X5832Y276D01*
G01X5848Y284D01*
G01X5864Y293D01*
G01X5880Y303D01*
G01X5895Y314D01*
G01X5909Y325D01*
G01X5924Y337D01*
G01X5937Y349D01*
G01X5950Y362D01*
G01X5962Y375D01*
G01X5974Y390D01*
G01X5985Y404D01*
G01X5996Y419D01*
G01X6006Y435D01*
G01X6015Y451D01*
G01X6023Y467D01*
G37*
G36*
G01X3467Y832D02*
G01X3467Y1023D01*
G01X3451Y1015D01*
G01X3435Y1006D01*
G01X3419Y996D01*
G01X3404Y985D01*
G01X3390Y974D01*
G01X3375Y962D01*
G01X3362Y950D01*
G01X3349Y937D01*
G01X3337Y924D01*
G01X3325Y909D01*
G01X3314Y895D01*
G01X3303Y880D01*
G01X3293Y864D01*
G01X3284Y848D01*
G01X3276Y832D01*
G01X3467Y832D01*
G37*
G36*
G01X5848Y1015D02*
G01X5832Y1023D01*
G01X5832Y832D01*
G01X6023Y832D01*
G01X6015Y848D01*
G01X6006Y864D01*
G01X5996Y880D01*
G01X5985Y895D01*
G01X5974Y909D01*
G01X5962Y924D01*
G01X5950Y937D01*
G01X5937Y950D01*
G01X5924Y962D01*
G01X5909Y974D01*
G01X5895Y985D01*
G01X5880Y996D01*
G01X5864Y1006D01*
G01X5848Y1015D01*
G37*
G36*
G01X13467Y467D02*
G01X13276Y467D01*
G01X13284Y451D01*
G01X13293Y435D01*
G01X13303Y419D01*
G01X13314Y404D01*
G01X13325Y390D01*
G01X13337Y375D01*
G01X13349Y362D01*
G01X13362Y349D01*
G01X13375Y337D01*
G01X13390Y325D01*
G01X13404Y314D01*
G01X13419Y303D01*
G01X13435Y293D01*
G01X13451Y284D01*
G01X13467Y276D01*
G01X13467Y467D01*
G37*
G36*
G01X5467Y832D02*
G01X5467Y1023D01*
G01X5451Y1015D01*
G01X5435Y1006D01*
G01X5419Y996D01*
G01X5404Y985D01*
G01X5390Y974D01*
G01X5375Y962D01*
G01X5362Y950D01*
G01X5349Y937D01*
G01X5337Y924D01*
G01X5325Y909D01*
G01X5314Y895D01*
G01X5303Y880D01*
G01X5293Y864D01*
G01X5284Y848D01*
G01X5276Y832D01*
G01X5467Y832D01*
G37*
G36*
G01X17848Y1015D02*
G01X17832Y1023D01*
G01X17832Y832D01*
G01X18023Y832D01*
G01X18015Y848D01*
G01X18006Y864D01*
G01X17996Y880D01*
G01X17985Y895D01*
G01X17974Y909D01*
G01X17962Y924D01*
G01X17950Y937D01*
G01X17937Y950D01*
G01X17924Y962D01*
G01X17909Y974D01*
G01X17895Y985D01*
G01X17880Y996D01*
G01X17864Y1006D01*
G01X17848Y1015D01*
G37*
G36*
G01X11023Y467D02*
G01X10832Y467D01*
G01X10832Y276D01*
G01X10848Y284D01*
G01X10864Y293D01*
G01X10880Y303D01*
G01X10895Y314D01*
G01X10909Y325D01*
G01X10924Y337D01*
G01X10937Y349D01*
G01X10950Y362D01*
G01X10962Y375D01*
G01X10974Y390D01*
G01X10985Y404D01*
G01X10996Y419D01*
G01X11006Y435D01*
G01X11015Y451D01*
G01X11023Y467D01*
G37*
G36*
G01X18023Y467D02*
G01X17832Y467D01*
G01X17832Y276D01*
G01X17848Y284D01*
G01X17864Y293D01*
G01X17880Y303D01*
G01X17895Y314D01*
G01X17909Y325D01*
G01X17924Y337D01*
G01X17937Y349D01*
G01X17950Y362D01*
G01X17962Y375D01*
G01X17974Y390D01*
G01X17985Y404D01*
G01X17996Y419D01*
G01X18006Y435D01*
G01X18015Y451D01*
G01X18023Y467D01*
G37*
G36*
G01X10848Y1015D02*
G01X10832Y1023D01*
G01X10832Y832D01*
G01X11023Y832D01*
G01X11015Y848D01*
G01X11006Y864D01*
G01X10996Y880D01*
G01X10985Y895D01*
G01X10974Y909D01*
G01X10962Y924D01*
G01X10950Y937D01*
G01X10937Y950D01*
G01X10924Y962D01*
G01X10909Y974D01*
G01X10895Y985D01*
G01X10880Y996D01*
G01X10864Y1006D01*
G01X10848Y1015D01*
G37*
G36*
G01X15848Y2015D02*
G01X15832Y2023D01*
G01X15832Y1832D01*
G01X16023Y1832D01*
G01X16015Y1848D01*
G01X16006Y1864D01*
G01X15996Y1880D01*
G01X15985Y1895D01*
G01X15974Y1909D01*
G01X15962Y1924D01*
G01X15950Y1937D01*
G01X15937Y1950D01*
G01X15924Y1962D01*
G01X15909Y1974D01*
G01X15895Y1985D01*
G01X15880Y1996D01*
G01X15864Y2006D01*
G01X15848Y2015D01*
G37*
G36*
G01X3848Y1015D02*
G01X3832Y1023D01*
G01X3832Y832D01*
G01X4023Y832D01*
G01X4015Y848D01*
G01X4006Y864D01*
G01X3996Y880D01*
G01X3985Y895D01*
G01X3974Y909D01*
G01X3962Y924D01*
G01X3950Y937D01*
G01X3937Y950D01*
G01X3924Y962D01*
G01X3909Y974D01*
G01X3895Y985D01*
G01X3880Y996D01*
G01X3864Y1006D01*
G01X3848Y1015D01*
G37*
G36*
G01X17467Y467D02*
G01X17276Y467D01*
G01X17284Y451D01*
G01X17293Y435D01*
G01X17303Y419D01*
G01X17314Y404D01*
G01X17325Y390D01*
G01X17337Y375D01*
G01X17349Y362D01*
G01X17362Y349D01*
G01X17375Y337D01*
G01X17390Y325D01*
G01X17404Y314D01*
G01X17419Y303D01*
G01X17435Y293D01*
G01X17451Y284D01*
G01X17467Y276D01*
G01X17467Y467D01*
G37*
G36*
G01X4023Y467D02*
G01X3832Y467D01*
G01X3832Y276D01*
G01X3848Y284D01*
G01X3864Y293D01*
G01X3880Y303D01*
G01X3895Y314D01*
G01X3909Y325D01*
G01X3924Y337D01*
G01X3937Y349D01*
G01X3950Y362D01*
G01X3962Y375D01*
G01X3974Y390D01*
G01X3985Y404D01*
G01X3996Y419D01*
G01X4006Y435D01*
G01X4015Y451D01*
G01X4023Y467D01*
G37*
G36*
G01X17467Y832D02*
G01X17467Y1023D01*
G01X17451Y1015D01*
G01X17435Y1006D01*
G01X17419Y996D01*
G01X17404Y985D01*
G01X17390Y974D01*
G01X17375Y962D01*
G01X17362Y950D01*
G01X17349Y937D01*
G01X17337Y924D01*
G01X17325Y909D01*
G01X17314Y895D01*
G01X17303Y880D01*
G01X17293Y864D01*
G01X17284Y848D01*
G01X17276Y832D01*
G01X17467Y832D01*
G37*
G36*
G01X5467Y467D02*
G01X5276Y467D01*
G01X5284Y451D01*
G01X5293Y435D01*
G01X5303Y419D01*
G01X5314Y404D01*
G01X5325Y390D01*
G01X5337Y375D01*
G01X5349Y362D01*
G01X5362Y349D01*
G01X5375Y337D01*
G01X5390Y325D01*
G01X5404Y314D01*
G01X5419Y303D01*
G01X5435Y293D01*
G01X5451Y284D01*
G01X5467Y276D01*
G01X5467Y467D01*
G37*
G36*
G01X14023Y467D02*
G01X13832Y467D01*
G01X13832Y276D01*
G01X13848Y284D01*
G01X13864Y293D01*
G01X13880Y303D01*
G01X13895Y314D01*
G01X13909Y325D01*
G01X13924Y337D01*
G01X13937Y349D01*
G01X13950Y362D01*
G01X13962Y375D01*
G01X13974Y390D01*
G01X13985Y404D01*
G01X13996Y419D01*
G01X14006Y435D01*
G01X14015Y451D01*
G01X14023Y467D01*
G37*
G36*
G01X13848Y1015D02*
G01X13832Y1023D01*
G01X13832Y832D01*
G01X14023Y832D01*
G01X14015Y848D01*
G01X14006Y864D01*
G01X13996Y880D01*
G01X13985Y895D01*
G01X13974Y909D01*
G01X13962Y924D01*
G01X13950Y937D01*
G01X13937Y950D01*
G01X13924Y962D01*
G01X13909Y974D01*
G01X13895Y985D01*
G01X13880Y996D01*
G01X13864Y1006D01*
G01X13848Y1015D01*
G37*
G36*
G01X16023Y1467D02*
G01X15832Y1467D01*
G01X15832Y1276D01*
G01X15848Y1284D01*
G01X15864Y1293D01*
G01X15880Y1303D01*
G01X15895Y1314D01*
G01X15909Y1325D01*
G01X15924Y1337D01*
G01X15937Y1349D01*
G01X15950Y1362D01*
G01X15962Y1375D01*
G01X15974Y1390D01*
G01X15985Y1404D01*
G01X15996Y1419D01*
G01X16006Y1435D01*
G01X16015Y1451D01*
G01X16023Y1467D01*
G37*
G36*
G01X15467Y1467D02*
G01X15276Y1467D01*
G01X15284Y1451D01*
G01X15293Y1435D01*
G01X15303Y1419D01*
G01X15314Y1404D01*
G01X15325Y1390D01*
G01X15337Y1375D01*
G01X15349Y1362D01*
G01X15362Y1349D01*
G01X15375Y1337D01*
G01X15390Y1325D01*
G01X15404Y1314D01*
G01X15419Y1303D01*
G01X15435Y1293D01*
G01X15451Y1284D01*
G01X15467Y1276D01*
G01X15467Y1467D01*
G37*
G36*
G01X15467Y1832D02*
G01X15467Y2023D01*
G01X15451Y2015D01*
G01X15435Y2006D01*
G01X15419Y1996D01*
G01X15404Y1985D01*
G01X15390Y1974D01*
G01X15375Y1962D01*
G01X15362Y1950D01*
G01X15349Y1937D01*
G01X15337Y1924D01*
G01X15325Y1909D01*
G01X15314Y1895D01*
G01X15303Y1880D01*
G01X15293Y1864D01*
G01X15284Y1848D01*
G01X15276Y1832D01*
G01X15467Y1832D01*
G37*
G36*
G01X467Y1467D02*
G01X276Y1467D01*
G01X284Y1451D01*
G01X293Y1435D01*
G01X303Y1419D01*
G01X314Y1404D01*
G01X325Y1390D01*
G01X337Y1375D01*
G01X349Y1362D01*
G01X362Y1349D01*
G01X375Y1337D01*
G01X390Y1325D01*
G01X404Y1314D01*
G01X419Y1303D01*
G01X435Y1293D01*
G01X451Y1284D01*
G01X467Y1276D01*
G01X467Y1467D01*
G37*
G36*
G01X848Y2015D02*
G01X832Y2023D01*
G01X832Y1832D01*
G01X1023Y1832D01*
G01X1015Y1848D01*
G01X1006Y1864D01*
G01X996Y1880D01*
G01X985Y1895D01*
G01X974Y1909D01*
G01X962Y1924D01*
G01X950Y1937D01*
G01X937Y1950D01*
G01X924Y1962D01*
G01X909Y1974D01*
G01X895Y1985D01*
G01X880Y1996D01*
G01X864Y2006D01*
G01X848Y2015D01*
G37*
G36*
G01X467Y1832D02*
G01X467Y2023D01*
G01X451Y2015D01*
G01X435Y2006D01*
G01X419Y1996D01*
G01X404Y1985D01*
G01X390Y1974D01*
G01X375Y1962D01*
G01X362Y1950D01*
G01X349Y1937D01*
G01X337Y1924D01*
G01X325Y1909D01*
G01X314Y1895D01*
G01X303Y1880D01*
G01X293Y1864D01*
G01X284Y1848D01*
G01X276Y1832D01*
G01X467Y1832D01*
G37*
G36*
G01X1023Y1467D02*
G01X832Y1467D01*
G01X832Y1276D01*
G01X848Y1284D01*
G01X864Y1293D01*
G01X880Y1303D01*
G01X895Y1314D01*
G01X909Y1325D01*
G01X924Y1337D01*
G01X937Y1349D01*
G01X950Y1362D01*
G01X962Y1375D01*
G01X974Y1390D01*
G01X985Y1404D01*
G01X996Y1419D01*
G01X1006Y1435D01*
G01X1015Y1451D01*
G01X1023Y1467D01*
G37*

%LPD*%
G36*
G01X7964Y3327D02*
G01X7959Y3328D01*
G01X7947Y3326D01*
G01X7937Y3322D01*
G01X7933Y3318D01*
G01X7899Y3292D01*
G01X7881Y3280D01*
G01X7863Y3270D01*
G01X7844Y3260D01*
G01X7824Y3251D01*
G01X7819Y3248D01*
G01X7807Y3236D01*
G01X7804Y3231D01*
G01X7802Y3225D01*
G01X7801Y3220D01*
G01X7801Y2899D01*
G01X7800Y2888D01*
G01X7799Y2876D01*
G01X7796Y2864D01*
G01X7793Y2853D01*
G01X7789Y2842D01*
G01X7784Y2831D01*
G01X7772Y2811D01*
G01X7764Y2801D01*
G01X7312Y2349D01*
G01X7308Y2344D01*
G01X7305Y2339D01*
G01X7302Y2333D01*
G01X7301Y2327D01*
G01X7301Y1979D01*
G01X7302Y1974D01*
G01X7304Y1968D01*
G01X7307Y1963D01*
G01X7310Y1959D01*
G01X7314Y1955D01*
G01X7319Y1951D01*
G01X7324Y1948D01*
G01X7329Y1946D01*
G01X7335Y1945D01*
G01X7346Y1945D01*
G01X7358Y1949D01*
G01X7368Y1955D01*
G01X7383Y1969D01*
G01X7398Y1981D01*
G01X7415Y1993D01*
G01X7432Y2004D01*
G01X7449Y2014D01*
G01X7467Y2023D01*
G01X7467Y1832D01*
G01X7335Y1832D01*
G01X7329Y1830D01*
G01X7319Y1826D01*
G01X7314Y1822D01*
G01X7310Y1818D01*
G01X7307Y1814D01*
G01X7304Y1809D01*
G01X7302Y1803D01*
G01X7301Y1798D01*
G01X7301Y1501D01*
G01X7302Y1496D01*
G01X7304Y1490D01*
G01X7307Y1485D01*
G01X7310Y1481D01*
G01X7314Y1477D01*
G01X7319Y1473D01*
G01X7329Y1469D01*
G01X7335Y1467D01*
G01X7467Y1467D01*
G01X7467Y1276D01*
G01X7449Y1285D01*
G01X7432Y1295D01*
G01X7415Y1306D01*
G01X7398Y1318D01*
G01X7383Y1330D01*
G01X7368Y1344D01*
G01X7358Y1350D01*
G01X7346Y1354D01*
G01X7335Y1354D01*
G01X7329Y1353D01*
G01X7324Y1351D01*
G01X7319Y1348D01*
G01X7314Y1344D01*
G01X7310Y1340D01*
G01X7307Y1336D01*
G01X7304Y1331D01*
G01X7302Y1325D01*
G01X7301Y1320D01*
G01X7301Y979D01*
G01X7302Y974D01*
G01X7304Y968D01*
G01X7307Y963D01*
G01X7310Y959D01*
G01X7314Y955D01*
G01X7319Y951D01*
G01X7324Y948D01*
G01X7329Y946D01*
G01X7335Y945D01*
G01X7346Y945D01*
G01X7358Y949D01*
G01X7368Y955D01*
G01X7382Y968D01*
G01X7397Y980D01*
G01X7413Y992D01*
G01X7429Y1002D01*
G01X7446Y1012D01*
G01X7480Y1030D01*
G01X7516Y1044D01*
G01X7554Y1054D01*
G01X7573Y1058D01*
G01X7611Y1064D01*
G01X7630Y1065D01*
G01X7668Y1065D01*
G01X7687Y1064D01*
G01X7705Y1062D01*
G01X7724Y1059D01*
G01X7742Y1055D01*
G01X7778Y1045D01*
G01X7796Y1039D01*
G01X7813Y1032D01*
G01X7847Y1016D01*
G01X7863Y1007D01*
G01X7879Y997D01*
G01X7909Y975D01*
G01X7923Y963D01*
G01X7937Y950D01*
G01X7950Y937D01*
G01X7963Y923D01*
G01X7975Y909D01*
G01X7997Y879D01*
G01X8007Y863D01*
G01X8016Y847D01*
G01X8032Y813D01*
G01X8039Y796D01*
G01X8045Y778D01*
G01X8055Y742D01*
G01X8059Y724D01*
G01X8062Y705D01*
G01X8064Y687D01*
G01X8065Y668D01*
G01X8065Y630D01*
G01X8064Y611D01*
G01X8058Y573D01*
G01X8054Y554D01*
G01X8044Y516D01*
G01X8030Y480D01*
G01X8012Y446D01*
G01X8002Y429D01*
G01X7992Y413D01*
G01X7980Y397D01*
G01X7968Y382D01*
G01X7955Y368D01*
G01X7949Y358D01*
G01X7945Y346D01*
G01X7945Y335D01*
G01X7946Y329D01*
G01X7948Y324D01*
G01X7951Y319D01*
G01X7955Y314D01*
G01X7959Y310D01*
G01X7963Y307D01*
G01X7968Y304D01*
G01X7974Y302D01*
G01X7979Y301D01*
G01X8320Y301D01*
G01X8325Y302D01*
G01X8331Y304D01*
G01X8336Y307D01*
G01X8340Y310D01*
G01X8344Y314D01*
G01X8348Y319D01*
G01X8351Y324D01*
G01X8353Y329D01*
G01X8354Y335D01*
G01X8354Y346D01*
G01X8350Y358D01*
G01X8344Y368D01*
G01X8331Y382D01*
G01X8319Y397D01*
G01X8307Y413D01*
G01X8297Y429D01*
G01X8287Y446D01*
G01X8269Y480D01*
G01X8255Y516D01*
G01X8245Y554D01*
G01X8241Y573D01*
G01X8235Y611D01*
G01X8234Y630D01*
G01X8234Y668D01*
G01X8235Y686D01*
G01X8237Y704D01*
G01X8240Y723D01*
G01X8244Y741D01*
G01X8248Y758D01*
G01X8253Y776D01*
G01X8259Y793D01*
G01X8261Y800D01*
G01X8262Y807D01*
G01X8261Y813D01*
G01X8260Y820D01*
G01X8257Y825D01*
G01X8254Y831D01*
G01X8250Y835D01*
G01X8043Y1043D01*
G01X8035Y1051D01*
G01X8027Y1061D01*
G01X8015Y1081D01*
G01X8010Y1092D01*
G01X8006Y1103D01*
G01X8003Y1114D01*
G01X8000Y1126D01*
G01X7998Y1150D01*
G01X7998Y1320D01*
G01X7997Y1325D01*
G01X7995Y1331D01*
G01X7992Y1336D01*
G01X7989Y1340D01*
G01X7985Y1344D01*
G01X7980Y1348D01*
G01X7975Y1351D01*
G01X7970Y1353D01*
G01X7964Y1354D01*
G01X7953Y1354D01*
G01X7941Y1350D01*
G01X7931Y1344D01*
G01X7916Y1330D01*
G01X7901Y1318D01*
G01X7884Y1306D01*
G01X7867Y1295D01*
G01X7850Y1285D01*
G01X7832Y1276D01*
G01X7832Y1467D01*
G01X7964Y1467D01*
G01X7970Y1469D01*
G01X7980Y1473D01*
G01X7985Y1477D01*
G01X7989Y1481D01*
G01X7992Y1485D01*
G01X7995Y1490D01*
G01X7997Y1496D01*
G01X7998Y1501D01*
G01X7998Y1798D01*
G01X7997Y1803D01*
G01X7995Y1809D01*
G01X7992Y1814D01*
G01X7989Y1818D01*
G01X7985Y1822D01*
G01X7980Y1826D01*
G01X7970Y1830D01*
G01X7964Y1832D01*
G01X7832Y1832D01*
G01X7832Y2023D01*
G01X7850Y2014D01*
G01X7867Y2004D01*
G01X7884Y1993D01*
G01X7901Y1981D01*
G01X7916Y1969D01*
G01X7931Y1955D01*
G01X7941Y1949D01*
G01X7953Y1945D01*
G01X7964Y1945D01*
G01X7970Y1946D01*
G01X7975Y1948D01*
G01X7980Y1951D01*
G01X7985Y1955D01*
G01X7989Y1959D01*
G01X7992Y1963D01*
G01X7995Y1968D01*
G01X7997Y1974D01*
G01X7998Y1979D01*
G01X7998Y3294D01*
G01X7997Y3299D01*
G01X7995Y3305D01*
G01X7992Y3310D01*
G01X7989Y3314D01*
G01X7985Y3318D01*
G01X7980Y3322D01*
G01X7970Y3326D01*
G01X7964Y3327D01*
G37*

%LPD*%
G54D10*
G01X8650Y3650D02*
G01X8650Y1650D01*
G01X9650Y4650D02*
G01X10250Y4650D01*
G01X12650Y2250D01*
G01X12650Y1650D01*
G01X9650Y3650D02*
G01X9650Y1650D01*
G01X8650Y4650D02*
G01X8700Y4650D01*
G01X9150Y4200D01*
G01X9900Y4200D01*
G01X10650Y3450D01*
G01X10650Y1650D01*
G01X7650Y4650D02*
G01X7650Y4450D01*
G01X8150Y3950D01*
G01X8150Y1150D01*
G01X8650Y650D01*
G01X7650Y3650D02*
G01X7650Y2900D01*
G01X7150Y2400D01*
G01X7150Y450D01*
G01X7450Y150D01*
G01X9150Y150D01*
G01X9650Y650D01*
G36*
G01X19964Y1335D02*
G01X19335Y1335D01*
G01X19335Y1964D01*
G01X19964Y1964D01*
G01X19964Y1335D01*
G37*
G54D18*
G01X19650Y650D03*
G01X18650Y1650D03*
G01X18650Y650D03*
G01X17650Y1650D03*
G01X17650Y650D03*
G01X16650Y1650D03*
G01X16650Y650D03*
G01X15650Y1650D03*
G01X15650Y650D03*
G01X14650Y1650D03*
G01X14650Y650D03*
G01X13650Y1650D03*
G01X13650Y650D03*
G01X12650Y1650D03*
G01X12650Y650D03*
G01X11650Y1650D03*
G01X11650Y650D03*
G01X10650Y1650D03*
G01X10650Y650D03*
G01X9650Y1650D03*
G01X9650Y650D03*
G01X8650Y1650D03*
G01X8650Y650D03*
G01X7650Y1650D03*
G01X7650Y650D03*
G01X6650Y1650D03*
G01X6650Y650D03*
G01X5650Y1650D03*
G01X5650Y650D03*
G01X4650Y1650D03*
G01X4650Y650D03*
G01X3650Y1650D03*
G01X3650Y650D03*
G01X2650Y1650D03*
G01X2650Y650D03*
G01X1650Y1650D03*
G01X1650Y650D03*
G01X650Y1650D03*
G01X650Y650D03*
G54D19*
G01X6650Y3650D03*
G54D20*
G01X6650Y4650D03*
G01X7650Y3650D03*
G01X7650Y4650D03*
G01X8650Y3650D03*
G01X8650Y4650D03*
G01X9650Y3650D03*
G01X9650Y4650D03*
M00*
M02*
